<?xml version="1.0" encoding="UTF-8"?>
<!DOCTYPE svg PUBLIC "-//W3C//DTD SVG 1.1//EN" "http://www.w3.org/Graphics/SVG/1.1/DTD/svg11.dtd">
<svg version="1.1" xmlns="http://www.w3.org/2000/svg" xmlns:xlink="http://www.w3.org/1999/xlink" x="0px" y="0px" width="700" height="620" viewBox="0, 0, 700, 620">
  <g id="Layer 1">
    <path d="M27.265,519.56 L163.703,482.535 L203.653,611.69 L285.212,587.966 L370.77,509.2 L481.929,501.042 L552.21,616.677 L657.738,539.073 L614.764,425.732 L696.333,377.547 L650.723,343.393 L635.434,156.645 L361.8,164.943 L275.44,91.639 L206.979,195.371 L110.592,153.878 L8.454,232.776 L33.777,317.947 L14.546,480.752 z" fill="#C370B0"/>
    <path d="M139.042,100.108 L93.726,149.38 L93.659,176.646 L53.549,243.246 L77.303,311.847 L5.341,316.035 L85.311,375.26 L17.501,426.311 L160.564,495.697 L223.899,554.134 L245.036,521.265 L379.836,547.73 L374.96,587.635 L481.12,564.902 L487.463,575.306 L538.428,505.062 L506.31,428.746 L602.661,469.826 L595.099,328.497 L631.818,329.358 L582.886,261.437 L601.809,188.951 L554.11,122.167 L505.532,77.343 L407.415,108.636 L385.648,88.096 L368.026,21.416 L308.943,85.658 L263.002,104.559 L221.358,82.742 z" fill="#A55FAA"/>
    <path d="M543.462,491.113 L546.709,619.998 L661.574,534.743 z" fill="#C374B1"/>
    <path d="M546.794,620 L470.663,501.581 L544.046,491.855 z" fill="#D572B0"/>
    <path d="M649.763,131.282 L458.716,298.466 L475.569,180.281 z" fill="#E063A9"/>
    <path d="M649.92,131.282 L359.837,157.96 L375.94,210.02 z" fill="#CA68AC"/>
    <path d="M206.063,396.667 L133.201,402.5 L16.14,415.65 L181.013,335.494 z" fill="#AA78B6"/>
    <path d="M152.792,483.869 L16.138,415.65 L135.218,402.267 z" fill="#7359AA"/>
    <path d="M28.69,520.536 L16.353,415.65 L10.124,478.146 z" fill="#644CA5"/>
    <path d="M152.792,483.869 L28.69,520.685 L16.138,415.65 z" fill="#8256A8"/>
    <path d="M649.763,131.282 L539.706,382.658 L458.716,298.067 z" fill="#C24DA3"/>
    <path d="M421.386,386.322 L367.72,518.678 L544.107,491.854 z" fill="#B457A7"/>
    <path d="M650.945,341.905 L622.062,420.282 L700.123,380.542" fill="#C980B8"/>
    <path d="M601.807,187.493 L524.481,180.968 L552.853,122.88 z" fill="#B25AA8"/>
    <path d="M179.418,547.99 L199.433,611.278 L285.17,582.98 z" fill="#5D4CA1"/>
    <path d="M538.845,379.95 L575.005,463.463 L544.038,492.145 z" fill="#C27DB6"/>
    <path d="M632.37,170.484 L650.946,341.904 L566.119,321.606 z" fill="#D556A5"/>
    <path d="M544.108,491.853 L661.574,534.787 L622.169,419.817 z" fill="#B77AB6"/>
    <path d="M574.891,463.473 L622.599,419.813 L539.473,382.658 z" fill="#EA83B6"/>
    <path d="M650.945,341.905 L622.512,419.811 L539.473,382.659 z" fill="#D770AF"/>
    <path d="M539.472,382.659 L478.546,435.895 L544.107,491.853 z" fill="#C574B1"/>
    <path d="M566.334,321.28 L650.946,341.905 L539.472,382.665 z" fill="#C24DA3"/>
    <path d="M27.756,312.323 L110.931,148.808 L0.978,231.9 z" fill="#957CBA"/>
    <path d="M131.353,212.889 L27.755,312.321 L68.107,232.868 z" fill="#7359AA"/>
    <path d="M16.139,415.65 L181.014,335.494 L27.81,312.323 z" fill="#8358A9"/>
    <path d="M50.513,241.821 L100.631,224.156 L96.389,170.896 z" fill="#8166AF"/>
    <path d="M92.556,152.302 L99.307,220.1 L140.598,99.893 z" fill="#AA78B6"/>
    <path d="M128.979,424.942 L76.116,377.235 L16.476,427.592 z" fill="#AA78B6"/>
    <path d="M446.52,502.343 L486.359,578.201 L538.878,501.7 z" fill="#B77AB6"/>
    <path d="M482.925,502.105 L539.156,501.95 L507.704,429.651 z" fill="#EA83B6"/>
    <path d="M585.468,262.496 L659.745,191.511 L524.48,180.965 z" fill="#D15CA8"/>
    <path d="M552.852,122.881 L503.092,77.601 L504.513,223.399 z" fill="#7359AA"/>
    <path d="M159.392,493.084 L17.92,427.124 L128.976,424.946 z" fill="#A55FAA"/>
    <path d="M387.134,395.254 L179.417,547.99 L367.842,518.68 z" fill="#B457A7"/>
    <path d="M206.121,396.667 L179.419,547.99 L387.134,395.254 z" fill="#AA78B6"/>
    <path d="M27.81,312.323 L181.014,335.494 L131.354,212.889 z" fill="#5A4CA4"/>
    <path d="M179.418,547.99 L152.791,483.871 L191.484,483.113 z" fill="#A09CCC"/>
    <path d="M285.241,582.981 L179.418,547.991 L367.843,518.68 z" fill="#8D65AE"/>
    <path d="M221.076,86.131 L305.659,190.342 L279.365,90.476 z" fill="#5A4CA4"/>
    <path d="M129.013,425.393 L7.786,316.991 L156.127,377.853 z" fill="#8965AE"/>
    <path d="M508.894,427.547 L483,502.167 L446.303,502.487 z" fill="#C27DB6"/>
    <path d="M446.539,501.49 L372.895,585.998 L479.007,563.443 z" fill="#C374B1"/>
    <path d="M111.913,182.685 L166.134,135.291 L155.561,47.79 z" fill="#8166AF"/>
    <path d="M594.909,330.245 L603.099,468.547 L547.022,382.488 z" fill="#D556A5"/>
    <path d="M548.32,381.071 L603.099,468.547 L507.699,429.655 z" fill="#C24DA3"/>
    <path d="M634.72,331.419 L505.409,328.584 L585.649,262.663 z" fill="#E063A9"/>
    <path d="M586.821,263.769 L524.584,180.853 L504.317,223.611 z" fill="#CA68AC"/>
    <path d="M404.919,109.974 L504.513,223.4 L503.093,77.601 z" fill="#5A4CA4"/>
    <path d="M99.306,220.101 L153.026,145.676 L112.312,182.103 z" fill="#644CA5"/>
    <path d="M159.378,493.073 L128.977,424.947 L227.01,409.719 z" fill="#7558AA"/>
    <path d="M371.517,0.974 L360.987,164.828 L279.364,90.477 L369.328,0.974 z" fill="#5A4CA4"/>
    <path d="M372.36,0.974 L404.919,109.974 L360.986,164.828 L371.516,0.974 z" fill="#AA78B6"/>
    <path d="M166.134,135.29 L221.076,86.131 L155.561,47.79 z" fill="#AA78B6"/>
    <path d="M285.81,244.196 L179.785,325.614 L402.662,348.87 z" fill="#AA78B6"/>
    <path d="M402.662,348.87 L179.786,325.614 L317.78,416.728 z" fill="#B457A7"/>
    <path d="M377.16,244.487 L285.772,244.162 L402.662,348.867 z" fill="#C047A1"/>
    <path d="M225.634,291.065 L237.011,206.498 L285.772,244.162 z" fill="#8358A9"/>
    <path d="M179.785,325.614 L200.389,268.984 L225.636,291.066 z" fill="#A09CCC"/>
    <path d="M317.7,416.654 L505.03,267.614 L429.691,363.308 z" fill="#EA83B6"/>
    <path d="M504.781,267.887 L377.118,244.451 L402.661,348.87 z" fill="#CC57A6"/>
    <path d="M285.772,244.161 L361.021,164.786 L377.062,244.512 z" fill="#C370B0"/>
    <path d="M179.785,325.614 L77.946,310.207 L200.398,268.992 z" fill="#8166AF"/>
    <path d="M227.057,409.762 L179.784,325.613 L317.78,416.728 z" fill="#8D65AE"/>
    <path d="M200.393,268.983 L225.633,291.065 L237.324,206.157 z" fill="#A55FAA"/>
    <path d="M179.785,325.614 L155.429,377.853 L227.011,409.719 z" fill="#5D4CA1"/>
    <path d="M507.858,429.799 L429.69,362.965 L504.781,267.887 z" fill="#CC57A6"/>
    <path d="M226.416,553.828 L227.011,409.72 L318.071,416.412 z" fill="#AA78B6"/>
    <path d="M504.781,267.887 L504.513,223.398 L377.118,244.451 z" fill="#D556A5"/>
    <path d="M376.948,244.635 L361.023,164.788 L504.513,223.4 z" fill="#AA78B6"/>
    <path d="M305.659,190.343 L285.772,244.162 L361.023,164.787 z" fill="#A55FAA"/>
    <path d="M285.772,244.161 L235.644,205.402 L152.887,145.551 L305.659,190.341 z" fill="#AA78B6"/>
    <path d="M200.393,268.983 L152.886,145.55 L237.074,206.429 z" fill="#7359AA"/>
    <path d="M77.948,310.204 L200.393,268.981 L99.219,220.195 z" fill="#957CBA"/>
    <path d="M77.741,310.015 L155.917,378.082 L179.785,325.614 z" fill="#AA78B6"/>
    <path d="M429.861,363.123 L317.7,416.653 L446.519,502.342 z" fill="#B457A7"/>
    <path d="M504.514,223.398 L361.024,164.788 L404.918,109.974 z" fill="#848BC4"/>
    <path d="M152.889,145.551 L305.66,190.342 L221.075,86.131 z" fill="#8358A9"/>
    <path d="M246.929,521.965 L318.07,416.41 L379.628,545.647 z" fill="#A55FAA"/>
    <path d="M317.701,416.814 L380.483,548.037 L394.042,465.396 z" fill="#C64CA3"/>
    <path d="M32.417,248.753 L77.95,310.204 L99.19,220.168 z" fill="#644CA5"/>
    <path d="M586.822,263.769 L505.199,329.951 L504.438,223.481 z" fill="#EA83B6"/>
    <path d="M372.95,586.046 L393.729,465.737 L446.48,502.307 z" fill="#D572B0"/>
    <path d="M507.705,429.651 L437.375,428.237 L446.521,502.342 z" fill="#C574B1"/>
    <path d="M507.705,429.651 L429.863,363.123 L437.05,428.172 z" fill="#D25BA7"/>
    <path d="M227.227,408.572 L159.372,493.064 L226.419,553.828 z" fill="#8D65AE"/>
    <path d="M200.394,268.983 L99.22,220.195 L152.887,145.55 z" fill="#8256A8"/>
    <path d="M128.98,424.942 L156.13,377.85 L227.011,409.719 z" fill="#8965AE"/>
    <path d="M7.786,316.991 L156.129,377.852 L78.202,309.925 z" fill="#AA78B6"/>
    <path d="M594.91,330.245 L507.854,429.786 L505.643,328.327 z" fill="#C24DA3"/>
    <path d="M279.364,90.477 L361.024,164.788 L305.66,190.343 z" fill="#AA78B6"/>
  </g>
  <g id="Layer 2">
    <path d="M504.459,293.596 C510.035,292.747 514.372,298.094 516.869,313.416 C519.671,330.629 517.614,344.317 507.658,345.833 C504.871,346.258 501.272,345.451 498.469,344.521 C493.799,314.604 494.304,295.143 504.459,293.596 M492.696,275.229 C491.956,270.689 489.195,268.784 484.617,269.482 C484.109,269.56 483.548,269.694 482.951,269.873 C494.768,255.565 499.222,232.948 500.459,214.117 C509.094,211.933 518.327,208.313 518.327,208.313 C513.963,214.536 503.33,235.963 505.999,253.779 C506.788,259.027 509.218,263.578 513.101,266.931 C512.662,266.97 512.22,267.02 511.771,267.088 C500.423,268.817 494.491,282.517 491.514,293.049 C492.289,286.535 493.341,279.201 492.696,275.229 M467.108,362.11 C462.562,362.986 459.175,359.54 456.641,347.336 C453.951,334.383 454.659,321.944 452.201,310.117 C449.903,299.041 444.908,290.826 432.653,293.189 C422.768,295.095 414.718,306.802 411.051,316.88 C407.843,306.369 403,298.906 393.119,300.813 C382.249,302.907 372.963,317.585 370.441,328.224 C370.109,320.673 371.864,314.282 371.048,310.34 C370.109,305.835 367.47,304 362.922,304.876 C356.796,306.058 343.81,314.81 343.666,324.014 C343.379,328.562 343.685,332.015 349.88,362.845 C350.93,368.374 351.566,373.977 352.121,379.165 C349.466,382.396 349.995,389.848 344.485,390.833 C340.322,391.578 336.784,385.977 333.06,366.588 C329.333,347.199 331.34,332.04 330.146,325.826 C329.133,320.554 324.536,319.04 321.561,319.572 C317.401,320.316 312.071,324.582 308.631,329.088 C306.16,325.834 301.544,323.152 292.03,324.855 C276.971,327.549 256.712,344.805 264.203,383.777 C265.326,389.624 267.492,396.129 270.751,401.909 C267.224,406.505 262.282,415.561 249.206,417.35 C236.023,419.152 219.133,413.067 215.176,385.871 C212.016,364.163 219.364,345.151 228.907,343.846 C234.68,343.061 239.043,349.271 239.738,354.047 C240.727,360.845 238.721,360.266 239.434,365.157 C240.042,369.334 243.888,371.118 246.397,370.775 C258.449,369.126 261.525,359.462 260.796,354.449 C258.464,338.437 246.938,330.348 233.996,330.88 C235.543,328.597 237.116,325.635 238.301,322.599 C243.004,325.768 248.681,327.34 255.392,326.272 C263.149,325.037 270.557,320.56 275.295,313.597 C280.038,318.663 287.213,321.209 296.162,319.784 C307.363,318.001 313.013,310.346 315.559,303.397 C322.25,306.344 330.659,307.772 339.759,306.527 C360.314,303.713 373.24,293.241 370.724,275.984 C366.303,245.648 321.714,245.562 313.637,236.226 L316.033,235.9 C334.191,233.411 356.294,228.645 371.928,224.184 C372.587,242.659 374.066,261.214 375.063,268.041 C377.549,285.105 387.432,298.452 407.189,295.746 C420.031,293.988 426.918,284.157 429.707,276.633 C437.908,282.681 448.212,285.135 458.953,283.623 C461.937,283.203 464.714,282.467 467.301,281.463 C465.96,283.464 465.023,285.61 464.75,287.823 C463.457,297.836 468.661,332.88 472.324,355.614 C471.445,358.556 470.401,361.473 467.108,362.11 M301.911,398.644 C298.742,399.211 292.033,396.322 287.547,372.977 C285.303,361.306 285.723,344.286 294.443,342.729 C297.613,342.16 298.658,343.336 299.056,345.407 C299.599,348.231 298.577,352.503 299.084,355.137 C299.699,358.341 301.646,359.938 305.411,359.264 C306.445,367.843 307.589,376.987 308.892,383.763 C309.108,384.892 309.326,386.021 309.94,387.08 C309.257,392.072 307.657,397.615 301.911,398.644 M252.155,250.912 C255.336,250.406 256.359,251.6 256.713,253.678 C257.196,256.514 256.082,260.765 256.532,263.41 C257.078,266.621 258.991,268.259 262.77,267.657 C263.622,276.255 264.57,285.418 265.729,292.219 C265.923,293.355 266.116,294.488 266.707,295.557 C265.919,300.534 264.202,306.048 258.436,306.965 C255.253,307.471 248.612,304.454 244.619,281.024 C242.624,269.31 243.405,252.305 252.155,250.912 M444.446,210.005 C449.034,209.36 451.796,214.196 452.479,218.742 C453.9,228.218 446.859,235.596 438.738,241.19 C438.369,240.08 438.195,238.942 437.999,237.616 C435.923,223.784 437.865,210.933 444.446,210.005 M511.209,407.71 C510.1,400.902 506.724,395.213 500.902,359.464 C505.193,360.748 509.789,361.405 514.564,360.677 C538.06,357.097 545.248,327.313 541.276,302.914 C539.359,291.146 535.167,279.586 528.418,272.842 C531.341,273.08 534.517,272.984 537.935,272.503 C558.879,269.553 563.899,250.077 563.128,244.959 C562.676,241.93 560.428,239.15 557.435,239.57 C551.651,240.385 554.098,251.262 544.921,252.556 C540.533,253.173 532.613,251.966 530.481,237.753 C526.986,214.445 541.78,199.009 540.695,191.809 C539.42,183.281 533.353,175.429 528.563,176.102 C522.581,176.945 516.764,191.114 500.806,197.427 C500.782,191.816 500.297,187.243 499.899,184.588 C498.649,176.252 496.086,171.387 489.303,172.343 C481.327,173.467 469.697,188.26 471.573,200.767 C472.767,208.729 478.065,215.527 487.894,215.886 C486.491,239.111 479.132,263.367 463.773,265.529 C456.595,266.538 448.816,264.926 442.779,253.196 C456.686,246.79 474.129,231.37 471.229,212.04 C469.409,199.913 460.123,189.608 444.568,191.8 C423.027,194.831 408.716,218.906 412.838,246.384 C414.112,254.875 416.991,262.018 421.021,267.727 C419.52,271.146 418.035,275.307 412.462,276.071 C407.472,276.754 402.799,271.204 399.954,251.675 C398.793,243.712 398.033,228.73 397.673,213.695 C405.664,211.247 410.83,208.992 413.552,205.333 C415.102,203.379 417.25,194.383 416.557,189.643 C416.281,187.746 415.154,185.581 412.959,185.881 C408.765,186.454 402.732,191.15 397.567,193.403 C397.339,180.669 397.271,170.43 396.912,167.966 C396.137,162.657 391.817,160.927 388.623,161.364 C382.635,162.184 373.626,170.187 371.344,176.881 C370.478,179.32 370.683,190.509 371.248,204.162 C326.492,222.475 293.541,212.868 297.162,237.708 C299.704,255.152 344.505,265.071 346.938,281.755 C347.656,286.687 344.904,290.156 339.317,290.922 C329.138,292.315 323.551,280.51 321.764,272.439 C320.591,267.184 318.924,264.125 315.132,264.644 C309.744,265.381 298.896,276.15 300.529,287.337 C300.895,289.855 302.049,292.351 303.84,294.679 C303.641,296.148 303.028,297.133 301.52,297.373 C297.343,298.038 293.569,294.97 290.254,275.51 C286.94,256.05 289.265,240.929 288.202,234.694 C287.303,229.404 282.74,227.801 279.757,228.276 C275.581,228.941 270.162,233.103 266.628,237.546 C264.228,234.242 259.67,231.473 250.125,232.993 C235.01,235.398 214.392,252.263 221.054,291.372 C221.988,296.856 223.82,302.932 226.613,308.471 C220.404,310.382 212.274,314.15 183.993,322.377 L160.078,329.654 C158.036,318.911 153.692,296.241 151.604,278.073 L151.106,275.694 C157.78,274.353 164.165,272.659 169.759,271.332 C200.934,263.429 211.911,259.784 215.04,256.056 C218.503,251.852 223.428,240.126 222.133,233.982 C221.173,229.428 216.916,228.832 213.161,229.586 C204.668,231.293 197.143,235.819 166.627,247.178 L148.264,253.957 C145.591,233.015 144.131,217.823 142.586,207.389 C151.35,202.535 161.992,197.304 176.348,191.12 C200.304,180.948 228.266,175.34 226.763,168.207 C225.636,162.857 218.709,161.975 206.188,164.486 C178.851,169.966 155.73,176.876 138.493,183.84 C135.867,180.654 131.484,179.465 128.561,180.053 C120.214,181.723 106.86,192.664 104.398,200.593 C103.817,201.948 103.689,203.419 103.69,205.484 C100.517,211.075 99.516,222.843 100.77,228.787 C101.27,231.165 102.147,232.229 103.19,232.02 C104.442,231.768 105.693,231.516 106.907,231.069 C108.741,240.82 111.078,252.948 113.374,267.978 C105.321,272.069 104.569,274.699 105.363,278.463 C105.822,280.642 109.662,281.319 115.298,281.222 C120.599,314.647 122.019,335.838 124.524,347.729 C126.319,356.247 128.321,359.565 133.328,358.561 C145.67,356.085 185.761,347.945 210.93,341.167 C198.276,352.638 189.69,372.639 193.067,395.828 C197.943,429.347 223.354,437.672 243.064,434.978 C263,432.253 272.875,418.706 276.157,409.526 C281.864,415.849 289.531,419.746 299.277,418.003 C307.007,416.62 314.32,412.002 318.91,404.949 C323.762,409.924 330.984,412.334 339.907,410.735 C347.955,409.295 353.049,404.858 356.167,399.871 C357.197,401.441 358.555,402.175 360.438,401.811 C378.82,398.27 380.703,389.507 379.65,384.441 C373.413,354.401 375.499,329.789 383.601,328.226 C387.95,327.387 390.191,331.252 391.517,337.632 C394.869,353.779 392.613,369.64 395.771,384.846 C397.056,391.042 398.983,394.381 402.143,393.772 C420.726,390.189 422.605,381.429 421.552,376.36 C415.315,346.322 414.832,322.203 422.933,320.642 C426.294,319.994 428.181,323.144 429.193,328.028 C430.948,336.476 430.479,350.039 432.466,359.611 C435.976,376.508 447.015,385.118 462.827,382.071 C468.507,380.976 472.686,378.414 475.729,375.249 C477.041,382.142 478.467,388.888 479.966,394.859 C475.095,394.244 470.189,393.878 465.362,393.573 C458.885,393.163 452.39,393.027 445.9,393.095 C440.05,393.158 434.315,393.329 428.582,394.51 C405.728,399.224 383.034,404.738 360.37,410.284 C337.974,415.761 315.539,421.157 293.225,426.961 C283.723,429.431 274.503,432.622 265.271,435.931 C258.007,438.535 250.685,440.409 243.01,441.31 C237.129,441.999 231.198,442.246 225.283,442.387 C218.501,442.549 212.183,441.524 205.759,439.338 C199.314,437.146 193.196,434.047 187.23,430.8 C184.804,429.48 182.356,427.644 179.722,426.793 C177.531,426.084 175.133,426.967 173.203,427.98 C169.131,430.11 165.788,433.914 163.231,437.658 C160.872,441.113 160.443,445.153 161.251,449.189 C162.314,454.505 166.143,459.06 169.992,462.652 C173.949,466.345 178.546,469.12 183.622,470.962 C194.082,474.753 205.9,475.518 216.932,474.941 C230.664,474.221 244.04,469.967 257.001,465.667 C263.901,463.379 270.764,460.985 277.707,458.837 C284.776,456.649 291.976,454.904 299.124,452.996 C313.191,449.242 327.212,445.313 341.214,441.319 C354.989,437.394 368.747,433.407 382.523,429.487 C396.807,425.425 411.116,420.818 425.753,418.215 C439.932,415.693 454.399,415.232 468.759,415.967 C476.134,416.346 483.49,417.087 490.816,418.011 C494.428,418.466 498.031,418.986 501.631,419.534 C504.274,419.937 506.801,420.359 509.128,418.76 C512.107,416.708 512.166,411.846 511.239,408.511 C511.262,408.25 511.254,407.983 511.209,407.71" fill="#FFFFFF"/>
    <path d="M517.356,372.211 C516.906,369.505 517.555,368.45 517.32,367.034 C517.156,366.05 516.357,365.803 515.496,365.944 C512.972,366.365 508.178,374.049 508.984,378.908 C509.371,381.246 510.53,381.749 512.191,381.475 C514.283,381.128 518.744,379.062 518.081,375.062 C517.887,373.892 517.479,372.95 517.356,372.211" fill="#FFFFFF"/>
    <path d="M541.515,401.269 C539.74,390.563 537.21,365.381 536.965,363.904 C536.69,362.243 534.844,361.789 534.169,361.903 C532.877,362.116 531.593,364.289 527.582,367.924 C522.78,372.134 518.626,373.012 518.881,374.551 C519.096,375.843 521.758,378.941 523.972,378.573 C525.573,378.309 527.388,376.301 529.031,374.007 C529.775,379.635 531.748,396.502 532.348,402.029 C531.292,402.141 530.307,402.303 529.569,402.426 C528.338,402.63 527.551,402.824 527.251,402.936 C526.267,403.48 524.53,407.117 524.766,408.533 C524.948,409.639 525.801,409.815 526.6,409.682 C527.584,409.519 532.528,407.689 537.645,406.524 C544.289,405.042 551.2,404.024 550.895,402.177 C550.741,401.255 546.353,401.097 541.515,401.269" fill="#FFFFFF"/>
    <path d="M577.243,379.987 C577.151,379.432 577.03,379.074 576.751,378.931 C576.527,378.714 576.331,378.682 576.024,378.734 C574.731,378.947 572.874,381.469 568.024,382.335 C567.731,377.516 567.867,374.144 567.724,373.282 C567.541,372.175 566.833,371.724 565.973,371.865 C564.804,372.06 562.996,377.165 561.585,383.15 C559.729,383.394 559.105,383.436 556.273,383.902 C555.843,383.975 554.744,384.222 554.744,384.222 C558.832,376.463 562.78,364.43 561.955,359.446 C561.701,357.91 560.841,356.534 559.363,356.779 C557.826,357.034 553.086,360.096 552.162,362.146 C550.929,364.625 552.497,376.375 548.243,386.563 C544.94,388.753 544.826,390.351 544.958,391.152 C545.142,392.26 546.135,392.917 547.982,392.611 C549.029,392.438 550.258,391.474 551.49,390.133 C553.653,390.217 556.698,390.66 560.194,390.777 C559.833,394.314 559.695,397.685 560.082,400.024 C560.47,402.362 561.413,403.849 563.012,403.585 C565.964,403.095 570.479,399.059 570.164,397.152 C569.807,394.998 569.366,393.491 569.091,391.83 L568.867,390.478 C569.432,390.446 569.924,390.366 570.539,390.263 C575.338,389.468 577.703,382.756 577.243,379.987" fill="#FFFFFF"/>
  </g>
  <defs/>
</svg>
