<?xml version="1.0" encoding="UTF-8"?>
<!DOCTYPE svg PUBLIC "-//W3C//DTD SVG 1.1//EN" "http://www.w3.org/Graphics/SVG/1.1/DTD/svg11.dtd">
<svg version="1.1" xmlns="http://www.w3.org/2000/svg" xmlns:xlink="http://www.w3.org/1999/xlink" x="0px" y="0px" width="700" height="620" viewBox="0, 0, 700, 620">
  <g id="Layer 1">
    <path d="M285.81,244.196 L179.785,325.614 L402.662,348.87 z" fill="#AA78B6"/>
    <path d="M402.662,348.87 L179.786,325.614 L317.78,416.728 z" fill="#B457A7"/>
    <path d="M377.16,244.487 L285.772,244.162 L402.662,348.867 z" fill="#C047A1"/>
    <path d="M225.634,291.065 L237.011,206.498 L285.772,244.162 z" fill="#8358A9"/>
    <path d="M179.785,325.614 L200.389,268.984 L225.636,291.066 z" fill="#A09CCC"/>
    <path d="M317.7,416.654 L505.03,267.614 L429.691,363.308 z" fill="#EA83B6"/>
    <path d="M504.781,267.887 L377.118,244.451 L402.661,348.87 z" fill="#CC57A6"/>
    <path d="M285.772,244.161 L361.021,164.786 L377.062,244.512 z" fill="#C370B0"/>
    <path d="M179.785,325.614 L77.946,310.207 L200.398,268.992 z" fill="#8166AF"/>
    <path d="M227.057,409.762 L179.784,325.613 L317.78,416.728 z" fill="#8D65AE"/>
    <path d="M200.393,268.983 L225.633,291.065 L237.324,206.157 z" fill="#A55FAA"/>
    <path d="M179.785,325.614 L155.429,377.853 L227.011,409.719 z" fill="#5D4CA1"/>
    <path d="M507.858,429.799 L429.69,362.965 L504.781,267.887 z" fill="#CC57A6"/>
    <path d="M226.416,553.828 L227.011,409.72 L318.071,416.412 z" fill="#AA78B6"/>
    <path d="M504.781,267.887 L504.513,223.398 L377.118,244.451 z" fill="#D556A5"/>
    <path d="M376.948,244.635 L361.023,164.788 L504.513,223.4 z" fill="#AA78B6"/>
    <path d="M305.659,190.343 L285.772,244.162 L361.023,164.787 z" fill="#A55FAA"/>
    <path d="M285.772,244.161 L235.644,205.402 L152.887,145.551 L305.659,190.341 z" fill="#AA78B6"/>
    <path d="M200.393,268.983 L152.886,145.55 L237.074,206.429 z" fill="#7359AA"/>
    <path d="M77.948,310.204 L200.393,268.981 L99.219,220.195 z" fill="#957CBA"/>
    <path d="M77.741,310.015 L155.917,378.082 L179.785,325.614 z" fill="#AA78B6"/>
    <path d="M429.861,363.123 L317.7,416.653 L446.519,502.342 z" fill="#B457A7"/>
  </g>
  <defs/>
</svg>
