<?xml version="1.0" encoding="UTF-8"?>
<!DOCTYPE svg PUBLIC "-//W3C//DTD SVG 1.1//EN" "http://www.w3.org/Graphics/SVG/1.1/DTD/svg11.dtd">
<svg version="1.1" xmlns="http://www.w3.org/2000/svg" xmlns:xlink="http://www.w3.org/1999/xlink" x="0px" y="0px" width="700" height="620" viewBox="0, 0, 700, 620">
  <g id="Layer 1">
    <path d="M543.462,491.113 L546.709,619.998 L661.574,534.743 z" fill="#C374B1"/>
    <path d="M546.794,620 L470.663,501.581 L544.046,491.855 z" fill="#D572B0"/>
    <path d="M649.763,131.282 L458.716,298.466 L475.569,180.281 z" fill="#E063A9"/>
    <path d="M649.92,131.282 L359.837,157.96 L375.94,210.02 z" fill="#CA68AC"/>
    <path d="M206.063,396.667 L133.201,402.5 L16.14,415.65 L181.013,335.494 z" fill="#AA78B6"/>
    <path d="M152.792,483.869 L16.138,415.65 L135.218,402.267 z" fill="#7359AA"/>
    <path d="M28.69,520.536 L16.353,415.65 L10.124,478.146 z" fill="#644CA5"/>
    <path d="M152.792,483.869 L28.69,520.685 L16.138,415.65 z" fill="#8256A8"/>
    <path d="M649.763,131.282 L539.706,382.658 L458.716,298.067 z" fill="#C24DA3"/>
    <path d="M421.386,386.322 L367.72,518.678 L544.107,491.854 z" fill="#B457A7"/>
    <path d="M650.945,341.905 L622.062,420.282 L700.123,380.542" fill="#C980B8"/>
    <path d="M601.807,187.493 L524.481,180.968 L552.853,122.88 z" fill="#B25AA8"/>
    <path d="M179.418,547.99 L199.433,611.278 L285.17,582.98 z" fill="#5D4CA1"/>
    <path d="M538.845,379.95 L575.005,463.463 L544.038,492.145 z" fill="#C27DB6"/>
    <path d="M632.37,170.484 L650.946,341.904 L566.119,321.606 z" fill="#D556A5"/>
    <path d="M544.108,491.853 L661.574,534.787 L622.169,419.817 z" fill="#B77AB6"/>
    <path d="M574.891,463.473 L622.599,419.813 L539.473,382.658 z" fill="#EA83B6"/>
    <path d="M650.945,341.905 L622.512,419.811 L539.473,382.659 z" fill="#D770AF"/>
    <path d="M539.472,382.659 L478.546,435.895 L544.107,491.853 z" fill="#C574B1"/>
    <path d="M566.334,321.28 L650.946,341.905 L539.472,382.665 z" fill="#C24DA3"/>
    <path d="M27.756,312.323 L110.931,148.808 L0.978,231.9 z" fill="#957CBA"/>
    <path d="M131.353,212.889 L27.755,312.321 L68.107,232.868 z" fill="#7359AA"/>
    <path d="M16.139,415.65 L181.014,335.494 L27.81,312.323 z" fill="#8358A9"/>
    <path d="M50.513,241.821 L100.631,224.156 L96.389,170.896 z" fill="#8166AF"/>
    <path d="M92.556,152.302 L99.307,220.1 L140.598,99.893 z" fill="#AA78B6"/>
    <path d="M128.979,424.942 L76.116,377.235 L16.476,427.592 z" fill="#AA78B6"/>
    <path d="M446.52,502.343 L486.359,578.201 L538.878,501.7 z" fill="#B77AB6"/>
    <path d="M482.925,502.105 L539.156,501.95 L507.704,429.651 z" fill="#EA83B6"/>
    <path d="M585.468,262.496 L659.745,191.511 L524.48,180.965 z" fill="#D15CA8"/>
    <path d="M552.852,122.881 L503.092,77.601 L504.513,223.399 z" fill="#7359AA"/>
    <path d="M159.392,493.084 L17.92,427.124 L128.976,424.946 z" fill="#A55FAA"/>
    <path d="M387.134,395.254 L179.417,547.99 L367.842,518.68 z" fill="#B457A7"/>
    <path d="M206.121,396.667 L179.419,547.99 L387.134,395.254 z" fill="#AA78B6"/>
    <path d="M27.81,312.323 L181.014,335.494 L131.354,212.889 z" fill="#5A4CA4"/>
    <path d="M179.418,547.99 L152.791,483.871 L191.484,483.113 z" fill="#A09CCC"/>
    <path d="M285.241,582.981 L179.418,547.991 L367.843,518.68 z" fill="#8D65AE"/>
    <path d="M221.076,86.131 L305.659,190.342 L279.365,90.476 z" fill="#5A4CA4"/>
    <path d="M129.013,425.393 L7.786,316.991 L156.127,377.853 z" fill="#8965AE"/>
    <path d="M508.894,427.547 L483,502.167 L446.303,502.487 z" fill="#C27DB6"/>
    <path d="M446.539,501.49 L372.895,585.998 L479.007,563.443 z" fill="#C374B1"/>
    <path d="M111.913,182.685 L166.134,135.291 L155.561,47.79 z" fill="#8166AF"/>
    <path d="M594.909,330.245 L603.099,468.547 L547.022,382.488 z" fill="#D556A5"/>
    <path d="M548.32,381.071 L603.099,468.547 L507.699,429.655 z" fill="#C24DA3"/>
    <path d="M634.72,331.419 L505.409,328.584 L585.649,262.663 z" fill="#E063A9"/>
    <path d="M586.821,263.769 L524.584,180.853 L504.317,223.611 z" fill="#CA68AC"/>
    <path d="M404.919,109.974 L504.513,223.4 L503.093,77.601 z" fill="#5A4CA4"/>
    <path d="M99.306,220.101 L153.026,145.676 L112.312,182.103 z" fill="#644CA5"/>
    <path d="M159.378,493.073 L128.977,424.947 L227.01,409.719 z" fill="#7558AA"/>
    <path d="M371.517,0.974 L360.987,164.828 L279.364,90.477 L369.328,0.974 z" fill="#5A4CA4"/>
    <path d="M372.36,0.974 L404.919,109.974 L360.986,164.828 L371.516,0.974 z" fill="#AA78B6"/>
    <path d="M166.134,135.29 L221.076,86.131 L155.561,47.79 z" fill="#AA78B6"/>
    <path d="M285.81,244.196 L179.785,325.614 L402.662,348.87 z" fill="#AA78B6"/>
    <path d="M402.662,348.87 L179.786,325.614 L317.78,416.728 z" fill="#B457A7"/>
    <path d="M377.16,244.487 L285.772,244.162 L402.662,348.867 z" fill="#C047A1"/>
    <path d="M225.634,291.065 L237.011,206.498 L285.772,244.162 z" fill="#8358A9"/>
    <path d="M179.785,325.614 L200.389,268.984 L225.636,291.066 z" fill="#A09CCC"/>
    <path d="M317.7,416.654 L505.03,267.614 L429.691,363.308 z" fill="#EA83B6"/>
    <path d="M504.781,267.887 L377.118,244.451 L402.661,348.87 z" fill="#CC57A6"/>
    <path d="M285.772,244.161 L361.021,164.786 L377.062,244.512 z" fill="#C370B0"/>
    <path d="M179.785,325.614 L77.946,310.207 L200.398,268.992 z" fill="#8166AF"/>
    <path d="M227.057,409.762 L179.784,325.613 L317.78,416.728 z" fill="#8D65AE"/>
    <path d="M200.393,268.983 L225.633,291.065 L237.324,206.157 z" fill="#A55FAA"/>
    <path d="M179.785,325.614 L155.429,377.853 L227.011,409.719 z" fill="#5D4CA1"/>
    <path d="M507.858,429.799 L429.69,362.965 L504.781,267.887 z" fill="#CC57A6"/>
    <path d="M226.416,553.828 L227.011,409.72 L318.071,416.412 z" fill="#AA78B6"/>
    <path d="M504.781,267.887 L504.513,223.398 L377.118,244.451 z" fill="#D556A5"/>
    <path d="M376.948,244.635 L361.023,164.788 L504.513,223.4 z" fill="#AA78B6"/>
    <path d="M305.659,190.343 L285.772,244.162 L361.023,164.787 z" fill="#A55FAA"/>
    <path d="M285.772,244.161 L235.644,205.402 L152.887,145.551 L305.659,190.341 z" fill="#AA78B6"/>
    <path d="M200.393,268.983 L152.886,145.55 L237.074,206.429 z" fill="#7359AA"/>
    <path d="M77.948,310.204 L200.393,268.981 L99.219,220.195 z" fill="#957CBA"/>
    <path d="M77.741,310.015 L155.917,378.082 L179.785,325.614 z" fill="#AA78B6"/>
    <path d="M429.861,363.123 L317.7,416.653 L446.519,502.342 z" fill="#B457A7"/>
    <path d="M504.514,223.398 L361.024,164.788 L404.918,109.974 z" fill="#848BC4"/>
    <path d="M152.889,145.551 L305.66,190.342 L221.075,86.131 z" fill="#8358A9"/>
    <path d="M246.929,521.965 L318.07,416.41 L379.628,545.647 z" fill="#A55FAA"/>
    <path d="M317.701,416.814 L380.483,548.037 L394.042,465.396 z" fill="#C64CA3"/>
    <path d="M32.417,248.753 L77.95,310.204 L99.19,220.168 z" fill="#644CA5"/>
    <path d="M586.822,263.769 L505.199,329.951 L504.438,223.481 z" fill="#EA83B6"/>
    <path d="M372.95,586.046 L393.729,465.737 L446.48,502.307 z" fill="#D572B0"/>
    <path d="M507.705,429.651 L437.375,428.237 L446.521,502.342 z" fill="#C574B1"/>
    <path d="M507.705,429.651 L429.863,363.123 L437.05,428.172 z" fill="#D25BA7"/>
    <path d="M227.227,408.572 L159.372,493.064 L226.419,553.828 z" fill="#8D65AE"/>
    <path d="M200.394,268.983 L99.22,220.195 L152.887,145.55 z" fill="#8256A8"/>
    <path d="M128.98,424.942 L156.13,377.85 L227.011,409.719 z" fill="#8965AE"/>
    <path d="M7.786,316.991 L156.129,377.852 L78.202,309.925 z" fill="#AA78B6"/>
    <path d="M594.91,330.245 L507.854,429.786 L505.643,328.327 z" fill="#C24DA3"/>
    <path d="M279.364,90.477 L361.024,164.788 L305.66,190.343 z" fill="#AA78B6"/>
  </g>
  <defs/>
</svg>
