<?xml version="1.0" encoding="UTF-8"?>
<!DOCTYPE svg PUBLIC "-//W3C//DTD SVG 1.1//EN" "http://www.w3.org/Graphics/SVG/1.1/DTD/svg11.dtd">
<svg version="1.1" xmlns="http://www.w3.org/2000/svg" xmlns:xlink="http://www.w3.org/1999/xlink" x="0px" y="0px" width="498.334" height="323.814" viewBox="0, 0, 498.334, 323.814">
  <g id="Background">
    <rect x="0" y="0" width="498.334" height="323.814" fill="#000000" fill-opacity="0"/>
  </g>
  <g id="Layer 1">
    <path d="M415.518,136.67 C421.236,135.799 425.684,141.282 428.244,156.995 C431.118,174.647 429.008,188.684 418.799,190.238 C415.941,190.674 412.25,189.846 409.375,188.893 C404.586,158.213 405.104,138.256 415.518,136.67 M403.455,117.834 C402.696,113.179 399.865,111.225 395.17,111.941 C394.649,112.021 394.074,112.158 393.462,112.342 C405.58,97.669 410.148,74.475 411.416,55.164 C420.271,52.925 429.74,49.212 429.74,49.212 C425.264,55.594 414.36,77.567 417.097,95.837 C417.906,101.219 420.398,105.886 424.38,109.325 C423.93,109.365 423.477,109.416 423.016,109.486 C411.379,111.259 405.296,125.308 402.243,136.109 C403.038,129.428 404.117,121.907 403.455,117.834 M377.215,206.93 C372.553,207.828 369.08,204.295 366.481,191.779 C363.722,178.496 364.448,165.74 361.928,153.612 C359.571,142.253 354.449,133.829 341.881,136.252 C331.745,138.207 323.489,150.212 319.729,160.547 C316.439,149.768 311.473,142.115 301.34,144.07 C290.193,146.218 280.67,161.27 278.084,172.18 C277.743,164.437 279.543,157.883 278.706,153.84 C277.743,149.22 275.037,147.339 270.373,148.237 C264.091,149.449 250.774,158.424 250.626,167.863 C250.332,172.527 250.645,176.068 256.998,207.684 C258.075,213.354 258.727,219.1 259.297,224.42 C256.574,227.733 257.116,235.375 251.466,236.385 C247.197,237.149 243.569,231.406 239.75,211.522 C235.928,191.639 237.986,176.094 236.761,169.721 C235.722,164.315 231.008,162.762 227.957,163.308 C223.691,164.071 218.225,168.445 214.698,173.066 C212.164,169.729 207.43,166.979 197.674,168.725 C182.231,171.488 161.455,189.184 169.137,229.149 C170.289,235.145 172.51,241.816 175.852,247.744 C172.235,252.457 167.167,261.744 153.758,263.578 C140.239,265.426 122.918,259.186 118.86,231.297 C115.62,209.035 123.155,189.539 132.941,188.201 C138.862,187.395 143.336,193.764 144.049,198.662 C145.063,205.633 143.006,205.039 143.737,210.055 C144.36,214.338 148.304,216.168 150.877,215.816 C163.237,214.125 166.391,204.215 165.643,199.074 C163.252,182.654 151.432,174.358 138.16,174.904 C139.747,172.563 141.36,169.525 142.575,166.412 C147.398,169.662 153.219,171.274 160.102,170.178 C168.056,168.912 175.653,164.321 180.512,157.18 C185.376,162.375 192.734,164.986 201.911,163.525 C213.397,161.697 219.192,153.847 221.802,146.72 C228.664,149.742 237.287,151.207 246.619,149.93 C267.698,147.044 280.954,136.305 278.374,118.608 C273.84,87.499 228.114,87.411 219.831,77.837 L222.288,77.503 C240.909,74.95 263.576,70.063 279.608,65.488 C280.284,84.434 281.801,103.462 282.823,110.463 C285.373,127.962 295.508,141.649 315.768,138.874 C328.938,137.071 336,126.99 338.86,119.274 C347.27,125.476 357.837,127.993 368.852,126.442 C371.912,126.012 374.76,125.257 377.413,124.227 C376.038,126.279 375.077,128.48 374.797,130.749 C373.471,141.018 378.807,176.955 382.564,200.268 C381.662,203.285 380.592,206.277 377.215,206.93 M207.807,244.395 C204.557,244.977 197.677,242.014 193.076,218.074 C190.775,206.106 191.206,188.652 200.148,187.055 C203.399,186.471 204.471,187.678 204.879,189.801 C205.436,192.697 204.387,197.078 204.907,199.779 C205.538,203.065 207.535,204.703 211.396,204.012 C212.456,212.809 213.629,222.186 214.965,229.135 C215.187,230.293 215.411,231.451 216.04,232.537 C215.34,237.656 213.699,243.34 207.807,244.395 M156.782,92.897 C160.044,92.378 161.093,93.603 161.456,95.734 C161.952,98.642 160.809,103.002 161.271,105.714 C161.831,109.007 163.792,110.687 167.668,110.069 C168.541,118.886 169.514,128.283 170.702,135.257 C170.901,136.422 171.099,137.584 171.705,138.68 C170.897,143.784 169.136,149.439 163.223,150.379 C159.959,150.898 153.149,147.804 149.054,123.777 C147.008,111.764 147.809,94.326 156.782,92.897 M353.975,50.947 C358.68,50.286 361.512,55.245 362.213,59.907 C363.67,69.625 356.45,77.191 348.122,82.927 C347.743,81.789 347.565,80.622 347.364,79.262 C345.235,65.078 347.226,51.899 353.975,50.947 M422.44,253.693 C421.303,246.711 417.841,240.877 411.87,204.217 C416.271,205.533 420.984,206.207 425.881,205.461 C449.976,201.789 457.347,171.246 453.274,146.225 C451.308,134.157 447.009,122.302 440.088,115.386 C443.085,115.63 446.342,115.532 449.847,115.039 C471.325,112.014 476.473,92.041 475.683,86.793 C475.219,83.686 472.914,80.835 469.845,81.266 C463.913,82.102 466.422,93.256 457.012,94.583 C452.512,95.216 444.39,93.978 442.203,79.403 C438.619,55.501 453.79,39.671 452.678,32.288 C451.37,23.542 445.149,15.49 440.237,16.18 C434.102,17.045 428.137,31.575 411.772,38.049 C411.747,32.295 411.25,27.605 410.842,24.883 C409.56,16.334 406.932,11.345 399.976,12.325 C391.796,13.478 379.87,28.648 381.794,41.474 C383.018,49.639 388.451,56.61 398.531,56.978 C397.092,80.795 389.545,105.67 373.795,107.887 C366.434,108.922 358.457,107.269 352.266,95.24 C366.527,88.67 384.415,72.857 381.441,53.034 C379.575,40.598 370.052,30.031 354.1,32.278 C332.01,35.387 317.334,60.075 321.561,88.254 C322.868,96.961 325.82,104.286 329.953,110.141 C328.414,113.647 326.891,117.914 321.176,118.698 C316.059,119.398 311.266,113.707 308.349,93.68 C307.158,85.514 306.379,70.15 306.01,54.732 C314.204,52.221 319.502,49.909 322.294,46.156 C323.883,44.153 326.086,34.927 325.375,30.066 C325.092,28.121 323.936,25.901 321.685,26.209 C317.385,26.796 311.198,31.612 305.901,33.922 C305.667,20.864 305.597,10.364 305.229,7.837 C304.435,2.392 300.004,0.618 296.729,1.066 C290.588,1.907 281.35,10.114 279.01,16.979 C278.121,19.48 278.332,30.955 278.911,44.956 C233.014,63.735 199.223,53.884 202.936,79.357 C205.543,97.245 251.486,107.417 253.981,124.527 C254.718,129.584 251.895,133.142 246.166,133.927 C235.728,135.356 229.998,123.25 228.166,114.973 C226.963,109.584 225.253,106.447 221.365,106.979 C215.839,107.735 204.715,118.779 206.389,130.251 C206.765,132.833 207.948,135.393 209.785,137.78 C209.581,139.287 208.952,140.297 207.405,140.543 C203.122,141.225 199.252,138.078 195.852,118.122 C192.454,98.166 194.838,82.66 193.748,76.266 C192.826,70.841 188.147,69.197 185.088,69.684 C180.805,70.366 175.248,74.634 171.624,79.191 C169.163,75.802 164.489,72.963 154.7,74.522 C139.2,76.988 118.056,94.283 124.888,134.389 C125.846,140.013 127.725,146.243 130.589,151.924 C124.222,153.883 115.884,157.747 86.882,166.184 L62.358,173.647 C60.264,162.63 55.809,139.382 53.668,120.751 L53.157,118.311 C60.001,116.936 66.549,115.199 72.286,113.838 C104.255,105.733 115.512,101.995 118.721,98.172 C122.272,93.861 127.323,81.836 125.995,75.536 C125.01,70.866 120.645,70.254 116.794,71.028 C108.084,72.778 100.368,77.42 69.074,89.068 L50.243,96.02 C47.501,74.544 46.004,58.965 44.42,48.265 C53.407,43.287 64.321,37.923 79.043,31.581 C103.609,21.15 132.284,15.399 130.743,8.084 C129.587,2.598 122.483,1.693 109.643,4.268 C81.609,9.888 57.899,16.974 40.223,24.116 C37.53,20.848 33.035,19.629 30.037,20.232 C21.478,21.944 7.783,33.164 5.258,41.296 C4.662,42.685 4.531,44.194 4.532,46.311 C1.278,52.045 0.252,64.113 1.538,70.208 C2.051,72.647 2.95,73.738 4.02,73.524 C5.303,73.265 6.586,73.007 7.831,72.548 C9.712,82.548 12.109,94.985 14.463,110.398 C6.205,114.594 5.434,117.291 6.248,121.151 C6.719,123.385 10.657,124.079 16.436,123.98 C21.872,158.257 23.329,179.988 25.897,192.182 C27.738,200.918 29.791,204.32 34.926,203.291 C47.582,200.752 88.696,192.404 114.506,185.453 C101.53,197.217 92.725,217.727 96.188,241.508 C101.188,275.881 127.247,284.418 147.459,281.656 C167.904,278.861 178.03,264.969 181.396,255.555 C187.248,262.039 195.111,266.035 205.105,264.248 C213.032,262.83 220.532,258.094 225.239,250.861 C230.215,255.963 237.621,258.434 246.771,256.795 C255.024,255.318 260.248,250.768 263.446,245.654 C264.502,247.264 265.894,248.016 267.825,247.643 C286.676,244.012 288.607,235.025 287.527,229.83 C281.131,199.025 283.27,173.785 291.579,172.182 C296.039,171.322 298.337,175.285 299.697,181.828 C303.134,198.387 300.821,214.652 304.059,230.246 C305.377,236.6 307.353,240.024 310.594,239.399 C329.65,235.725 331.577,226.742 330.498,221.543 C324.102,190.74 323.606,166.006 331.914,164.405 C335.36,163.74 337.295,166.971 338.333,171.979 C340.133,180.643 339.652,194.551 341.69,204.367 C345.289,221.695 356.61,230.525 372.825,227.4 C378.65,226.277 382.935,223.65 386.056,220.404 C387.401,227.473 388.863,234.391 390.401,240.514 C385.405,239.883 380.374,239.508 375.424,239.195 C368.782,238.775 362.122,238.635 355.466,238.705 C349.467,238.77 343.586,238.945 337.707,240.156 C314.27,244.99 290.998,250.645 267.756,256.332 C244.789,261.949 221.782,267.482 198.899,273.434 C189.155,275.967 179.7,279.24 170.232,282.633 C162.783,285.303 155.275,287.225 147.404,288.149 C141.373,288.856 135.291,289.109 129.225,289.254 C122.27,289.42 115.791,288.369 109.203,286.127 C102.594,283.879 96.32,280.701 90.202,277.371 C87.714,276.018 85.204,274.135 82.503,273.262 C80.256,272.535 77.797,273.44 75.817,274.479 C71.642,276.664 68.213,280.565 65.591,284.404 C63.172,287.947 62.732,292.09 63.561,296.229 C64.651,301.68 68.577,306.352 72.524,310.035 C76.582,313.822 81.297,316.668 86.502,318.557 C97.229,322.445 109.348,323.229 120.661,322.637 C134.743,321.899 148.46,317.537 161.752,313.127 C168.827,310.781 175.865,308.326 182.985,306.123 C190.235,303.879 197.618,302.09 204.948,300.133 C219.374,296.283 233.752,292.254 248.111,288.158 C262.238,284.133 276.346,280.045 290.474,276.025 C305.122,271.859 319.795,267.135 334.806,264.465 C349.346,261.879 364.182,261.406 378.908,262.16 C386.471,262.549 394.014,263.309 401.527,264.256 C405.231,264.723 408.926,265.256 412.618,265.818 C415.328,266.231 417.92,266.664 420.306,265.024 C423.361,262.92 423.421,257.934 422.471,254.514 C422.494,254.246 422.486,253.973 422.44,253.693" fill="#FFFFFF"/>
    <path d="M429.38,215.506 C428.87,212.438 429.605,211.242 429.339,209.637 C429.153,208.522 428.247,208.242 427.271,208.402 C424.41,208.879 418.975,217.59 419.889,223.098 C420.328,225.748 421.641,226.319 423.524,226.008 C425.896,225.615 430.953,223.272 430.201,218.738 C429.982,217.412 429.519,216.344 429.38,215.506" fill="#FFFFFF"/>
    <path d="M456.767,248.447 C454.755,236.31 451.887,207.763 451.609,206.088 C451.298,204.206 449.205,203.691 448.44,203.82 C446.975,204.062 445.519,206.525 440.972,210.646 C435.529,215.418 430.82,216.414 431.109,218.158 C431.352,219.624 434.37,223.135 436.88,222.719 C438.695,222.418 440.752,220.142 442.615,217.542 C443.458,223.922 445.695,243.043 446.375,249.309 C445.178,249.435 444.062,249.62 443.225,249.758 C441.83,249.99 440.937,250.21 440.597,250.336 C439.482,250.953 437.513,255.077 437.78,256.681 C437.987,257.935 438.953,258.135 439.859,257.984 C440.975,257.799 446.579,255.724 452.38,254.404 C459.912,252.724 467.746,251.57 467.401,249.476 C467.226,248.431 462.252,248.253 456.767,248.447" fill="#FFFFFF"/>
    <path d="M497.27,224.321 C497.166,223.692 497.028,223.286 496.712,223.124 C496.458,222.878 496.236,222.842 495.888,222.901 C494.422,223.143 492.317,226.001 486.819,226.983 C486.487,221.52 486.641,217.698 486.479,216.721 C486.271,215.466 485.469,214.954 484.494,215.114 C483.169,215.335 481.119,221.122 479.52,227.907 C477.416,228.184 476.708,228.231 473.498,228.76 C473.01,228.842 471.764,229.122 471.764,229.122 C476.399,220.327 480.874,206.686 479.939,201.036 C479.651,199.294 478.676,197.735 477.001,198.012 C475.258,198.301 469.885,201.772 468.837,204.096 C467.44,206.907 469.217,220.227 464.395,231.776 C460.65,234.259 460.521,236.071 460.671,236.979 C460.879,238.235 462.005,238.979 464.099,238.632 C465.285,238.436 466.679,237.344 468.076,235.823 C470.528,235.919 473.979,236.421 477.943,236.553 C477.533,240.563 477.377,244.385 477.816,247.036 C478.256,249.686 479.324,251.372 481.137,251.073 C484.484,250.518 489.602,245.942 489.245,243.78 C488.84,241.339 488.34,239.63 488.029,237.747 L487.775,236.214 C488.415,236.178 488.973,236.087 489.67,235.971 C495.11,235.069 497.791,227.46 497.27,224.321" fill="#FFFFFF"/>
  </g>
  <defs/>
</svg>
