<?xml version="1.0" encoding="UTF-8"?>
<!DOCTYPE svg PUBLIC "-//W3C//DTD SVG 1.1//EN" "http://www.w3.org/Graphics/SVG/1.1/DTD/svg11.dtd">
<svg version="1.1" xmlns="http://www.w3.org/2000/svg" xmlns:xlink="http://www.w3.org/1999/xlink" x="0px" y="0px" width="1900" height="500" viewBox="0, 0, 1900, 500">
  <g id="Background">
    <rect x="0" y="0" width="1900" height="500" fill="#FFFFFF"/>
  </g>
  <g id="Layer 1">
    <path d="M1.355,0 L1900,0 L1900,1351.473 L1.355,1351.473 z" fill="#624299"/>
    <path d="M255.381,1154.223 L124.964,1149.076 L216.499,981.731 z" fill="#624299"/>
    <path d="M128.245,1145.928 L43.776,1040.31 L216.499,981.731 z" fill="#503894"/>
    <path d="M1.355,206.587 L1.355,300.899 L69.349,313.927 L82.772,197.272 z" fill="#624299"/>
    <path d="M341.04,499.724 L338.174,170.927 L449.064,475.183 z" fill="#744E9F"/>
    <path d="M559.42,439.069 L448.117,474.142 L497.89,624.375 z" fill="#4B3591"/>
    <path d="M1370.273,718.135 L1530.409,719.177 L1465.522,755.278 z" fill="#855DA6"/>
    <path d="M1900,1041.168 L1685.562,1262.669 L1900,1304.297 z" fill="#C75DA1"/>
    <path d="M1413.399,971.229 L1559.494,1237.878 L1694.058,1265.56 z" fill="#B63491"/>
    <path d="M1689.898,1265.56 L1774.291,929.082 L1616.464,810.252 z" fill="#B63491"/>
    <path d="M1900,571.615 L1815.609,571.248 L1884.971,766.16 L1900,745.542 z" fill="#7D5FA8"/>
    <path d="M165.826,0 L209.99,186.455 L239.355,0 z" fill="#483593"/>
    <path d="M377.231,0 L205.655,183.597 L338.174,170.929 L426.222,0 z" fill="#4A3693"/>
    <path d="M238.906,0 L209.99,181.75 L377.949,0 z" fill="#413292"/>
    <path d="M73.448,193.087 L338.17,170.927 L158.151,265.477 z" fill="#624299"/>
    <path d="M338.174,170.927 L187.22,336.881 L340.606,355.554 z" fill="#624299"/>
    <path d="M1591.321,435.941 L1664.338,340.548 L1387.794,339.258 z" fill="#8166AB"/>
    <path d="M1315.648,197.016 L1461.24,138.287 L1665.804,258.39 z" fill="#C93994"/>
    <path d="M1815.609,307.299 L1841.575,477.144 L1761.398,570.087 z" fill="#6E3F97"/>
    <path d="M1815.609,319.065 L1743.972,210.295 L1723.789,371.656 z" fill="#8166AB"/>
    <path d="M1742.629,0 L1659.183,0 L1643.241,69.182 L1778.769,63.885 z" fill="#734E9F"/>
    <path d="M1087.317,0 L1192.108,60.173 L1238.226,0 z" fill="#9862A7"/>
    <path d="M1900,1307.378 L1460.207,1351.472 L1900,1351.472 z" fill="#B558A1"/>
    <path d="M784.845,1212.81 L576.38,1283.929 L747.876,1351.472 L854.433,1351.472 z" fill="#6E61AA"/>
    <path d="M30.826,773.953 L1.355,773.567 L1.355,985.921 L69.607,995.027 z" fill="#855BA4"/>
    <path d="M623.389,0 L606.749,179.116 L658.319,0 z" fill="#704299"/>
    <path d="M341.662,499.057 L341.074,355.083 L184.547,334.995 z" fill="#9862A7"/>
    <path d="M166.419,440.644 L131.093,601.138 L61.193,355.79 z" fill="#B262A3"/>
    <path d="M432.782,1082.657 L216.499,982.475 L281.5,819.859 z" fill="#744E9F"/>
    <path d="M128.245,1145.928 L209.521,1338.099 L252.922,1152.43 z" fill="#7B4399"/>
    <path d="M854.945,1068.878 L708.076,1132.237 L657.637,1077.973 z" fill="#B365A7"/>
    <path d="M659.451,1076.967 L432.782,1082.661 L582.72,1283.929 z" fill="#B55CA2"/>
    <path d="M850.172,1070.409 L843.74,862.584 L1088.193,844.604 z" fill="#BD3E95"/>
    <path d="M680.839,142.63 L973.877,173.416 L942.053,23.38 z" fill="#6E4F9F"/>
    <path d="M1246.376,0 L1232.358,0 L1115.316,126.57 L1315.65,197.017 z" fill="#744E9E"/>
    <path d="M1091.134,0 L1057.961,0 L1115.669,126.4 L1192.11,43.69 z" fill="#704299"/>
    <path d="M1057.948,0 L1042.679,0 L973.879,173.321 L1115.668,126.4 z" fill="#9862A7"/>
    <path d="M535.555,0 L473.547,0 L443.841,266.23 L607.444,174.877 z" fill="#503894"/>
    <path d="M535.516,0 L607.471,174.979 L623.72,0 z" fill="#4A3693"/>
    <path d="M425.74,0 L338.174,170.929 L444.338,266.23 L473.527,0 z" fill="#624299"/>
    <path d="M166.35,0 L42.908,0 L209.99,181.75 z" fill="#624299"/>
    <path d="M760.719,0 L607.71,174.959 L1008.892,0 z" fill="#9862A7"/>
    <path d="M1008.995,0 L941.587,29.47 L973.877,173.417 L1042.799,0 z" fill="#6E3F97"/>
    <path d="M657.127,0 L607.722,175 L760.638,0 z" fill="#6E4F9F"/>
    <path d="M1246.376,0 L1315.65,197.017 L1463.032,0 z" fill="#B33492"/>
    <path d="M1740.286,0 L1771.474,57.377 L1816.298,0 z" fill="#8F73B2"/>
    <path d="M1223.324,1232.755 L921.857,1265.305 L957.552,1116.666 z" fill="#C93994"/>
    <path d="M1206.034,961.259 L995.915,930.023 L1154.153,783.422 z" fill="#E36AA7"/>
    <path d="M582.973,1283.929 L432.789,1082.661 L252.922,1152.429 z" fill="#C19ECA"/>
    <path d="M432.782,1082.657 L304.447,1023.023 L252.922,1152.429 z" fill="#9862A7"/>
    <path d="M658.148,1078.098 L582.643,1283.929 L784.839,1214.88 z" fill="#A763A7"/>
    <path d="M708.061,1132.035 L784.839,1215.636 L850.184,1069.974 z" fill="#E369A6"/>
    <path d="M921.857,1265.305 L784.845,1215.48 L850.184,1069.974 z" fill="#CC579F"/>
    <path d="M432.782,1082.806 L641.042,949.402 L658.148,1077.991 z" fill="#C95AA0"/>
    <path d="M610.732,769.237 L432.789,1082.806 L641.979,949.402 z" fill="#B63491"/>
    <path d="M281.504,820.378 L611.84,769.235 L432.789,1082.806 z" fill="#93489B"/>
    <path d="M216.883,981.731 L47.455,1042.519 L155.511,777.417 z" fill="#413292"/>
    <path d="M252.922,1152.429 L305.095,1023.023 L216.396,981.731 z" fill="#513995"/>
    <path d="M216.883,982.327 L281.504,820.378 L155.316,777.417 z" fill="#744E9F"/>
    <path d="M850.184,1069.974 L756.56,963.219 L658.148,1078.098 z" fill="#B75BA1"/>
    <path d="M850.184,1069.974 L843.74,863.058 L756.213,962.644 z" fill="#C44096"/>
    <path d="M1413.399,971.229 L1292.27,1263.421 L1450.042,1351.472 L1452.493,1351.472 z" fill="#B55CA2"/>
    <path d="M1413.399,971.229 L1245.037,755.21 L1370.553,718.135 z" fill="#A24096"/>
    <path d="M1292.242,1263.529 L1413.399,971.229 L1245.037,755.207 z" fill="#C34397"/>
    <path d="M1413.399,971.229 L1452.452,1351.472 L1453.977,1351.472 L1561.541,1237.898 z" fill="#C44096"/>
    <path d="M1413.399,971.229 L1370.273,718.169 L1616.463,810.257 z" fill="#A87BB5"/>
    <path d="M1689.898,1262.669 L1413.399,971.285 L1616.464,810.257 z" fill="#AF2E91"/>
    <path d="M1900,1024.006 L1771.653,929.082 L1689.896,1262.67 L1900,1041.233 z" fill="#C44096"/>
    <path d="M1771.654,929.082 L1616.464,810.252 L1884.971,763.968 z" fill="#C63291"/>
    <path d="M1884.971,763.968 L1616.463,810.252 L1463.236,752.974 z" fill="#BB90C1"/>
    <path d="M958.123,1117.043 L921.857,1265.305 L850.172,1069.974 z" fill="#B33492"/>
    <path d="M1292.27,1263.235 L998.248,928.468 L1206.096,958.001 z" fill="#D64A99"/>
    <path d="M1292.27,1263.505 L1245.35,755.207 L1153.795,783.423 z" fill="#BD4F9C"/>
    <path d="M1900,927.348 L1884.971,763.968 L1771.653,929.082 L1900,1024.634 z" fill="#CA539E"/>
    <path d="M281.504,820.378 L497.89,624.375 L611.84,769.237 z" fill="#9862A7"/>
    <path d="M155.316,777.417 L73.448,586.7 L281.504,820.378 z" fill="#976CAD"/>
    <path d="M281.257,637.449 L281.504,820.378 L73.448,586.7 z" fill="#9870B0"/>
    <path d="M499.897,623.126 L281.129,637.428 L281.504,820.378 z" fill="#7A4E9E"/>
    <path d="M610.969,769.021 L1088.943,844.604 L843.224,863.058 z" fill="#E36AA7"/>
    <path d="M828.032,803.04 L559.42,439.069 L610.969,769.237 z" fill="#A23F96"/>
    <path d="M1088.195,844.604 L949.464,622.303 L828.032,803.04 z" fill="#BD3E95"/>
    <path d="M949.464,622.412 L825.549,485.757 L828.032,803.037 z" fill="#AF2E91"/>
    <path d="M825.549,485.86 L559.42,439.072 L828.032,803.04 z" fill="#9862A7"/>
    <path d="M1088.195,844.604 L1154.377,783.422 L949.464,622.303 z" fill="#C93994"/>
    <path d="M1715.637,622.773 L1514.11,473.336 L1527.53,719.953 z" fill="#744E9F"/>
    <path d="M1515.999,475.183 L1761.399,570.09 L1715.638,622.773 z" fill="#9663A8"/>
    <path d="M1515.999,475.183 L1815.609,319.064 L1761.399,570.09 z" fill="#744E9E"/>
    <path d="M1653.37,253.248 L1650.754,177.233 L1461.056,138.287 z" fill="#D96CA7"/>
    <path d="M1591.321,435.941 L1387.794,339.258 L1515.999,475.183 z" fill="#6F4298"/>
    <path d="M1527.53,719.953 L1515.986,475.182 L1387.794,339.257 z" fill="#463593"/>
    <path d="M1370.553,718.135 L1370.553,582.106 L1154.38,783.423 z" fill="#5F4299"/>
    <path d="M1527.53,719.953 L1369.694,578.88 L1370.554,718.31 z" fill="#93489B"/>
    <path d="M1387.794,339.257 L1366.754,579.383 L1527.53,719.949 z" fill="#704299"/>
    <path d="M1261.444,319.065 L1387.794,339.257 L1315.648,197.017 z" fill="#744E9E"/>
    <path d="M1115.316,138.417" fill-opacity="0" stroke="#000000" stroke-width="1.516"/>
    <path d="M1115.316,126.4 L1261.444,321.781 L1317.85,197.017 z" fill="#704299"/>
    <path d="M1387.794,339.257 L1188.479,480.007 L1261.208,319.065 z" fill="#656DB2"/>
    <path d="M1369.696,582.981 L1188.477,480.007 L1387.794,339.256 z" fill="#413292"/>
    <path d="M1188.479,480.007 L1154.377,783.423 L1370.551,582.109 z" fill="#483592"/>
    <path d="M973.877,173.32 L1261.444,319.064 L1115.316,126.399 z" fill="#8166AB"/>
    <path d="M1188.479,480.007 L1113.613,244.028 L1261.444,319.064 z" fill="#6567AD"/>
    <path d="M1148.749,354.848 L973.879,173.319 L1113.614,244.026 z" fill="#5F4299"/>
    <path d="M1188.479,480.007 L1046.727,489.469 L1148.75,354.85 z" fill="#696FB3"/>
    <path d="M1154.377,783.422 L1046.727,489.47 L1188.479,480.004 z" fill="#7076B7"/>
    <path d="M948.958,622.303 L1046.727,489.471 L1154.38,783.423 z" fill="#9862A7"/>
    <path d="M825.549,485.757 L1046.727,489.469 L949.296,622.306 z" fill="#B558A1"/>
    <path d="M1148.749,354.848 L825.549,485.757 L1046.727,489.47 z" fill="#93489B"/>
    <path d="M973.877,173.416 L933.13,441.868 L1148.749,354.85 z" fill="#483592"/>
    <path d="M792.166,152.963 L933.13,441.867 L973.877,173.414 z" fill="#704299"/>
    <path d="M825.549,485.757 L815.29,358.087 L792.166,152.964 L933.13,441.868 z" fill="#9862A7"/>
    <path d="M673.516,460.21 L815.509,361.621 L825.549,485.757 z" fill="#704299"/>
    <path d="M559.42,439.069 L672.187,392.412 L673.52,460.21 z" fill="#8D89C1"/>
    <path d="M672.191,392.414 L792.166,152.962 L815.698,361.621 z" fill="#5F4299"/>
    <path d="M607.704,174.957 L792.166,153.341 L682.256,142.427 z" fill="#503894"/>
    <path d="M672.191,392.414 L607.444,174.956 L792.166,152.962 z" fill="#6E3F97"/>
    <path d="M443.841,266.229 L672.191,392.414 L607.444,174.956 z" fill="#8166AB"/>
    <path d="M559.42,439.069 L443.837,266.229 L672.187,392.435 z" fill="#6E4F9F"/>
    <path d="M497.89,624.501 L559.42,439.069 L610.969,769.237 z" fill="#7A4E9E"/>
    <path d="M281.129,637.449 L341.658,499.057 L497.89,624.375 z" fill="#634199"/>
    <path d="M341.662,499.057 L449.068,475.183 L497.89,624.375 z" fill="#744E9F"/>
    <path d="M443.841,265.665 L448.439,475.185 L559.42,439.069 z" fill="#9862A7"/>
    <path d="M338.174,170.927 L449.068,475.185 L444.602,266.229 z" fill="#9862A7"/>
    <path d="M281.129,637.489 L187.22,336.504 L341.658,499.057 z" fill="#93489B"/>
    <path d="M1.355,301.023 L1.355,308.003 L165.674,439.985 L187.224,334.991 z" fill="#7A4E9E"/>
    <path d="M65.865,313.926 L338.17,170.929 L187.224,336.878 z" fill="#93489B"/>
    <path d="M98.95,645.73 L1.355,715.103 L1.355,774.219 L155.316,777.417 z" fill="#B261A5"/>
    <path d="M252.922,1152.429 L206.396,1351.472 L209.548,1351.472 L470.78,1239.154 z" fill="#6666AC"/>
    <path d="M47.455,1042.519 L1.355,1108.491 L1.355,1174.009 L128.245,1145.925 z" fill="#413292"/>
    <path d="M67.924,992.677 L30.826,774.421 L155.766,777.419 z" fill="#634199"/>
    <path d="M1292.27,1263.235 L850.184,1070.385 L998.951,928.468 z" fill="#483592"/>
    <path d="M843.74,863.058 L610.973,769.021 L658.148,1078.098 z" fill="#A23F96"/>
    <path d="M131.093,600.853 L187.22,336.502 L281.129,637.489 z" fill="#B5509D"/>
    <path d="M672.191,392.414 L673.516,460.21 L816.449,361.621 z" fill="#93489B"/>
    <path d="M-30.122,704.564 L13.487,209.728 L-79.087,173.982 z" fill="#6667AB"/>
    <path d="M43.063,0 L1.355,0 L1.355,107.023 L50.357,7.9 z" fill="#513995"/>
    <path d="M50.353,7.711 L1.355,106.138 L1.355,208.106 L209.99,181.751 z" fill="#744E9F"/>
    <path d="M65.865,313.926 L78.593,196.803 L158.848,265.477 z" fill="#744E9F"/>
    <path d="M61.195,355.789 L1.355,408.994 L1.355,568.666 L131.093,601.138 z" fill="#CB64A5"/>
    <path d="M1.355,307.596 L1.355,409.157 L61.195,355.79 z" fill="#855BA4"/>
    <path d="M73.448,586.698 L1.355,664.122 L1.355,715.848 L99.512,645.73 z" fill="#C2288E"/>
    <path d="M1.355,568.465 L1.355,665.944 L73.448,586.693 z" fill="#AE3191"/>
    <path d="M1.355,984.029 L1.355,1022.945 L47.46,1042.519 L67.734,992.677 z" fill="#BCA5CF"/>
    <path d="M1.355,1021.768 L1.355,1108.486 L47.46,1042.519 z" fill="#744E9F"/>
    <path d="M1.355,1173.989 L1.355,1351.472 L94.157,1351.472 L128.245,1145.928 z" fill="#7686C2"/>
    <path d="M128.245,1145.928 L93.274,1351.472 L206.87,1351.472 L209.521,1338.099 z" fill="#754E9E"/>
    <path d="M470.78,1239.154 L209.345,1351.472 L753.718,1351.472 z" fill="#565DA8"/>
    <path d="M784.019,1214.694 L853.908,1351.472 L880.555,1351.472 L921.854,1265.303 z" fill="#BC68A9"/>
    <path d="M921.854,1265.303 L878.921,1351.472 L1128.226,1351.472 L1223.031,1232.567 z" fill="#D96CA7"/>
    <path d="M1223.032,1232.567 L1126.819,1351.472 L1157.131,1351.472 L1292.272,1263.231 z" fill="#BD68A8"/>
    <path d="M1292.27,1262.669 L1156.824,1351.472 L1450.192,1351.472 z" fill="#6D62AA"/>
    <path d="M1900,1303.22 L1561.541,1237.743 L1453.87,1351.472 L1470.192,1351.472 L1900,1308.768 z" fill="#B55CA2"/>
    <path d="M1900,742.975 L1884.971,763.968 L1900,938.964 z" fill="#D06AA8"/>
    <path d="M1900,416.166 L1815.609,571.248 L1900,576.136 z" fill="#6589C4"/>
    <path d="M1900,141.165 L1771.472,57.381 L1841.577,477.145 L1900,409.79 z" fill="#744E9E"/>
    <path d="M1900,0 L1816.473,0 L1771.472,57.38 L1900,142.704 z" fill="#373091"/>
    <path d="M1621.686,0 L1647.177,63.885 L1660.9,0 z" fill="#4B3794"/>
    <path d="M1646.806,63.883 L1815.609,319.064 L1771.476,57.378 z" fill="#6589C4"/>
    <path d="M1482.543,0 L1462.893,0 L1315.648,197.017 L1647.175,63.582 z" fill="#D64A99"/>
    <path d="M1621.612,0 L1482.27,0 L1647.177,63.582 z" fill="#B33492"/>
    <path d="M1461.054,138.288 L1655.389,178.911 L1647.177,63.581 z" fill="#BD4F9C"/>
    <path d="M1900,403.382 L1711.004,628.111 L1812.327,577.597 L1900,421.9 z" fill="#8B68AC"/>
    <path d="M1884.971,763.968 L1815.609,571.248 L1463.236,752.974 z" fill="#704299"/>
    <path d="M1653.37,253.248 L1657.945,342.694 L1383.374,339.256 z" fill="#6E4F9F"/>
    <path d="M1655.801,350.096 L1646.806,63.581 L1743.973,210.295 z" fill="#8166AB"/>
    <path d="M1728.46,364.431 L1743.972,210.296 L1591.32,435.941 z" fill="#9862A7"/>
    <path d="M1315.648,197.063 L1387.794,339.256 L1653.37,253.248 z" fill="#A23F96"/>
  </g>
  <defs/>
</svg>
