<?xml version="1.0" encoding="UTF-8"?>
<!DOCTYPE svg PUBLIC "-//W3C//DTD SVG 1.1//EN" "http://www.w3.org/Graphics/SVG/1.1/DTD/svg11.dtd">
<svg version="1.1" xmlns="http://www.w3.org/2000/svg" xmlns:xlink="http://www.w3.org/1999/xlink" x="0px" y="0px" width="1900" height="1349.909" viewBox="0, 0, 1900, 1349.909">
  <g id="Background">
    <rect x="0" y="0" width="1900" height="1349.909" fill="#FFFFFF"/>
  </g>
  <g id="Layer 1">
    <path d="M-0.365,-1.563 L1900,-1.563 L1900,1349.91 L-0.365,1349.91 z" fill="#624299"/>
    <path d="M253.891,1152.66 L123.356,1147.513 L214.974,980.168 z" fill="#624299"/>
    <path d="M126.64,1144.365 L42.094,1038.747 L214.974,980.168 z" fill="#503894"/>
    <path d="M-0.365,205.024 L-0.365,299.336 L67.691,312.364 L81.126,195.709 z" fill="#624299"/>
    <path d="M339.628,498.161 L336.759,169.364 L447.75,473.62 z" fill="#744E9F"/>
    <path d="M558.206,437.506 L446.802,472.579 L496.62,622.812 z" fill="#4B3591"/>
    <path d="M1369.793,716.572 L1530.074,717.614 L1465.128,753.715 z" fill="#855DA6"/>
    <path d="M1900,1039.605 L1685.368,1261.106 L1900,1302.734 z" fill="#C75DA1"/>
    <path d="M1412.958,969.666 L1559.185,1236.315 L1693.871,1263.997 z" fill="#B63491"/>
    <path d="M1689.708,1263.997 L1774.177,927.519 L1616.207,808.689 z" fill="#B63491"/>
    <path d="M1900,570.052 L1815.533,569.685 L1884.957,764.597 L1900,743.979 z" fill="#7D5FA8"/>
    <path d="M164.255,-1.563 L208.459,184.892 L237.851,-1.563 z" fill="#483593"/>
    <path d="M375.851,-1.563 L204.12,182.034 L336.759,169.366 L424.887,-1.563 z" fill="#4A3693"/>
    <path d="M237.401,-1.563 L208.459,180.187 L376.57,-1.563 z" fill="#413292"/>
    <path d="M71.793,191.524 L336.755,169.364 L156.573,263.914 z" fill="#624299"/>
    <path d="M336.759,169.364 L185.668,335.318 L339.193,353.991 z" fill="#624299"/>
    <path d="M1591.041,434.378 L1664.125,338.985 L1387.33,337.695 z" fill="#8166AB"/>
    <path d="M1315.119,195.453 L1460.843,136.724 L1665.592,256.827 z" fill="#C93994"/>
    <path d="M1815.532,305.736 L1841.522,475.581 L1761.272,568.524 z" fill="#6E3F97"/>
    <path d="M1815.532,317.502 L1743.831,208.732 L1723.629,370.093 z" fill="#8166AB"/>
    <path d="M1742.486,-1.563 L1658.965,-1.563 L1643.008,67.619 L1778.659,62.322 z" fill="#734E9F"/>
    <path d="M1086.581,-1.563 L1191.467,58.61 L1237.626,-1.563 z" fill="#9862A7"/>
    <path d="M1900,1305.815 L1459.808,1349.909 L1900,1349.909 z" fill="#B558A1"/>
    <path d="M783.835,1211.247 L575.181,1282.366 L746.832,1349.909 L853.486,1349.909 z" fill="#6E61AA"/>
    <path d="M29.133,772.39 L-0.365,772.004 L-0.365,984.358 L67.949,993.464 z" fill="#855BA4"/>
    <path d="M622.232,-1.563 L605.577,177.553 L657.194,-1.563 z" fill="#704299"/>
    <path d="M340.25,497.494 L339.662,353.52 L182.993,333.432 z" fill="#9862A7"/>
    <path d="M164.849,439.081 L129.491,599.575 L59.527,354.227 z" fill="#B262A3"/>
    <path d="M431.453,1081.094 L214.974,980.912 L280.034,818.296 z" fill="#744E9F"/>
    <path d="M126.64,1144.365 L207.99,1336.536 L251.43,1150.867 z" fill="#7B4399"/>
    <path d="M853.998,1067.315 L706.996,1130.674 L656.511,1076.41 z" fill="#B365A7"/>
    <path d="M658.327,1075.404 L431.453,1081.098 L581.527,1282.366 z" fill="#B55CA2"/>
    <path d="M849.221,1068.846 L842.783,861.021 L1087.458,843.041 z" fill="#BD3E95"/>
    <path d="M679.734,141.067 L973.038,171.853 L941.185,21.817 z" fill="#6E4F9F"/>
    <path d="M1245.784,-1.563 L1231.753,-1.563 L1114.605,125.007 L1315.121,195.454 z" fill="#744E9E"/>
    <path d="M1090.401,-1.563 L1057.198,-1.563 L1114.958,124.837 L1191.469,42.127 z" fill="#704299"/>
    <path d="M1057.185,-1.563 L1041.902,-1.563 L973.04,171.758 L1114.957,124.837 z" fill="#9862A7"/>
    <path d="M534.319,-1.563 L472.255,-1.563 L442.522,264.667 L606.273,173.314 z" fill="#503894"/>
    <path d="M534.28,-1.563 L606.3,173.416 L622.564,-1.563 z" fill="#4A3693"/>
    <path d="M424.404,-1.563 L336.759,169.366 L443.019,264.667 L472.235,-1.563 z" fill="#624299"/>
    <path d="M164.779,-1.563 L41.226,-1.563 L208.459,180.187 z" fill="#624299"/>
    <path d="M759.687,-1.563 L606.539,173.396 L1008.085,-1.563 z" fill="#9862A7"/>
    <path d="M1008.188,-1.563 L940.719,27.907 L973.038,171.854 L1042.022,-1.563 z" fill="#6E3F97"/>
    <path d="M656.001,-1.563 L606.551,173.437 L759.606,-1.563 z" fill="#6E4F9F"/>
    <path d="M1245.784,-1.563 L1315.121,195.454 L1462.636,-1.563 z" fill="#B33492"/>
    <path d="M1740.141,-1.563 L1771.358,55.814 L1816.222,-1.563 z" fill="#8F73B2"/>
    <path d="M1222.711,1231.192 L920.971,1263.742 L956.698,1115.103 z" fill="#C93994"/>
    <path d="M1205.405,959.696 L995.096,928.46 L1153.477,781.859 z" fill="#E36AA7"/>
    <path d="M581.78,1282.366 L431.46,1081.098 L251.43,1150.866 z" fill="#C19ECA"/>
    <path d="M431.453,1081.094 L303.002,1021.46 L251.43,1150.866 z" fill="#9862A7"/>
    <path d="M657.023,1076.535 L581.45,1282.366 L783.829,1213.317 z" fill="#A763A7"/>
    <path d="M706.981,1130.472 L783.829,1214.073 L849.233,1068.411 z" fill="#E369A6"/>
    <path d="M920.971,1263.742 L783.835,1213.917 L849.233,1068.411 z" fill="#CC579F"/>
    <path d="M431.453,1081.243 L639.901,947.839 L657.023,1076.428 z" fill="#C95AA0"/>
    <path d="M609.564,767.674 L431.46,1081.243 L640.839,947.839 z" fill="#B63491"/>
    <path d="M280.038,818.815 L610.673,767.672 L431.46,1081.243 z" fill="#93489B"/>
    <path d="M215.358,980.168 L45.777,1040.956 L153.931,775.854 z" fill="#413292"/>
    <path d="M251.43,1150.866 L303.65,1021.46 L214.871,980.168 z" fill="#513995"/>
    <path d="M215.358,980.764 L280.038,818.815 L153.735,775.854 z" fill="#744E9F"/>
    <path d="M849.233,1068.411 L755.524,961.656 L657.023,1076.535 z" fill="#B75BA1"/>
    <path d="M849.233,1068.411 L842.783,861.495 L755.177,961.081 z" fill="#C44096"/>
    <path d="M1412.958,969.666 L1291.719,1261.858 L1449.634,1349.909 L1452.088,1349.909 z" fill="#B55CA2"/>
    <path d="M1412.958,969.666 L1244.444,753.647 L1370.073,716.572 z" fill="#A24096"/>
    <path d="M1291.691,1261.966 L1412.958,969.666 L1244.444,753.644 z" fill="#C34397"/>
    <path d="M1412.958,969.666 L1452.047,1349.909 L1453.573,1349.909 L1561.234,1236.335 z" fill="#C44096"/>
    <path d="M1412.958,969.666 L1369.793,716.606 L1616.206,808.694 z" fill="#A87BB5"/>
    <path d="M1689.708,1261.106 L1412.958,969.722 L1616.207,808.694 z" fill="#AF2E91"/>
    <path d="M1900,1022.443 L1771.537,927.519 L1689.706,1261.107 L1900,1039.67 z" fill="#C44096"/>
    <path d="M1771.538,927.519 L1616.207,808.689 L1884.957,762.405 z" fill="#C63291"/>
    <path d="M1884.957,762.405 L1616.206,808.689 L1462.84,751.411 z" fill="#BB90C1"/>
    <path d="M957.27,1115.48 L920.971,1263.742 L849.221,1068.411 z" fill="#B33492"/>
    <path d="M1291.719,1261.672 L997.431,926.905 L1205.467,956.438 z" fill="#D64A99"/>
    <path d="M1291.719,1261.942 L1244.757,753.644 L1153.119,781.86 z" fill="#BD4F9C"/>
    <path d="M1900,925.785 L1884.957,762.405 L1771.537,927.519 L1900,1023.071 z" fill="#CA539E"/>
    <path d="M280.038,818.815 L496.62,622.812 L610.673,767.674 z" fill="#9862A7"/>
    <path d="M153.735,775.854 L71.793,585.137 L280.038,818.815 z" fill="#976CAD"/>
    <path d="M279.791,635.886 L280.038,818.815 L71.793,585.137 z" fill="#9870B0"/>
    <path d="M498.629,621.563 L279.662,635.865 L280.038,818.815 z" fill="#7A4E9E"/>
    <path d="M609.801,767.458 L1088.208,843.041 L842.267,861.495 z" fill="#E36AA7"/>
    <path d="M827.061,801.477 L558.206,437.506 L609.801,767.674 z" fill="#A23F96"/>
    <path d="M1087.459,843.041 L948.603,620.74 L827.061,801.477 z" fill="#BD3E95"/>
    <path d="M948.603,620.849 L824.576,484.194 L827.061,801.474 z" fill="#AF2E91"/>
    <path d="M824.576,484.297 L558.206,437.509 L827.061,801.477 z" fill="#9862A7"/>
    <path d="M1087.46,843.041 L1153.702,781.859 L948.603,620.74 z" fill="#C93994"/>
    <path d="M1715.47,621.21 L1513.76,471.773 L1527.193,718.39 z" fill="#744E9F"/>
    <path d="M1515.651,473.62 L1761.273,568.527 L1715.471,621.21 z" fill="#9663A8"/>
    <path d="M1515.651,473.62 L1815.532,317.501 L1761.273,568.527 z" fill="#744E9E"/>
    <path d="M1653.146,251.685 L1650.528,175.67 L1460.658,136.724 z" fill="#D96CA7"/>
    <path d="M1591.041,434.378 L1387.33,337.695 L1515.651,473.62 z" fill="#6F4298"/>
    <path d="M1527.193,718.39 L1515.638,473.619 L1387.33,337.694 z" fill="#463593"/>
    <path d="M1370.073,716.572 L1370.073,580.543 L1153.705,781.86 z" fill="#5F4299"/>
    <path d="M1527.193,718.39 L1369.214,577.317 L1370.074,716.747 z" fill="#93489B"/>
    <path d="M1387.33,337.694 L1366.271,577.82 L1527.193,718.386 z" fill="#704299"/>
    <path d="M1260.865,317.502 L1387.33,337.694 L1315.119,195.454 z" fill="#744E9E"/>
    <path d="M1114.605,136.854" fill-opacity="0" stroke="#000000" stroke-width="1.516"/>
    <path d="M1114.605,124.837 L1260.865,320.218 L1317.323,195.454 z" fill="#704299"/>
    <path d="M1387.33,337.694 L1187.834,478.444 L1260.629,317.502 z" fill="#656DB2"/>
    <path d="M1369.215,581.418 L1187.832,478.444 L1387.33,337.693 z" fill="#413292"/>
    <path d="M1187.834,478.444 L1153.702,781.86 L1370.071,580.546 z" fill="#483592"/>
    <path d="M973.038,171.757 L1260.865,317.501 L1114.605,124.836 z" fill="#8166AB"/>
    <path d="M1187.834,478.444 L1112.901,242.465 L1260.865,317.501 z" fill="#6567AD"/>
    <path d="M1148.068,353.285 L973.04,171.756 L1112.902,242.463 z" fill="#5F4299"/>
    <path d="M1187.834,478.444 L1045.954,487.906 L1148.069,353.287 z" fill="#696FB3"/>
    <path d="M1153.701,781.859 L1045.954,487.907 L1187.834,478.441 z" fill="#7076B7"/>
    <path d="M948.096,620.74 L1045.954,487.908 L1153.704,781.86 z" fill="#9862A7"/>
    <path d="M824.576,484.194 L1045.954,487.906 L948.435,620.743 z" fill="#B558A1"/>
    <path d="M1148.068,353.285 L824.576,484.194 L1045.954,487.907 z" fill="#93489B"/>
    <path d="M973.038,171.853 L932.254,440.305 L1148.068,353.287 z" fill="#483592"/>
    <path d="M791.162,151.4 L932.254,440.304 L973.038,171.851 z" fill="#704299"/>
    <path d="M824.576,484.194 L814.307,356.524 L791.162,151.401 L932.254,440.305 z" fill="#9862A7"/>
    <path d="M672.405,458.647 L814.526,360.058 L824.576,484.194 z" fill="#704299"/>
    <path d="M558.206,437.506 L671.075,390.849 L672.409,458.647 z" fill="#8D89C1"/>
    <path d="M671.079,390.851 L791.162,151.399 L814.716,360.058 z" fill="#5F4299"/>
    <path d="M606.533,173.394 L791.162,151.778 L681.153,140.864 z" fill="#503894"/>
    <path d="M671.079,390.851 L606.273,173.393 L791.162,151.399 z" fill="#6E3F97"/>
    <path d="M442.522,264.666 L671.079,390.851 L606.273,173.393 z" fill="#8166AB"/>
    <path d="M558.206,437.506 L442.518,264.666 L671.075,390.872 z" fill="#6E4F9F"/>
    <path d="M496.62,622.938 L558.206,437.506 L609.801,767.674 z" fill="#7A4E9E"/>
    <path d="M279.662,635.886 L340.246,497.494 L496.62,622.812 z" fill="#634199"/>
    <path d="M340.25,497.494 L447.754,473.62 L496.62,622.812 z" fill="#744E9F"/>
    <path d="M442.522,264.102 L447.124,473.622 L558.206,437.506 z" fill="#9862A7"/>
    <path d="M336.759,169.364 L447.754,473.622 L443.284,264.666 z" fill="#9862A7"/>
    <path d="M279.662,635.926 L185.668,334.941 L340.246,497.494 z" fill="#93489B"/>
    <path d="M-0.365,299.46 L-0.365,306.44 L164.103,438.422 L185.672,333.428 z" fill="#7A4E9E"/>
    <path d="M64.203,312.363 L336.755,169.366 L185.672,335.315 z" fill="#93489B"/>
    <path d="M97.318,644.167 L-0.365,713.54 L-0.365,772.656 L153.735,775.854 z" fill="#B261A5"/>
    <path d="M251.43,1150.866 L204.862,1349.909 L208.017,1349.909 L469.485,1237.591 z" fill="#6666AC"/>
    <path d="M45.777,1040.956 L-0.365,1106.928 L-0.365,1172.446 L126.64,1144.362 z" fill="#413292"/>
    <path d="M66.264,991.114 L29.133,772.858 L154.186,775.856 z" fill="#634199"/>
    <path d="M1291.719,1261.672 L849.233,1068.822 L998.135,926.905 z" fill="#483592"/>
    <path d="M842.783,861.495 L609.805,767.458 L657.023,1076.535 z" fill="#A23F96"/>
    <path d="M129.491,599.29 L185.668,334.939 L279.662,635.926 z" fill="#B5509D"/>
    <path d="M671.079,390.851 L672.405,458.647 L815.467,360.058 z" fill="#93489B"/>
    <path d="M41.381,-1.563 L-0.365,-1.563 L-0.365,105.46 L48.681,6.337 z" fill="#513995"/>
    <path d="M48.677,6.148 L-0.365,104.575 L-0.365,206.543 L208.459,180.188 z" fill="#744E9F"/>
    <path d="M64.203,312.363 L76.943,195.24 L157.271,263.914 z" fill="#744E9F"/>
    <path d="M59.529,354.226 L-0.365,407.431 L-0.365,567.103 L129.491,599.575 z" fill="#CB64A5"/>
    <path d="M-0.365,306.033 L-0.365,407.594 L59.529,354.227 z" fill="#855BA4"/>
    <path d="M71.793,585.135 L-0.365,662.559 L-0.365,714.285 L97.881,644.167 z" fill="#C2288E"/>
    <path d="M-0.365,566.902 L-0.365,664.381 L71.793,585.13 z" fill="#AE3191"/>
    <path d="M-0.365,982.466 L-0.365,1021.382 L45.782,1040.956 L66.074,991.114 z" fill="#BCA5CF"/>
    <path d="M-0.365,1020.205 L-0.365,1106.923 L45.782,1040.956 z" fill="#744E9F"/>
    <path d="M-0.365,1172.426 L-0.365,1349.909 L92.521,1349.909 L126.64,1144.365 z" fill="#7686C2"/>
    <path d="M126.64,1144.365 L91.637,1349.909 L205.336,1349.909 L207.99,1336.536 z" fill="#754E9E"/>
    <path d="M469.485,1237.591 L207.813,1349.909 L752.68,1349.909 z" fill="#565DA8"/>
    <path d="M783.008,1213.131 L852.96,1349.909 L879.631,1349.909 L920.968,1263.74 z" fill="#BC68A9"/>
    <path d="M920.968,1263.74 L877.996,1349.909 L1127.527,1349.909 L1222.418,1231.004 z" fill="#D96CA7"/>
    <path d="M1222.419,1231.004 L1126.119,1349.909 L1156.458,1349.909 L1291.721,1261.668 z" fill="#BD68A8"/>
    <path d="M1291.719,1261.106 L1156.151,1349.909 L1449.785,1349.909 z" fill="#6D62AA"/>
    <path d="M1900,1301.657 L1561.234,1236.18 L1453.466,1349.909 L1469.803,1349.909 L1900,1307.205 z" fill="#B55CA2"/>
    <path d="M1900,741.412 L1884.957,762.405 L1900,937.401 z" fill="#D06AA8"/>
    <path d="M1900,414.603 L1815.533,569.685 L1900,574.573 z" fill="#6589C4"/>
    <path d="M1900,139.602 L1771.355,55.818 L1841.524,475.582 L1900,408.227 z" fill="#744E9E"/>
    <path d="M1900,-1.563 L1816.397,-1.563 L1771.355,55.817 L1900,141.141 z" fill="#373091"/>
    <path d="M1621.434,-1.563 L1646.948,62.322 L1660.683,-1.563 z" fill="#4B3794"/>
    <path d="M1646.577,62.32 L1815.532,317.501 L1771.359,55.815 z" fill="#6589C4"/>
    <path d="M1482.165,-1.563 L1462.497,-1.563 L1315.119,195.454 L1646.946,62.019 z" fill="#D64A99"/>
    <path d="M1621.36,-1.563 L1481.891,-1.563 L1646.948,62.019 z" fill="#B33492"/>
    <path d="M1460.656,136.725 L1655.167,177.348 L1646.948,62.018 z" fill="#BD4F9C"/>
    <path d="M1900,401.819 L1710.833,626.548 L1812.248,576.034 L1900,420.337 z" fill="#8B68AC"/>
    <path d="M1884.957,762.405 L1815.532,569.685 L1462.84,751.411 z" fill="#704299"/>
    <path d="M1653.146,251.685 L1657.726,341.131 L1382.906,337.693 z" fill="#6E4F9F"/>
    <path d="M1655.58,348.533 L1646.576,62.018 L1743.831,208.732 z" fill="#8166AB"/>
    <path d="M1728.305,362.868 L1743.831,208.733 L1591.04,434.378 z" fill="#9862A7"/>
    <path d="M1315.119,195.5 L1387.33,337.693 L1653.146,251.685 z" fill="#A23F96"/>
  </g>
  <defs/>
</svg>
