<?xml version="1.0" encoding="UTF-8"?>
<!DOCTYPE svg PUBLIC "-//W3C//DTD SVG 1.1//EN" "http://www.w3.org/Graphics/SVG/1.1/DTD/svg11.dtd">
<svg version="1.1" xmlns="http://www.w3.org/2000/svg" xmlns:xlink="http://www.w3.org/1999/xlink" x="0px" y="0px" width="1900" height="300" viewBox="0, 0, 1900, 300">
  <g id="Background">
    <rect x="0" y="0" width="1900" height="300" fill="#FFFFFF"/>
  </g>
  <g id="Layer 1">
    <path d="M0.677,-537.547 L1899.323,-537.547 L1899.323,813.926 L0.677,813.926 z" fill="#624299"/>
    <path d="M254.703,616.676 L124.286,611.529 L215.821,444.184 z" fill="#624299"/>
    <path d="M127.567,608.381 L43.098,502.763 L215.821,444.184 z" fill="#503894"/>
    <path d="M0.677,-330.96 L0.677,-236.648 L68.671,-223.62 L82.094,-340.275 z" fill="#624299"/>
    <path d="M340.362,-37.823 L337.496,-366.62 L448.387,-62.364 z" fill="#744E9F"/>
    <path d="M558.742,-98.478 L447.439,-63.405 L497.212,86.828 z" fill="#4B3591"/>
    <path d="M1369.595,180.588 L1529.732,181.63 L1464.844,217.731 z" fill="#855DA6"/>
    <path d="M1899.322,503.621 L1684.884,725.122 L1899.322,766.75 z" fill="#C75DA1"/>
    <path d="M1412.721,433.682 L1558.816,700.331 L1693.38,728.013 z" fill="#B63491"/>
    <path d="M1689.22,728.013 L1773.614,391.535 L1615.786,272.705 z" fill="#B63491"/>
    <path d="M1899.323,34.068 L1814.932,33.701 L1884.293,228.613 L1899.323,207.995 z" fill="#7D5FA8"/>
    <path d="M165.148,-537.547 L209.312,-351.092 L238.677,-537.547 z" fill="#483593"/>
    <path d="M376.553,-537.547 L204.977,-353.95 L337.496,-366.618 L425.544,-537.547 z" fill="#4A3693"/>
    <path d="M238.228,-537.547 L209.312,-355.797 L377.271,-537.547 z" fill="#413292"/>
    <path d="M72.77,-344.46 L337.492,-366.62 L157.473,-272.07 z" fill="#624299"/>
    <path d="M337.496,-366.62 L186.542,-200.666 L339.928,-181.993 z" fill="#624299"/>
    <path d="M1590.644,-101.606 L1663.661,-196.999 L1387.117,-198.289 z" fill="#8166AB"/>
    <path d="M1314.97,-340.531 L1460.562,-399.26 L1665.126,-279.157 z" fill="#C93994"/>
    <path d="M1814.932,-230.248 L1840.897,-60.403 L1760.72,32.54 z" fill="#6E3F97"/>
    <path d="M1814.932,-218.482 L1743.294,-327.252 L1723.111,-165.891 z" fill="#8166AB"/>
    <path d="M1741.951,-537.547 L1658.505,-537.547 L1642.563,-468.365 L1778.091,-473.662 z" fill="#734E9F"/>
    <path d="M1086.64,-537.547 L1191.43,-477.374 L1237.548,-537.547 z" fill="#9862A7"/>
    <path d="M1899.322,769.831 L1459.529,813.925 L1899.322,813.925 z" fill="#B558A1"/>
    <path d="M784.167,675.263 L575.702,746.382 L747.198,813.925 L853.755,813.925 z" fill="#6E61AA"/>
    <path d="M30.148,236.406 L0.677,236.02 L0.677,448.374 L68.929,457.48 z" fill="#855BA4"/>
    <path d="M622.711,-537.547 L606.071,-358.431 L657.641,-537.547 z" fill="#704299"/>
    <path d="M340.984,-38.49 L340.396,-182.464 L183.869,-202.552 z" fill="#9862A7"/>
    <path d="M165.741,-96.903 L130.415,63.591 L60.515,-181.757 z" fill="#B262A3"/>
    <path d="M432.104,545.11 L215.821,444.928 L280.822,282.312 z" fill="#744E9F"/>
    <path d="M127.567,608.381 L208.843,800.552 L252.244,614.883 z" fill="#7B4399"/>
    <path d="M854.268,531.331 L707.398,594.69 L656.959,540.426 z" fill="#B365A7"/>
    <path d="M658.773,539.42 L432.104,545.114 L582.042,746.382 z" fill="#B55CA2"/>
    <path d="M849.494,532.862 L843.062,325.037 L1087.516,307.057 z" fill="#BD3E95"/>
    <path d="M680.161,-394.917 L973.199,-364.131 L941.375,-514.167 z" fill="#6E4F9F"/>
    <path d="M1245.698,-537.547 L1231.681,-537.547 L1114.639,-410.977 L1314.973,-340.53 z" fill="#744E9E"/>
    <path d="M1090.456,-537.547 L1057.283,-537.547 L1114.991,-411.147 L1191.432,-493.857 z" fill="#704299"/>
    <path d="M1057.271,-537.547 L1042.001,-537.547 L973.202,-364.226 L1114.99,-411.147 z" fill="#9862A7"/>
    <path d="M534.878,-537.547 L472.87,-537.547 L443.163,-271.317 L606.766,-362.67 z" fill="#503894"/>
    <path d="M534.839,-537.547 L606.793,-362.568 L623.042,-537.547 z" fill="#4A3693"/>
    <path d="M425.062,-537.547 L337.496,-366.618 L443.66,-271.317 L472.849,-537.547 z" fill="#624299"/>
    <path d="M165.672,-537.547 L42.23,-537.547 L209.312,-355.797 z" fill="#624299"/>
    <path d="M760.042,-537.547 L607.032,-362.588 L1008.214,-537.547 z" fill="#9862A7"/>
    <path d="M1008.317,-537.547 L940.909,-508.077 L973.199,-364.13 L1042.121,-537.547 z" fill="#6E3F97"/>
    <path d="M656.449,-537.547 L607.044,-362.547 L759.96,-537.547 z" fill="#6E4F9F"/>
    <path d="M1245.698,-537.547 L1314.973,-340.53 L1462.354,-537.547 z" fill="#B33492"/>
    <path d="M1739.609,-537.547 L1770.797,-480.17 L1815.62,-537.547 z" fill="#8F73B2"/>
    <path d="M1222.646,695.208 L921.18,727.758 L956.875,579.119 z" fill="#C93994"/>
    <path d="M1205.356,423.712 L995.237,392.476 L1153.475,245.875 z" fill="#E36AA7"/>
    <path d="M582.295,746.382 L432.111,545.114 L252.244,614.882 z" fill="#C19ECA"/>
    <path d="M432.104,545.11 L303.77,485.476 L252.244,614.882 z" fill="#9862A7"/>
    <path d="M657.47,540.551 L581.966,746.382 L784.161,677.333 z" fill="#A763A7"/>
    <path d="M707.383,594.488 L784.161,678.089 L849.506,532.427 z" fill="#E369A6"/>
    <path d="M921.18,727.758 L784.167,677.933 L849.507,532.427 z" fill="#CC579F"/>
    <path d="M432.104,545.259 L640.365,411.855 L657.47,540.444 z" fill="#C95AA0"/>
    <path d="M610.055,231.69 L432.111,545.259 L641.301,411.855 z" fill="#B63491"/>
    <path d="M280.826,282.831 L611.162,231.688 L432.111,545.259 z" fill="#93489B"/>
    <path d="M216.205,444.184 L46.777,504.972 L154.833,239.87 z" fill="#413292"/>
    <path d="M252.244,614.882 L304.417,485.476 L215.718,444.184 z" fill="#513995"/>
    <path d="M216.205,444.78 L280.826,282.831 L154.638,239.87 z" fill="#744E9F"/>
    <path d="M849.506,532.427 L755.883,425.672 L657.471,540.551 z" fill="#B75BA1"/>
    <path d="M849.506,532.427 L843.062,325.511 L755.535,425.097 z" fill="#C44096"/>
    <path d="M1412.721,433.682 L1291.593,725.874 L1449.365,813.925 L1451.815,813.925 z" fill="#B55CA2"/>
    <path d="M1412.721,433.682 L1244.359,217.663 L1369.875,180.588 z" fill="#A24096"/>
    <path d="M1291.564,725.982 L1412.721,433.682 L1244.359,217.66 z" fill="#C34397"/>
    <path d="M1412.721,433.682 L1451.775,813.925 L1453.299,813.925 L1560.864,700.351 z" fill="#C44096"/>
    <path d="M1412.722,433.682 L1369.596,180.622 L1615.786,272.71 z" fill="#A87BB5"/>
    <path d="M1689.22,725.122 L1412.722,433.738 L1615.786,272.71 z" fill="#AF2E91"/>
    <path d="M1899.323,486.459 L1770.975,391.535 L1689.219,725.123 L1899.323,503.686 z" fill="#C44096"/>
    <path d="M1770.976,391.535 L1615.786,272.705 L1884.293,226.421 z" fill="#C63291"/>
    <path d="M1884.293,226.421 L1615.785,272.705 L1462.558,215.427 z" fill="#BB90C1"/>
    <path d="M957.445,579.496 L921.18,727.758 L849.495,532.427 z" fill="#B33492"/>
    <path d="M1291.593,725.688 L997.571,390.921 L1205.419,420.454 z" fill="#D64A99"/>
    <path d="M1291.593,725.958 L1244.672,217.66 L1153.117,245.876 z" fill="#BD4F9C"/>
    <path d="M1899.323,389.801 L1884.294,226.421 L1770.976,391.535 L1899.323,487.087 z" fill="#CA539E"/>
    <path d="M280.826,282.831 L497.212,86.828 L611.162,231.69 z" fill="#9862A7"/>
    <path d="M154.638,239.87 L72.77,49.153 L280.826,282.831 z" fill="#976CAD"/>
    <path d="M280.579,99.902 L280.826,282.831 L72.77,49.153 z" fill="#9870B0"/>
    <path d="M499.219,85.579 L280.451,99.881 L280.826,282.831 z" fill="#7A4E9E"/>
    <path d="M610.291,231.474 L1088.266,307.057 L842.546,325.511 z" fill="#E36AA7"/>
    <path d="M827.354,265.493 L558.742,-98.478 L610.292,231.69 z" fill="#A23F96"/>
    <path d="M1087.517,307.057 L948.786,84.756 L827.354,265.493 z" fill="#BD3E95"/>
    <path d="M948.786,84.865 L824.871,-51.79 L827.354,265.49 z" fill="#AF2E91"/>
    <path d="M824.872,-51.687 L558.742,-98.475 L827.354,265.493 z" fill="#9862A7"/>
    <path d="M1087.518,307.057 L1153.7,245.875 L948.787,84.756 z" fill="#C93994"/>
    <path d="M1714.96,85.226 L1513.432,-64.211 L1526.853,182.406 z" fill="#744E9F"/>
    <path d="M1515.322,-62.364 L1760.721,32.543 L1714.96,85.226 z" fill="#9663A8"/>
    <path d="M1515.322,-62.364 L1814.932,-218.483 L1760.722,32.543 z" fill="#744E9E"/>
    <path d="M1652.692,-284.299 L1650.076,-360.314 L1460.378,-399.26 z" fill="#D96CA7"/>
    <path d="M1590.643,-101.606 L1387.116,-198.289 L1515.321,-62.364 z" fill="#6F4298"/>
    <path d="M1526.852,182.406 L1515.308,-62.365 L1387.116,-198.29 z" fill="#463593"/>
    <path d="M1369.875,180.588 L1369.875,44.559 L1153.703,245.876 z" fill="#5F4299"/>
    <path d="M1526.853,182.406 L1369.016,41.333 L1369.876,180.763 z" fill="#93489B"/>
    <path d="M1387.116,-198.29 L1366.077,41.836 L1526.853,182.402 z" fill="#704299"/>
    <path d="M1260.766,-218.482 L1387.116,-198.29 L1314.97,-340.53 z" fill="#744E9E"/>
    <path d="M1114.639,-399.13" fill-opacity="0" stroke="#000000" stroke-width="1.516"/>
    <path d="M1114.638,-411.147 L1260.766,-215.766 L1317.172,-340.53 z" fill="#704299"/>
    <path d="M1387.116,-198.29 L1187.802,-57.54 L1260.531,-218.482 z" fill="#656DB2"/>
    <path d="M1369.018,45.434 L1187.799,-57.54 L1387.116,-198.291 z" fill="#413292"/>
    <path d="M1187.802,-57.54 L1153.699,245.876 L1369.873,44.562 z" fill="#483592"/>
    <path d="M973.199,-364.227 L1260.766,-218.483 L1114.638,-411.148 z" fill="#8166AB"/>
    <path d="M1187.802,-57.54 L1112.936,-293.519 L1260.766,-218.483 z" fill="#6567AD"/>
    <path d="M1148.072,-182.699 L973.201,-364.228 L1112.937,-293.521 z" fill="#5F4299"/>
    <path d="M1187.801,-57.54 L1046.049,-48.078 L1148.072,-182.697 z" fill="#696FB3"/>
    <path d="M1153.699,245.875 L1046.049,-48.077 L1187.801,-57.543 z" fill="#7076B7"/>
    <path d="M948.281,84.756 L1046.05,-48.076 L1153.703,245.876 z" fill="#9862A7"/>
    <path d="M824.871,-51.79 L1046.049,-48.078 L948.618,84.759 z" fill="#B558A1"/>
    <path d="M1148.071,-182.699 L824.871,-51.79 L1046.049,-48.077 z" fill="#93489B"/>
    <path d="M973.2,-364.131 L932.453,-95.679 L1148.072,-182.697 z" fill="#483592"/>
    <path d="M791.488,-384.584 L932.452,-95.68 L973.199,-364.133 z" fill="#704299"/>
    <path d="M824.872,-51.79 L814.612,-179.46 L791.489,-384.583 L932.453,-95.679 z" fill="#9862A7"/>
    <path d="M672.839,-77.337 L814.831,-175.926 L824.871,-51.79 z" fill="#704299"/>
    <path d="M558.742,-98.478 L671.509,-145.135 L672.842,-77.337 z" fill="#8D89C1"/>
    <path d="M671.513,-145.133 L791.489,-384.585 L815.021,-175.926 z" fill="#5F4299"/>
    <path d="M607.026,-362.59 L791.488,-384.206 L681.578,-395.12 z" fill="#503894"/>
    <path d="M671.513,-145.133 L606.766,-362.591 L791.488,-384.585 z" fill="#6E3F97"/>
    <path d="M443.163,-271.318 L671.513,-145.133 L606.766,-362.591 z" fill="#8166AB"/>
    <path d="M558.742,-98.478 L443.159,-271.318 L671.509,-145.112 z" fill="#6E4F9F"/>
    <path d="M497.213,86.954 L558.742,-98.478 L610.292,231.69 z" fill="#7A4E9E"/>
    <path d="M280.452,99.902 L340.98,-38.49 L497.212,86.828 z" fill="#634199"/>
    <path d="M340.984,-38.49 L448.39,-62.364 L497.212,86.828 z" fill="#744E9F"/>
    <path d="M443.163,-271.882 L447.762,-62.362 L558.742,-98.478 z" fill="#9862A7"/>
    <path d="M337.496,-366.62 L448.39,-62.362 L443.924,-271.318 z" fill="#9862A7"/>
    <path d="M280.451,99.942 L186.542,-201.043 L340.98,-38.49 z" fill="#93489B"/>
    <path d="M0.677,-236.524 L0.677,-229.544 L164.996,-97.562 L186.546,-202.556 z" fill="#7A4E9E"/>
    <path d="M65.187,-223.621 L337.492,-366.618 L186.546,-200.669 z" fill="#93489B"/>
    <path d="M98.272,108.183 L0.677,177.556 L0.677,236.672 L154.638,239.87 z" fill="#B261A5"/>
    <path d="M252.244,614.882 L205.718,813.925 L208.87,813.925 L470.102,701.607 z" fill="#6666AC"/>
    <path d="M46.777,504.972 L0.677,570.944 L0.677,636.462 L127.567,608.378 z" fill="#413292"/>
    <path d="M67.246,455.13 L30.148,236.874 L155.088,239.872 z" fill="#634199"/>
    <path d="M1291.593,725.688 L849.507,532.838 L998.273,390.921 z" fill="#483592"/>
    <path d="M843.062,325.511 L610.296,231.474 L657.471,540.551 z" fill="#A23F96"/>
    <path d="M130.415,63.306 L186.542,-201.045 L280.451,99.942 z" fill="#B5509D"/>
    <path d="M671.513,-145.133 L672.839,-77.337 L815.771,-175.926 z" fill="#93489B"/>
    <path d="M-30.799,167.017 L12.81,-327.819 L-79.764,-363.565 z" fill="#6667AB"/>
    <path d="M42.385,-537.547 L0.677,-537.547 L0.677,-430.524 L49.679,-529.647 z" fill="#513995"/>
    <path d="M49.675,-529.836 L0.677,-431.409 L0.677,-329.441 L209.312,-355.796 z" fill="#744E9F"/>
    <path d="M65.187,-223.621 L77.915,-340.744 L158.17,-272.07 z" fill="#744E9F"/>
    <path d="M60.517,-181.758 L0.677,-128.553 L0.677,31.119 L130.415,63.591 z" fill="#CB64A5"/>
    <path d="M0.677,-229.951 L0.677,-128.39 L60.517,-181.757 z" fill="#855BA4"/>
    <path d="M72.77,49.151 L0.677,126.575 L0.677,178.301 L98.834,108.183 z" fill="#C2288E"/>
    <path d="M0.677,30.918 L0.677,128.397 L72.77,49.146 z" fill="#AE3191"/>
    <path d="M0.677,446.482 L0.677,485.398 L46.782,504.972 L67.056,455.13 z" fill="#BCA5CF"/>
    <path d="M0.677,484.221 L0.677,570.939 L46.782,504.972 z" fill="#744E9F"/>
    <path d="M0.677,636.442 L0.677,813.925 L93.479,813.925 L127.567,608.381 z" fill="#7686C2"/>
    <path d="M127.567,608.381 L92.596,813.925 L206.192,813.925 L208.843,800.552 z" fill="#754E9E"/>
    <path d="M470.102,701.607 L208.667,813.925 L753.04,813.925 z" fill="#565DA8"/>
    <path d="M783.341,677.147 L853.23,813.925 L879.878,813.925 L921.177,727.756 z" fill="#BC68A9"/>
    <path d="M921.177,727.756 L878.244,813.925 L1127.548,813.925 L1222.354,695.02 z" fill="#D96CA7"/>
    <path d="M1222.354,695.02 L1126.142,813.925 L1156.453,813.925 L1291.594,725.684 z" fill="#BD68A8"/>
    <path d="M1291.593,725.122 L1156.146,813.925 L1449.515,813.925 z" fill="#6D62AA"/>
    <path d="M1899.323,765.673 L1560.864,700.196 L1453.193,813.925 L1469.515,813.925 L1899.323,771.221 z" fill="#B55CA2"/>
    <path d="M1899.323,205.428 L1884.293,226.421 L1899.323,401.417 z" fill="#D06AA8"/>
    <path d="M1899.323,-121.381 L1814.932,33.701 L1899.323,38.589 z" fill="#6589C4"/>
    <path d="M1899.323,-396.382 L1770.794,-480.166 L1840.9,-60.402 L1899.323,-127.757 z" fill="#744E9E"/>
    <path d="M1899.323,-537.547 L1815.796,-537.547 L1770.794,-480.167 L1899.323,-394.843 z" fill="#373091"/>
    <path d="M1621.009,-537.547 L1646.5,-473.662 L1660.223,-537.547 z" fill="#4B3794"/>
    <path d="M1646.128,-473.664 L1814.931,-218.483 L1770.798,-480.169 z" fill="#6589C4"/>
    <path d="M1481.865,-537.547 L1462.215,-537.547 L1314.97,-340.53 L1646.497,-473.965 z" fill="#D64A99"/>
    <path d="M1620.934,-537.547 L1481.592,-537.547 L1646.499,-473.965 z" fill="#B33492"/>
    <path d="M1460.376,-399.259 L1654.712,-358.636 L1646.5,-473.966 z" fill="#BD4F9C"/>
    <path d="M1899.323,-134.165 L1710.327,90.564 L1811.65,40.05 L1899.323,-115.647 z" fill="#8B68AC"/>
    <path d="M1884.293,226.421 L1814.931,33.701 L1462.558,215.427 z" fill="#704299"/>
    <path d="M1652.693,-284.299 L1657.268,-194.853 L1382.697,-198.291 z" fill="#6E4F9F"/>
    <path d="M1655.123,-187.451 L1646.128,-473.966 L1743.295,-327.252 z" fill="#8166AB"/>
    <path d="M1727.782,-173.116 L1743.294,-327.251 L1590.642,-101.606 z" fill="#9862A7"/>
    <path d="M1314.971,-340.484 L1387.117,-198.291 L1652.693,-284.299 z" fill="#A23F96"/>
  </g>
  <defs/>
</svg>
