<?xml version="1.0" encoding="UTF-8"?>
<!DOCTYPE svg PUBLIC "-//W3C//DTD SVG 1.1//EN" "http://www.w3.org/Graphics/SVG/1.1/DTD/svg11.dtd">
<svg version="1.1" xmlns="http://www.w3.org/2000/svg" xmlns:xlink="http://www.w3.org/1999/xlink" x="0px" y="0px" width="56" height="36" viewBox="0, 0, 56, 36">
  <g id="Background">
    <rect x="0" y="0" width="56" height="36" fill="#000000" fill-opacity="0"/>
  </g>
  <g id="Background"/>
  <g id="Layer 1">
    <path d="M4.385,2.585 C6.362,1.786 9.013,0.994 12.148,0.365 C13.583,0.077 14.378,0.178 14.507,0.792 C14.68,1.61 11.473,2.253 8.726,3.42 C7.08,4.129 5.86,4.728 4.855,5.285 C5.032,6.481 5.2,8.224 5.506,10.624 L7.612,9.848 C11.111,8.545 11.974,8.026 12.948,7.83 C13.378,7.743 13.866,7.812 13.976,8.334 C14.125,9.038 13.56,10.383 13.163,10.865 C12.804,11.292 11.545,11.711 7.971,12.617 C7.329,12.769 6.597,12.963 5.832,13.117 L5.889,13.39 C6.128,15.473 6.627,18.072 6.861,19.305 L9.603,18.47 C13.527,17.329 14.068,16.935 14.928,16.763 C15.408,16.667 15.915,16.707 16.034,17.275 C16.182,17.98 15.537,19.293 15.087,19.762 C14.436,20.461 5.827,22.211 3.794,22.619 C3.219,22.734 2.989,22.354 2.784,21.377 C2.497,20.013 2.333,17.584 1.726,13.751 C1.08,13.762 0.639,13.684 0.587,13.435 C0.496,13.003 0.582,12.701 1.505,12.232 C1.242,10.509 0.974,9.118 0.764,8 C0.625,8.051 0.481,8.08 0.338,8.109 C0.218,8.133 0.117,8.011 0.06,7.738 C-0.084,7.057 0.031,5.708 0.395,5.066 C0.395,4.83 0.409,4.661 0.476,4.506 C0.758,3.596 2.29,2.342 3.246,2.151 C3.582,2.083 4.085,2.219 4.385,2.585" fill="#FFFFFF"/>
    <path d="M19.087,15.395 C19.02,15.272 18.997,15.142 18.975,15.012 C18.842,14.232 18.733,13.181 18.636,12.196 C18.203,12.265 17.983,12.077 17.92,11.708 C17.869,11.405 17.997,10.918 17.942,10.593 C17.901,10.355 17.783,10.217 17.419,10.276 C16.416,10.435 16.326,12.385 16.555,13.728 C17.012,16.415 17.774,16.761 18.139,16.703 C18.8,16.598 18.997,15.965 19.087,15.395 M24.88,15.029 C24.98,15.614 24.608,17.831 22.464,18.173 C21.438,18.336 20.616,18.044 20.072,17.463 C19.528,18.262 18.679,18.775 17.79,18.917 C15.418,19.294 14.173,16.8 13.852,14.915 C13.088,10.43 15.452,8.497 17.186,8.221 C18.28,8.046 18.803,8.364 19.078,8.743 C19.483,8.233 20.104,7.756 20.583,7.68 C20.926,7.625 21.449,7.809 21.552,8.416 C21.674,9.131 21.407,10.865 21.787,13.096 C22.167,15.327 22.6,15.679 23.079,15.603 C23.854,15.479 22.57,13.645 24.168,12.754 C24.469,12.588 24.822,14.682 24.88,15.029" fill="#FFFFFF"/>
    <path d="M34.105,6.008 C34.146,7.732 34.233,9.45 34.366,10.363 C34.692,12.602 35.228,13.239 35.8,13.16 C36.876,13.013 36.624,11.761 37.287,11.67 C37.631,11.624 37.887,11.943 37.944,12.334 C38.027,12.9 37.324,15.125 35.196,15.416 C32.93,15.726 31.797,14.196 31.512,12.239 C31.398,11.457 31.228,9.329 31.152,7.211 C29.359,7.722 26.825,8.269 24.743,8.554 L24.469,8.591 C25.394,9.662 30.508,9.672 31.015,13.15 C31.303,15.129 29.82,16.33 27.464,16.652 C25.107,16.975 23.152,15.735 22.965,14.453 C22.778,13.169 24.022,11.934 24.64,11.85 C25.074,11.79 25.266,12.141 25.401,12.744 C25.605,13.669 26.246,15.023 27.413,14.863 C28.054,14.775 28.369,14.378 28.287,13.812 C28.008,11.899 22.87,10.761 22.58,8.762 C22.164,5.913 25.942,7.015 31.075,4.915 C31.01,3.35 30.986,2.067 31.085,1.787 C31.347,1.019 32.38,0.101 33.067,0.007 C33.432,-0.043 33.928,0.156 34.017,0.764 C34.058,1.047 34.066,2.221 34.092,3.682 C34.684,3.423 35.376,2.884 35.857,2.819 C36.109,2.784 36.238,3.033 36.27,3.25 C36.349,3.794 36.102,4.825 35.925,5.049 C35.613,5.469 35.021,5.727 34.105,6.008" fill="#FFFFFF"/>
    <path d="M38.729,8.751 C38.75,8.903 38.77,9.033 38.813,9.161 C39.745,8.519 40.552,7.673 40.389,6.587 C40.31,6.066 39.994,5.511 39.467,5.585 C38.713,5.691 38.491,7.165 38.729,8.751 M35.843,9.757 C35.371,6.606 37.012,3.845 39.481,3.497 C41.265,3.246 42.33,4.428 42.539,5.818 C42.872,8.035 40.871,9.802 39.277,10.538 C39.969,11.882 40.86,12.067 41.684,11.951 C43.445,11.703 44.289,8.922 44.45,6.259 C43.323,6.218 42.715,5.438 42.579,4.525 C42.363,3.091 43.696,1.395 44.612,1.267 C45.389,1.156 45.683,1.714 45.826,2.67 C45.872,2.975 45.927,3.499 45.931,4.143 C47.76,3.419 48.427,1.794 49.113,1.697 C49.662,1.62 50.358,2.521 50.504,3.499 C50.629,4.324 48.932,6.094 49.333,8.767 C49.577,10.396 50.485,10.535 50.989,10.464 C52.041,10.316 51.76,9.068 52.424,8.975 C52.767,8.927 53.025,9.245 53.076,9.593 C53.164,10.18 52.589,12.413 50.187,12.751 C48.061,13.05 46.744,12.06 46.526,10.604 C46.219,8.561 47.439,6.104 47.939,5.391 C47.939,5.391 46.88,5.806 45.89,6.056 C45.677,9.303 44.63,13.534 41.131,14.027 C38.616,14.38 36.306,12.842 35.843,9.757" fill="#FFFFFF"/>
    <path d="M13.179,25.751 C13.632,28.869 15.569,29.567 17.081,29.36 C19.067,29.088 19.417,27.353 19.92,27.284 C20.092,27.261 20.277,27.416 20.311,27.649 C20.414,28.36 19.414,30.967 16.376,31.382 C14.116,31.69 11.203,30.736 10.643,26.892 C10.07,22.953 12.506,19.816 15.01,19.474 C16.622,19.253 18.122,20.178 18.41,22.147 C18.493,22.722 18.14,23.83 16.758,24.019 C16.471,24.059 16.029,23.854 15.96,23.375 C15.878,22.815 16.108,22.881 15.995,22.102 C15.915,21.554 15.415,20.842 14.753,20.932 C13.659,21.081 12.816,23.261 13.179,25.751" fill="#FFFFFF"/>
    <path d="M24.045,25.889 C23.974,25.768 23.949,25.638 23.924,25.509 C23.775,24.732 23.644,23.683 23.525,22.7 C23.094,22.777 22.87,22.594 22.8,22.227 C22.742,21.924 22.858,21.434 22.796,21.111 C22.751,20.874 22.631,20.739 22.267,20.804 C21.268,20.982 21.219,22.934 21.477,24.272 C21.991,26.949 22.76,27.28 23.124,27.215 C23.783,27.097 23.966,26.461 24.045,25.889 M29.83,25.413 C29.942,25.995 29.616,28.22 27.481,28.602 C26.458,28.785 25.629,28.509 25.073,27.938 C24.547,28.746 23.708,29.277 22.822,29.435 C20.458,29.858 19.161,27.388 18.8,25.51 C17.941,21.042 20.264,19.063 21.991,18.754 C23.082,18.559 23.611,18.867 23.894,19.24 C24.289,18.723 24.9,18.233 25.377,18.149 C25.718,18.087 26.245,18.261 26.362,18.865 C26.498,19.578 26.268,21.316 26.696,23.539 C27.123,25.763 27.528,26.405 28.006,26.319 C28.778,26.182 28.515,24.933 29.152,24.82 C29.492,24.759 29.763,25.067 29.83,25.413" fill="#FFFFFF"/>
    <path d="M43.886,22.138 C44.001,22.698 43.706,24.904 41.575,25.315 C39.762,25.664 38.496,24.677 38.094,22.739 C37.866,21.642 37.92,20.087 37.719,19.118 C37.602,18.558 37.386,18.197 37.001,18.271 C36.072,18.45 36.128,21.216 36.842,24.66 C36.963,25.241 36.748,26.246 34.617,26.656 C34.254,26.726 34.034,26.343 33.886,25.633 C33.524,23.89 33.783,22.071 33.399,20.219 C33.247,19.487 32.99,19.045 32.491,19.141 C31.562,19.32 31.322,22.143 32.038,25.586 C32.159,26.168 31.942,27.172 29.835,27.579 C29.427,27.657 29.233,27.291 29.104,26.667 C28.92,25.784 28.874,24.428 28.624,23.11 C27.914,19.575 27.879,19.18 27.912,18.658 C27.928,17.602 29.417,16.599 30.12,16.463 C30.641,16.363 30.944,16.573 31.051,17.09 C31.145,17.542 30.944,18.275 30.982,19.141 C31.272,17.92 32.336,16.238 33.582,15.997 C34.716,15.779 35.271,16.635 35.638,17.84 C36.059,16.684 36.982,15.342 38.115,15.123 C39.521,14.852 40.094,15.794 40.357,17.065 C40.639,18.42 40.558,19.847 40.866,21.332 C41.156,22.731 41.545,23.126 42.067,23.026 C42.837,22.878 42.532,21.638 43.189,21.511 C43.53,21.446 43.805,21.751 43.886,22.138" fill="#FFFFFF"/>
    <path d="M46.716,21.16 C46.396,21.208 45.984,21.116 45.662,21.009 C45.127,17.579 45.184,15.347 46.349,15.17 C46.988,15.073 47.486,15.685 47.772,17.442 C48.094,19.416 47.858,20.986 46.716,21.16 M50.571,16.238 C50.207,14.004 49.128,11.835 47.188,12.13 C45.886,12.328 45.206,13.9 44.865,15.107 C44.953,14.36 45.074,13.519 45,13.064 C44.915,12.543 44.599,12.325 44.073,12.405 C43.389,12.509 41.927,13.443 41.796,14.508 C41.641,15.709 42.301,20.054 42.722,22.635 C42.949,24.027 43.231,25.548 43.54,26.781 C42.982,26.711 42.42,26.668 41.866,26.634 C41.123,26.587 40.379,26.571 39.635,26.579 C38.964,26.586 38.306,26.605 37.649,26.741 C35.028,27.282 32.426,27.914 29.828,28.549 C27.259,29.178 24.687,29.797 22.128,30.462 C21.039,30.746 19.981,31.111 18.922,31.491 C18.09,31.789 17.25,32.004 16.37,32.107 C15.696,32.186 15.016,32.215 14.337,32.231 C13.56,32.25 12.835,32.132 12.099,31.881 C11.359,31.63 10.658,31.275 9.974,30.902 C9.696,30.751 9.415,30.54 9.113,30.443 C8.862,30.361 8.587,30.463 8.365,30.579 C7.899,30.823 7.515,31.259 7.222,31.689 C6.952,32.085 6.902,32.548 6.995,33.011 C7.117,33.62 7.556,34.143 7.997,34.555 C8.452,34.978 8.978,35.296 9.56,35.507 C10.76,35.942 12.115,36.03 13.38,35.964 C14.954,35.881 16.488,35.394 17.974,34.9 C18.766,34.638 19.552,34.364 20.349,34.117 C21.159,33.866 21.985,33.666 22.804,33.447 C24.417,33.017 26.025,32.566 27.631,32.108 C29.21,31.659 30.788,31.201 32.368,30.752 C34.005,30.286 35.646,29.758 37.324,29.459 C38.95,29.17 40.609,29.117 42.255,29.201 C43.101,29.245 43.945,29.33 44.785,29.436 C45.198,29.488 45.612,29.548 46.025,29.611 C46.328,29.657 46.618,29.705 46.884,29.522 C47.226,29.287 47.233,28.729 47.126,28.347 C47.129,28.316 47.128,28.286 47.123,28.255 C46.996,27.474 46.609,26.822 45.941,22.723 C46.433,22.87 46.96,22.945 47.508,22.861 C50.202,22.451 51.026,19.036 50.571,16.238" fill="#FFFFFF"/>
    <path d="M47.664,23.19 C47.772,23.173 47.874,23.204 47.894,23.329 C47.924,23.508 47.842,23.642 47.899,23.985 C47.914,24.079 47.966,24.198 47.99,24.346 C48.075,24.853 47.51,25.115 47.244,25.159 C47.034,25.194 46.887,25.13 46.838,24.834 C46.736,24.218 47.343,23.244 47.664,23.19" fill="#FFFFFF"/>
    <path d="M50.384,22.932 C50.415,23.119 50.737,26.311 50.961,27.668 C51.574,27.646 52.131,27.667 52.15,27.783 C52.189,28.018 51.313,28.147 50.471,28.334 C49.822,28.482 49.196,28.714 49.07,28.734 C48.969,28.751 48.861,28.73 48.838,28.589 C48.808,28.41 49.029,27.949 49.154,27.879 C49.191,27.865 49.291,27.84 49.447,27.815 C49.541,27.8 49.665,27.778 49.8,27.764 C49.723,27.064 49.473,24.926 49.379,24.212 C49.17,24.503 48.94,24.758 48.738,24.791 C48.457,24.838 48.12,24.445 48.092,24.281 C48.06,24.087 48.586,23.975 49.195,23.442 C49.704,22.981 49.867,22.705 50.03,22.679 C50.116,22.664 50.35,22.722 50.384,22.932" fill="#FFFFFF"/>
    <path d="M51.398,26.386 C51.381,26.284 51.396,26.081 51.814,25.804 C52.354,24.513 52.155,23.023 52.311,22.709 C52.428,22.449 53.029,22.061 53.224,22.029 C53.411,21.998 53.52,22.172 53.552,22.367 C53.657,22.998 53.157,24.524 52.638,25.507 C52.638,25.507 52.778,25.476 52.832,25.467 C53.191,25.408 53.27,25.402 53.506,25.372 C53.684,24.613 53.914,23.966 54.061,23.941 C54.171,23.923 54.26,23.981 54.283,24.12 C54.301,24.23 54.284,24.657 54.321,25.269 C54.936,25.159 55.171,24.839 55.336,24.812 C55.375,24.805 55.399,24.809 55.428,24.837 C55.463,24.855 55.479,24.9 55.49,24.971 C55.548,25.322 55.248,26.173 54.64,26.274 C54.563,26.286 54.5,26.296 54.429,26.3 L54.457,26.472 C54.491,26.682 54.547,26.873 54.593,27.146 C54.633,27.388 54.061,27.9 53.686,27.962 C53.484,27.995 53.364,27.807 53.315,27.511 C53.266,27.214 53.283,26.786 53.329,26.339 C52.886,26.324 52.5,26.267 52.225,26.257 C52.069,26.427 51.914,26.549 51.781,26.571 C51.547,26.61 51.421,26.526 51.398,26.386" fill="#FFFFFF"/>
  </g>
  <defs/>
</svg>
