<?xml version="1.0" encoding="UTF-8"?>
<!DOCTYPE svg PUBLIC "-//W3C//DTD SVG 1.1//EN" "http://www.w3.org/Graphics/SVG/1.1/DTD/svg11.dtd">
<svg version="1.1" xmlns="http://www.w3.org/2000/svg" xmlns:xlink="http://www.w3.org/1999/xlink" x="0px" y="0px" width="90" height="70" viewBox="0, 0, 90, 70">
  <g id="Background">
    <rect x="0" y="0" width="90" height="70" fill="#000000" fill-opacity="0"/>
  </g>
  <g id="Layer 1">
    <path d="M11.915,13.182 C14.714,12.051 18.468,10.929 22.907,10.039 C24.94,9.631 26.065,9.774 26.248,10.643 C26.493,11.802 21.952,12.712 18.062,14.364 C15.731,15.368 14.003,16.217 12.58,17.006 C12.831,18.7 13.068,21.167 13.502,24.567 L16.484,23.467 C21.439,21.622 22.661,20.887 24.04,20.61 C24.649,20.487 25.341,20.584 25.496,21.324 C25.707,22.321 24.907,24.225 24.345,24.908 C23.837,25.513 22.054,26.105 16.992,27.389 C16.084,27.604 15.047,27.879 13.963,28.097 L14.044,28.483 C14.383,31.433 15.089,35.114 15.42,36.859 L19.303,35.677 C24.86,34.061 25.626,33.504 26.845,33.26 C27.524,33.124 28.242,33.181 28.411,33.985 C28.621,34.983 27.707,36.843 27.07,37.507 C26.148,38.497 13.957,40.975 11.077,41.553 C10.263,41.716 9.938,41.177 9.647,39.794 C9.24,37.863 9.009,34.422 8.149,28.994 C7.234,29.01 6.61,28.9 6.536,28.547 C6.407,27.935 6.529,27.508 7.836,26.844 C7.464,24.403 7.084,22.434 6.786,20.851 C6.589,20.923 6.386,20.964 6.183,21.005 C6.013,21.039 5.871,20.866 5.79,20.48 C5.586,19.515 5.749,17.604 6.264,16.696 C6.264,16.361 6.284,16.122 6.379,15.902 C6.778,14.614 8.947,12.838 10.302,12.567 C10.777,12.471 11.489,12.664 11.915,13.182" fill="#FFFFFF"/>
    <path d="M32.734,31.322 C32.639,31.149 32.607,30.965 32.576,30.78 C32.387,29.676 32.233,28.188 32.095,26.792 C31.482,26.89 31.171,26.624 31.082,26.102 C31.009,25.673 31.19,24.982 31.112,24.522 C31.054,24.185 30.888,23.99 30.372,24.073 C28.951,24.299 28.824,27.06 29.148,28.962 C29.796,32.767 30.875,33.257 31.391,33.175 C32.328,33.026 32.607,32.13 32.734,31.322 M40.938,30.804 C41.08,31.633 40.553,34.773 37.517,35.256 C36.064,35.488 34.899,35.074 34.129,34.251 C33.359,35.382 32.157,36.109 30.897,36.31 C27.539,36.844 25.776,33.312 25.321,30.643 C24.239,24.292 27.587,21.554 30.042,21.163 C31.592,20.916 32.332,21.366 32.722,21.902 C33.295,21.181 34.175,20.505 34.853,20.397 C35.338,20.32 36.079,20.58 36.225,21.439 C36.397,22.452 36.02,24.907 36.558,28.067 C37.096,31.227 37.709,31.725 38.387,31.617 C39.485,31.442 37.666,28.844 39.93,27.583 C40.355,27.347 40.855,30.313 40.938,30.804" fill="#FFFFFF"/>
    <path d="M54.001,18.03 C54.059,20.471 54.183,22.904 54.371,24.197 C54.833,27.368 55.592,28.269 56.402,28.158 C57.925,27.949 57.568,26.177 58.507,26.048 C58.994,25.982 59.357,26.434 59.438,26.988 C59.555,27.789 58.56,30.94 55.546,31.353 C52.338,31.792 50.733,29.625 50.329,26.854 C50.168,25.746 49.927,22.733 49.82,19.733 C47.281,20.457 43.692,21.231 40.744,21.635 L40.355,21.688 C41.666,23.204 48.907,23.218 49.625,28.144 C50.033,30.946 47.934,32.647 44.597,33.103 C41.259,33.56 38.491,31.804 38.226,29.988 C37.961,28.171 39.723,26.422 40.598,26.303 C41.213,26.218 41.484,26.715 41.675,27.568 C41.965,28.879 42.872,30.796 44.525,30.57 C45.432,30.445 45.879,29.882 45.762,29.081 C45.367,26.372 38.092,24.761 37.68,21.929 C37.092,17.895 42.442,19.455 49.71,16.482 C49.618,14.265 49.585,12.448 49.725,12.052 C50.096,10.965 51.559,9.665 52.531,9.532 C53.049,9.461 53.751,9.742 53.877,10.604 C53.935,11.004 53.946,12.667 53.983,14.735 C54.822,14.369 55.802,13.606 56.482,13.513 C56.839,13.464 57.022,13.816 57.067,14.124 C57.179,14.894 56.83,16.354 56.579,16.672 C56.137,17.266 55.298,17.632 54.001,18.03" fill="#FFFFFF"/>
    <path d="M60.549,21.914 C60.58,22.129 60.608,22.314 60.669,22.494 C61.988,21.586 63.131,20.388 62.9,18.849 C62.789,18.111 62.341,17.326 61.595,17.43 C60.527,17.581 60.212,19.668 60.549,21.914 M56.463,23.338 C55.794,18.876 58.118,14.966 61.615,14.474 C64.141,14.118 65.649,15.792 65.945,17.761 C66.416,20.9 63.583,23.403 61.325,24.444 C62.305,26.348 63.568,26.61 64.734,26.446 C67.228,26.095 68.423,22.156 68.651,18.385 C67.055,18.327 66.194,17.223 66.001,15.93 C65.696,13.899 67.584,11.497 68.88,11.315 C69.981,11.159 70.397,11.949 70.6,13.303 C70.665,13.734 70.743,14.477 70.748,15.388 C73.339,14.363 74.283,12.062 75.255,11.925 C76.032,11.816 77.017,13.091 77.224,14.476 C77.401,15.645 74.998,18.151 75.566,21.936 C75.912,24.244 77.198,24.44 77.911,24.34 C79.401,24.13 79.003,22.363 79.943,22.231 C80.429,22.163 80.794,22.614 80.867,23.106 C80.992,23.937 80.177,27.1 76.776,27.579 C73.765,28.002 71.9,26.6 71.591,24.538 C71.157,21.645 72.884,18.166 73.592,17.156 C73.592,17.156 72.093,17.744 70.691,18.098 C70.389,22.696 68.906,28.687 63.951,29.385 C60.389,29.886 57.118,27.707 56.463,23.338" fill="#FFFFFF"/>
    <path d="M24.367,45.988 C25.009,50.403 27.752,51.392 29.893,51.099 C32.706,50.714 33.201,48.256 33.914,48.159 C34.158,48.126 34.42,48.346 34.467,48.676 C34.614,49.683 33.197,53.374 28.895,53.962 C25.695,54.399 21.569,53.047 20.777,47.604 C19.965,42.026 23.414,37.584 26.961,37.099 C29.244,36.786 31.368,38.096 31.775,40.885 C31.893,41.699 31.393,43.268 29.436,43.536 C29.029,43.592 28.404,43.302 28.306,42.624 C28.19,41.83 28.516,41.924 28.355,40.82 C28.242,40.045 27.534,39.036 26.596,39.164 C25.047,39.375 23.854,42.462 24.367,45.988" fill="#FFFFFF"/>
    <path d="M39.755,46.184 C39.655,46.012 39.619,45.828 39.584,45.645 C39.373,44.545 39.187,43.06 39.019,41.667 C38.408,41.777 38.092,41.517 37.992,40.997 C37.91,40.569 38.075,39.875 37.987,39.417 C37.923,39.081 37.753,38.89 37.238,38.982 C35.822,39.235 35.754,41.999 36.118,43.894 C36.847,47.684 37.936,48.153 38.451,48.061 C39.384,47.894 39.644,46.994 39.755,46.184 M47.947,45.509 C48.106,46.334 47.645,49.484 44.621,50.025 C43.172,50.284 41.999,49.893 41.211,49.085 C40.466,50.23 39.278,50.981 38.023,51.205 C34.676,51.804 32.839,48.306 32.328,45.647 C31.111,39.319 34.401,36.517 36.847,36.08 C38.391,35.803 39.141,36.239 39.542,36.767 C40.101,36.035 40.966,35.342 41.642,35.222 C42.125,35.135 42.871,35.381 43.036,36.237 C43.229,37.246 42.904,39.708 43.509,42.856 C44.114,46.005 44.688,46.914 45.364,46.793 C46.458,46.598 46.085,44.83 46.987,44.669 C47.469,44.583 47.853,45.02 47.947,45.509" fill="#FFFFFF"/>
    <path d="M67.852,40.871 C68.016,41.664 67.597,44.789 64.58,45.371 C62.013,45.865 60.22,44.467 59.65,41.723 C59.328,40.169 59.404,37.967 59.119,36.595 C58.954,35.802 58.648,35.29 58.102,35.396 C56.787,35.649 56.866,39.566 57.878,44.443 C58.049,45.266 57.744,46.689 54.726,47.27 C54.213,47.369 53.901,46.827 53.692,45.821 C53.179,43.352 53.545,40.776 53.001,38.154 C52.786,37.118 52.422,36.491 51.716,36.627 C50.4,36.881 50.061,40.878 51.074,45.755 C51.245,46.578 50.939,48.001 47.954,48.576 C47.377,48.687 47.102,48.169 46.919,47.285 C46.659,46.035 46.594,44.114 46.24,42.248 C45.234,37.242 45.185,36.682 45.231,35.943 C45.254,34.448 47.363,33.027 48.358,32.835 C49.096,32.693 49.525,32.991 49.677,33.723 C49.81,34.363 49.525,35.401 49.579,36.627 C49.989,34.899 51.496,32.516 53.261,32.175 C54.866,31.866 55.652,33.078 56.173,34.785 C56.768,33.148 58.075,31.247 59.68,30.938 C61.671,30.554 62.482,31.888 62.855,33.687 C63.254,35.607 63.139,37.627 63.576,39.73 C63.987,41.712 64.537,42.271 65.276,42.129 C66.367,41.919 65.935,40.163 66.866,39.983 C67.348,39.891 67.738,40.323 67.852,40.871" fill="#FFFFFF"/>
    <path d="M71.86,39.486 C71.407,39.555 70.823,39.424 70.368,39.273 C69.61,34.415 69.691,31.255 71.341,31.004 C72.246,30.866 72.95,31.734 73.355,34.222 C73.811,37.017 73.477,39.24 71.86,39.486 M77.319,32.517 C76.804,29.353 75.276,26.281 72.528,26.699 C70.685,26.98 69.722,29.205 69.239,30.915 C69.364,29.857 69.535,28.666 69.43,28.021 C69.31,27.284 68.862,26.975 68.118,27.088 C67.149,27.236 65.078,28.559 64.893,30.066 C64.673,31.768 65.608,37.921 66.204,41.576 C66.525,43.547 66.925,45.7 67.363,47.447 C66.572,47.347 65.776,47.287 64.992,47.238 C63.94,47.172 62.886,47.149 61.832,47.16 C60.882,47.171 59.951,47.198 59.02,47.39 C55.308,48.156 51.624,49.051 47.944,49.951 C44.307,50.841 40.664,51.717 37.04,52.659 C35.498,53.061 34,53.579 32.501,54.116 C31.322,54.539 30.133,54.843 28.887,54.989 C27.932,55.101 26.969,55.142 26.008,55.165 C24.907,55.191 23.881,55.024 22.838,54.669 C21.791,54.314 20.798,53.81 19.829,53.283 C19.435,53.069 19.038,52.77 18.61,52.632 C18.254,52.517 17.865,52.661 17.551,52.825 C16.89,53.171 16.347,53.788 15.932,54.397 C15.549,54.958 15.479,55.613 15.611,56.269 C15.783,57.132 16.405,57.872 17.03,58.455 C17.673,59.055 18.419,59.505 19.243,59.804 C20.942,60.42 22.861,60.544 24.652,60.451 C26.882,60.333 29.054,59.643 31.158,58.944 C32.279,58.573 33.393,58.185 34.521,57.836 C35.669,57.48 36.838,57.197 37.998,56.887 C40.282,56.278 42.559,55.639 44.833,54.991 C47.069,54.354 49.304,53.706 51.541,53.07 C53.86,52.41 56.184,51.662 58.56,51.239 C60.863,50.83 63.212,50.755 65.543,50.874 C66.741,50.936 67.936,51.056 69.125,51.206 C69.711,51.28 70.297,51.365 70.881,51.454 C71.31,51.519 71.721,51.588 72.098,51.328 C72.582,50.995 72.592,50.205 72.441,49.664 C72.445,49.621 72.444,49.578 72.437,49.534 C72.256,48.428 71.709,47.504 70.763,41.7 C71.459,41.908 72.206,42.015 72.982,41.896 C76.797,41.315 77.964,36.479 77.319,32.517" fill="#FFFFFF"/>
    <path d="M73.202,42.362 C73.356,42.337 73.5,42.381 73.529,42.558 C73.571,42.812 73.455,43.001 73.535,43.487 C73.557,43.62 73.631,43.789 73.665,43.999 C73.785,44.717 72.984,45.088 72.608,45.15 C72.31,45.199 72.102,45.109 72.033,44.689 C71.888,43.817 72.748,42.438 73.202,42.362" fill="#FFFFFF"/>
    <path d="M77.055,41.996 C77.099,42.261 77.554,46.781 77.872,48.703 C78.74,48.672 79.528,48.701 79.556,48.866 C79.611,49.198 78.37,49.381 77.177,49.646 C76.259,49.855 75.372,50.184 75.194,50.213 C75.051,50.237 74.898,50.206 74.865,50.007 C74.823,49.753 75.135,49.1 75.312,49.002 C75.365,48.982 75.507,48.947 75.728,48.911 C75.86,48.889 76.037,48.859 76.227,48.839 C76.119,47.847 75.765,44.82 75.631,43.809 C75.336,44.221 75.01,44.582 74.723,44.629 C74.326,44.695 73.848,44.139 73.809,43.907 C73.764,43.631 74.509,43.473 75.371,42.718 C76.091,42.065 76.322,41.675 76.553,41.637 C76.675,41.617 77.006,41.698 77.055,41.996" fill="#FFFFFF"/>
    <path d="M78.49,46.887 C78.466,46.743 78.487,46.456 79.079,46.063 C79.844,44.235 79.562,42.125 79.783,41.68 C79.949,41.312 80.8,40.763 81.076,40.717 C81.341,40.673 81.495,40.92 81.541,41.196 C81.689,42.09 80.981,44.25 80.247,45.643 C80.247,45.643 80.444,45.599 80.521,45.586 C81.029,45.502 81.142,45.494 81.475,45.451 C81.728,44.376 82.053,43.46 82.262,43.425 C82.417,43.399 82.544,43.481 82.576,43.679 C82.602,43.834 82.578,44.439 82.63,45.305 C83.501,45.149 83.834,44.696 84.067,44.658 C84.122,44.649 84.157,44.654 84.197,44.693 C84.247,44.719 84.269,44.783 84.285,44.883 C84.368,45.38 83.943,46.585 83.082,46.728 C82.972,46.746 82.883,46.76 82.782,46.766 L82.822,47.009 C82.871,47.307 82.95,47.577 83.015,47.964 C83.071,48.306 82.261,49.031 81.731,49.119 C81.444,49.166 81.274,48.899 81.205,48.48 C81.136,48.06 81.16,47.454 81.225,46.82 C80.597,46.799 80.051,46.719 79.662,46.704 C79.441,46.945 79.221,47.118 79.033,47.149 C78.701,47.204 78.523,47.086 78.49,46.887" fill="#FFFFFF"/>
  </g>
  <defs/>
</svg>
