<?xml version="1.0" encoding="UTF-8"?>
<!DOCTYPE svg PUBLIC "-//W3C//DTD SVG 1.1//EN" "http://www.w3.org/Graphics/SVG/1.1/DTD/svg11.dtd">
<svg version="1.1" xmlns="http://www.w3.org/2000/svg" xmlns:xlink="http://www.w3.org/1999/xlink" x="0px" y="0px" width="202.488" height="182.577" viewBox="0, 0, 202.488, 182.577">
  <g id="Layer 1">
    <path d="M153.752,69.649 L109.626,51.56 L123.124,34.642 z" fill="#848BC4"/>
    <path d="M45.621,45.622 L92.601,59.447 L66.59,27.283 z" fill="#8358A9"/>
    <path d="M41.725,32.827 L27.992,47.863 L28.007,56.151 L15.882,76.446 L23.203,97.267 L1.3,98.634 L25.724,116.532 L5.145,132.137 L48.792,153.042 L68.151,170.722 L74.543,160.704 L115.619,168.573 L114.186,180.708 L146.478,173.66 L148.422,176.815 L163.847,155.397 L153.97,132.242 L183.358,144.603 L180.872,101.655 L192.052,101.869 L177.066,81.288 L182.733,59.23 L168.124,38.993 L153.275,25.431 L123.444,35.071 L116.79,28.856 L111.338,8.611 L93.433,28.214 L79.471,34.019 L66.764,27.442 z" fill="#A55FAA"/>
    <path d="M66.59,27.283 L92.601,59.447 L84.515,28.624 z" fill="#5A4CA4"/>
    <path d="M74.54,161.799 L96.417,129.221 L115.348,169.109 z" fill="#A55FAA"/>
    <path d="M96.304,129.345 L115.61,169.846 L119.78,144.34 z" fill="#C64CA3"/>
    <path d="M14.139,75.335 L29.552,69.883 L28.247,53.445 z" fill="#8166AF"/>
    <path d="M27.068,47.706 L29.144,68.631 L41.842,31.53 z" fill="#AA78B6"/>
    <path d="M38.279,131.993 L1,98.536 L46.617,117.32 z" fill="#8965AE"/>
    <path d="M53.893,101.197 L46.403,117.32 L68.416,127.156 z" fill="#5D4CA1"/>
    <path d="M38.269,131.854 L22.013,117.129 L3.672,132.672 z" fill="#AA78B6"/>
    <path d="M155.099,132.658 L147.137,155.689 L135.852,155.788 z" fill="#C27DB6"/>
    <path d="M135.924,155.48 L113.277,181.562 L145.909,174.601 z" fill="#C374B1"/>
    <path d="M154.781,133.353 L130.743,112.725 L153.835,83.38 z" fill="#CC57A6"/>
    <path d="M33.021,57.083 L49.695,42.456 L46.443,15.449 z" fill="#8166AF"/>
    <path d="M8.574,77.475 L22.576,96.441 L29.108,68.652 z" fill="#644CA5"/>
    <path d="M181.55,102.626 L184.069,145.312 L166.824,118.751 z" fill="#D556A5"/>
    <path d="M179.063,82.109 L153.963,102.536 L153.729,69.675 z" fill="#EA83B6"/>
    <path d="M135.918,155.743 L148.17,179.156 L164.32,155.544 z" fill="#B77AB6"/>
    <path d="M147.113,155.669 L164.405,155.622 L154.733,133.307 z" fill="#EA83B6"/>
    <path d="M113.294,181.577 L119.684,144.445 L135.906,155.732 z" fill="#D572B0"/>
    <path d="M154.733,133.307 L133.106,132.871 L135.918,155.743 z" fill="#C574B1"/>
    <path d="M154.733,133.307 L130.796,112.774 L133.006,132.851 z" fill="#D25BA7"/>
    <path d="M183.672,58.567 L159.892,56.553 L168.617,38.625 z" fill="#B25AA8"/>
    <path d="M178.647,81.717 L201.488,59.808 L159.892,56.553 z" fill="#D15CA8"/>
    <path d="M167.223,118.313 L184.069,145.312 L154.732,133.308 z" fill="#C24DA3"/>
    <path d="M193.793,102.989 L154.028,102.114 L178.703,81.768 z" fill="#E063A9"/>
    <path d="M179.063,82.109 L159.924,56.518 L153.692,69.715 z" fill="#CA68AC"/>
    <path d="M68.232,171.633 L68.415,127.156 L96.418,129.221 z" fill="#AA78B6"/>
    <path d="M68.482,126.801 L47.615,152.879 L68.233,171.633 z" fill="#8D65AE"/>
    <path d="M96.304,129.296 L153.911,83.296 L130.743,112.831 z" fill="#EA83B6"/>
    <path d="M122.431,108.375 L53.893,101.197 L96.328,129.318 z" fill="#B457A7"/>
    <path d="M153.834,83.38 L114.576,76.147 L122.431,108.375 z" fill="#CC57A6"/>
    <path d="M114.589,76.158 L86.485,76.058 L122.431,108.374 z" fill="#C047A1"/>
    <path d="M86.497,76.068 L53.893,101.197 L122.431,108.375 z" fill="#AA78B6"/>
    <path d="M153.834,83.38 L153.752,69.649 L114.576,76.147 z" fill="#D556A5"/>
    <path d="M168.617,38.625 L153.315,24.65 L153.752,69.649 z" fill="#7359AA"/>
    <path d="M123.125,34.642 L153.752,69.65 L153.315,24.65 z" fill="#5A4CA4"/>
    <path d="M114.524,76.204 L109.626,51.56 L153.752,69.65 z" fill="#AA78B6"/>
    <path d="M86.486,76.058 L109.626,51.559 L114.559,76.166 z" fill="#C370B0"/>
    <path d="M92.601,59.447 L86.485,76.058 L109.626,51.559 z" fill="#A55FAA"/>
    <path d="M86.486,76.058 L71.07,64.095 L45.621,45.622 L92.601,59.447 z" fill="#AA78B6"/>
    <path d="M67.992,90.534 L71.491,64.433 L86.485,76.058 z" fill="#8358A9"/>
    <path d="M53.893,101.197 L60.229,83.719 L67.993,90.534 z" fill="#A09CCC"/>
    <path d="M60.23,83.718 L45.62,45.622 L71.51,64.412 z" fill="#7359AA"/>
    <path d="M29.144,68.631 L45.664,45.661 L33.143,56.904 z" fill="#644CA5"/>
    <path d="M60.23,83.718 L29.117,68.661 L45.62,45.622 z" fill="#8256A8"/>
    <path d="M22.576,96.441 L60.23,83.718 L29.117,68.661 z" fill="#957CBA"/>
    <path d="M53.893,101.197 L22.576,96.442 L60.232,83.721 z" fill="#8166AF"/>
    <path d="M68.429,127.169 L53.892,101.197 L96.328,129.319 z" fill="#8D65AE"/>
    <path d="M47.617,152.882 L38.268,131.855 L68.415,127.155 z" fill="#7558AA"/>
    <path d="M38.269,131.854 L46.618,117.32 L68.415,127.155 z" fill="#8965AE"/>
    <path d="M22.512,96.383 L46.553,117.391 L53.893,101.197 z" fill="#AA78B6"/>
    <path d="M1,98.536 L46.618,117.32 L22.654,96.355 z" fill="#AA78B6"/>
    <path d="M47.621,152.885 L4.116,132.527 L38.268,131.855 z" fill="#A55FAA"/>
    <path d="M181.55,102.626 L154.779,133.349 L154.099,102.034 z" fill="#C24DA3"/>
    <path d="M130.795,112.774 L96.304,129.296 L135.918,155.743 z" fill="#B457A7"/>
    <path d="M60.23,83.718 L67.992,90.534 L71.587,64.328 z" fill="#A55FAA"/>
    <path d="M84.515,28.624 L109.627,51.56 L92.601,59.447 z" fill="#AA78B6"/>
    <path d="M112.853,1 L109.615,51.572 L84.515,28.624 L112.18,1 z" fill="#5A4CA4"/>
    <path d="M113.113,1 L123.125,34.642 L109.615,51.572 L112.853,1 z" fill="#AA78B6"/>
    <path d="M49.695,42.456 L66.59,27.283 L46.443,15.449 z" fill="#AA78B6"/>
    <path d="M151.345,91.35 C153.067,91.088 154.407,92.739 155.178,97.472 C156.043,102.788 155.408,107.015 152.333,107.483 C151.472,107.615 150.361,107.365 149.495,107.078 C148.053,97.838 148.209,91.828 151.345,91.35 M147.712,85.677 C147.483,84.275 146.631,83.687 145.217,83.902 C145.06,83.927 144.887,83.968 144.702,84.023 C148.352,79.604 149.728,72.619 150.11,66.803 C152.776,66.128 155.628,65.01 155.628,65.01 C154.28,66.932 150.996,73.55 151.821,79.052 C152.064,80.673 152.815,82.079 154.014,83.115 C153.878,83.127 153.742,83.142 153.603,83.163 C150.098,83.697 148.266,87.928 147.347,91.181 C147.586,89.169 147.911,86.904 147.712,85.677 M139.809,112.511 C138.405,112.781 137.359,111.717 136.576,107.948 C135.745,103.947 135.964,100.105 135.205,96.453 C134.495,93.032 132.953,90.495 129.167,91.224 C126.115,91.813 123.628,95.429 122.496,98.541 C121.505,95.295 120.009,92.99 116.958,93.579 C113.6,94.226 110.732,98.759 109.953,102.045 C109.851,99.713 110.393,97.739 110.141,96.521 C109.851,95.13 109.036,94.563 107.631,94.834 C105.739,95.199 101.728,97.902 101.684,100.745 C101.595,102.149 101.69,103.216 103.603,112.738 C103.927,114.445 104.124,116.176 104.295,117.778 C103.475,118.776 103.638,121.078 101.937,121.382 C100.651,121.612 99.558,119.882 98.408,113.894 C97.257,107.905 97.877,103.224 97.508,101.304 C97.195,99.676 95.775,99.208 94.856,99.373 C93.572,99.603 91.925,100.92 90.863,102.312 C90.1,101.307 88.674,100.478 85.736,101.004 C81.085,101.836 74.828,107.166 77.141,119.202 C77.488,121.008 78.157,123.017 79.164,124.803 C78.074,126.222 76.548,129.019 72.51,129.572 C68.438,130.128 63.221,128.249 61.999,119.849 C61.023,113.145 63.293,107.273 66.24,106.87 C68.023,106.627 69.371,108.545 69.586,110.021 C69.891,112.12 69.271,111.941 69.492,113.452 C69.679,114.742 70.867,115.293 71.642,115.187 C75.364,114.678 76.314,111.693 76.089,110.145 C75.369,105.199 71.809,102.701 67.812,102.865 C68.29,102.16 68.776,101.245 69.142,100.308 C70.594,101.287 72.347,101.772 74.42,101.442 C76.816,101.061 79.104,99.678 80.567,97.527 C82.032,99.092 84.248,99.878 87.012,99.438 C90.471,98.888 92.217,96.523 93.003,94.377 C95.069,95.287 97.666,95.728 100.477,95.344 C106.825,94.475 110.818,91.24 110.041,85.91 C108.675,76.541 94.904,76.515 92.409,73.631 L93.149,73.531 C98.757,72.762 105.584,71.29 110.412,69.912 C110.616,75.618 111.073,81.349 111.381,83.457 C112.149,88.728 115.201,92.85 121.303,92.014 C125.269,91.471 127.396,88.435 128.258,86.111 C130.79,87.979 133.973,88.737 137.29,88.27 C138.212,88.14 139.07,87.913 139.869,87.603 C139.455,88.221 139.165,88.884 139.081,89.567 C138.682,92.66 140.289,103.483 141.42,110.504 C141.148,111.413 140.826,112.314 139.809,112.511 M88.788,123.794 C87.809,123.969 85.737,123.077 84.351,115.867 C83.658,112.263 83.788,107.006 86.481,106.525 C87.46,106.349 87.783,106.712 87.906,107.352 C88.074,108.224 87.758,109.544 87.914,110.357 C88.104,111.347 88.706,111.84 89.869,111.632 C90.188,114.281 90.541,117.105 90.944,119.198 C91.01,119.547 91.078,119.896 91.267,120.223 C91.057,121.765 90.562,123.476 88.788,123.794 M73.42,78.167 C74.403,78.011 74.719,78.38 74.828,79.021 C74.977,79.897 74.633,81.21 74.772,82.027 C74.941,83.019 75.532,83.525 76.699,83.339 C76.962,85.994 77.255,88.824 77.613,90.925 C77.673,91.275 77.732,91.625 77.915,91.956 C77.671,93.493 77.141,95.196 75.36,95.479 C74.377,95.635 72.326,94.703 71.093,87.467 C70.477,83.849 70.718,78.597 73.42,78.167 M132.81,65.533 C134.227,65.334 135.08,66.827 135.291,68.231 C135.73,71.158 133.555,73.437 131.047,75.164 C130.933,74.821 130.879,74.47 130.819,74.06 C130.178,69.789 130.777,65.819 132.81,65.533 M153.43,126.594 C153.087,124.492 152.045,122.735 150.246,111.694 C151.572,112.09 152.991,112.293 154.466,112.068 C161.723,110.962 163.943,101.764 162.716,94.228 C162.124,90.593 160.829,87.023 158.745,84.94 C159.647,85.013 160.628,84.984 161.684,84.835 C168.153,83.924 169.703,77.909 169.465,76.329 C169.325,75.393 168.631,74.534 167.707,74.664 C165.92,74.916 166.676,78.275 163.842,78.675 C162.487,78.865 160.041,78.492 159.382,74.103 C158.302,66.904 162.872,62.137 162.537,59.913 C162.143,57.279 160.269,54.854 158.79,55.062 C156.942,55.322 155.146,59.698 150.217,61.648 C150.209,59.915 150.06,58.503 149.937,57.683 C149.551,55.108 148.759,53.606 146.664,53.901 C144.201,54.248 140.609,58.817 141.188,62.68 C141.557,65.139 143.193,67.238 146.229,67.349 C145.796,74.522 143.523,82.014 138.779,82.681 C136.562,82.993 134.16,82.495 132.295,78.873 C136.59,76.894 141.978,72.131 141.082,66.161 C140.52,62.416 137.652,59.233 132.847,59.91 C126.195,60.846 121.775,68.282 123.048,76.769 C123.441,79.391 124.33,81.597 125.575,83.36 C125.112,84.416 124.653,85.701 122.932,85.937 C121.391,86.148 119.947,84.434 119.068,78.403 C118.71,75.943 118.475,71.316 118.364,66.673 C120.832,65.916 122.427,65.22 123.268,64.09 C123.747,63.486 124.41,60.708 124.196,59.244 C124.111,58.658 123.763,57.989 123.085,58.082 C121.79,58.259 119.927,59.709 118.331,60.405 C118.261,56.472 118.24,53.31 118.129,52.549 C117.89,50.909 116.555,50.375 115.569,50.51 C113.719,50.763 110.937,53.235 110.232,55.302 C109.965,56.056 110.028,59.512 110.203,63.728 C96.38,69.384 86.203,66.417 87.321,74.089 C88.106,79.476 101.943,82.54 102.694,87.693 C102.916,89.216 102.066,90.288 100.341,90.524 C97.197,90.954 95.471,87.308 94.919,84.816 C94.557,83.193 94.042,82.248 92.871,82.408 C91.207,82.636 87.857,85.962 88.361,89.417 C88.474,90.195 88.83,90.966 89.384,91.684 C89.322,92.138 89.133,92.443 88.667,92.517 C87.377,92.722 86.211,91.774 85.187,85.764 C84.164,79.754 84.882,75.084 84.554,73.158 C84.276,71.524 82.867,71.029 81.945,71.176 C80.656,71.381 78.982,72.667 77.89,74.039 C77.149,73.018 75.742,72.163 72.793,72.633 C68.125,73.376 61.757,78.584 63.815,90.663 C64.103,92.357 64.669,94.233 65.532,95.944 C63.614,96.534 61.103,97.698 52.368,100.239 L44.982,102.487 C44.352,99.169 43.01,92.167 42.365,86.556 L42.211,85.821 C44.272,85.407 46.245,84.884 47.972,84.474 C57.601,82.033 60.991,80.907 61.957,79.756 C63.027,78.457 64.548,74.836 64.148,72.938 C63.852,71.532 62.537,71.347 61.377,71.581 C58.754,72.108 56.43,73.506 47.005,77.014 L41.334,79.107 C40.508,72.639 40.057,67.947 39.58,64.725 C42.287,63.226 45.574,61.61 50.007,59.7 C57.406,56.559 66.042,54.826 65.578,52.623 C65.23,50.971 63.09,50.699 59.223,51.474 C50.78,53.167 43.639,55.301 38.316,57.452 C37.505,56.468 36.151,56.1 35.248,56.282 C32.67,56.798 28.546,60.177 27.785,62.626 C27.606,63.044 27.566,63.499 27.567,64.136 C26.587,65.863 26.278,69.498 26.665,71.334 C26.819,72.068 27.09,72.397 27.412,72.332 C27.799,72.254 28.185,72.177 28.56,72.038 C29.127,75.05 29.849,78.796 30.558,83.438 C28.071,84.701 27.838,85.514 28.083,86.676 C28.225,87.349 29.411,87.558 31.152,87.528 C32.789,97.852 33.228,104.396 34.001,108.069 C34.556,110.7 35.174,111.725 36.721,111.415 C40.532,110.65 52.915,108.136 60.688,106.042 C56.78,109.585 54.128,115.762 55.171,122.925 C56.677,133.277 64.525,135.848 70.613,135.016 C76.77,134.174 79.82,129.991 80.834,127.155 C82.596,129.108 84.964,130.312 87.974,129.773 C90.361,129.346 92.62,127.92 94.038,125.742 C95.537,127.278 97.767,128.022 100.523,127.529 C103.008,127.084 104.582,125.714 105.545,124.173 C105.863,124.658 106.282,124.885 106.864,124.772 C112.541,123.679 113.123,120.972 112.797,119.408 C110.871,110.13 111.515,102.528 114.018,102.045 C115.361,101.786 116.053,102.98 116.463,104.951 C117.498,109.938 116.801,114.836 117.776,119.533 C118.173,121.447 118.769,122.478 119.745,122.29 C125.484,121.183 126.064,118.478 125.739,116.912 C123.813,107.635 123.663,100.185 126.166,99.703 C127.203,99.503 127.786,100.476 128.099,101.984 C128.641,104.594 128.496,108.782 129.11,111.739 C130.194,116.958 133.603,119.617 138.487,118.676 C140.241,118.338 141.532,117.546 142.472,116.569 C142.877,118.698 143.317,120.781 143.78,122.625 C142.276,122.435 140.761,122.322 139.27,122.228 C137.269,122.102 135.264,122.059 133.259,122.08 C131.452,122.1 129.681,122.153 127.91,122.517 C120.852,123.973 113.843,125.677 106.843,127.389 C99.926,129.081 92.997,130.747 86.105,132.54 C83.17,133.303 80.323,134.289 77.471,135.31 C75.228,136.115 72.967,136.693 70.596,136.972 C68.78,137.185 66.948,137.261 65.121,137.305 C63.026,137.355 61.075,137.038 59.091,136.363 C57.1,135.686 55.211,134.729 53.368,133.726 C52.619,133.318 51.863,132.751 51.05,132.488 C50.373,132.269 49.632,132.542 49.036,132.855 C47.778,133.513 46.746,134.688 45.956,135.844 C45.228,136.911 45.095,138.159 45.345,139.405 C45.673,141.047 46.855,142.454 48.044,143.563 C49.266,144.704 50.686,145.561 52.254,146.13 C55.485,147.301 59.135,147.537 62.542,147.359 C66.783,147.136 70.914,145.823 74.917,144.494 C77.048,143.788 79.168,143.049 81.312,142.385 C83.496,141.709 85.719,141.17 87.927,140.581 C92.272,139.421 96.602,138.208 100.926,136.974 C105.181,135.762 109.43,134.531 113.685,133.32 C118.097,132.066 122.516,130.643 127.037,129.839 C131.416,129.06 135.884,128.917 140.319,129.145 C142.597,129.262 144.869,129.491 147.131,129.776 C148.247,129.916 149.36,130.077 150.472,130.246 C151.288,130.371 152.068,130.501 152.787,130.007 C153.707,129.373 153.725,127.872 153.439,126.842 C153.446,126.761 153.444,126.679 153.43,126.594" fill="#FFFFFF"/>
    <path d="M155.52,115.094 C155.366,114.17 155.588,113.809 155.508,113.326 C155.452,112.99 155.179,112.906 154.885,112.954 C154.023,113.098 152.386,115.721 152.662,117.38 C152.794,118.178 153.189,118.35 153.756,118.256 C154.471,118.138 155.994,117.432 155.767,116.067 C155.701,115.668 155.562,115.346 155.52,115.094" fill="#FFFFFF"/>
    <path d="M163.768,125.015 C163.162,121.359 162.298,112.762 162.215,112.257 C162.121,111.69 161.491,111.535 161.26,111.574 C160.819,111.647 160.381,112.389 159.011,113.63 C157.372,115.067 155.954,115.367 156.041,115.892 C156.114,116.334 157.023,117.391 157.779,117.266 C158.325,117.175 158.945,116.49 159.506,115.707 C159.76,117.628 160.434,123.387 160.638,125.274 C160.278,125.312 159.942,125.368 159.69,125.409 C159.27,125.479 159.001,125.545 158.898,125.584 C158.562,125.769 157.969,127.011 158.05,127.494 C158.112,127.872 158.403,127.932 158.676,127.887 C159.012,127.831 160.7,127.206 162.447,126.809 C164.715,126.303 167.075,125.955 166.971,125.325 C166.918,125.01 165.42,124.956 163.768,125.015" fill="#FFFFFF"/>
    <path d="M175.967,117.748 C175.935,117.559 175.894,117.437 175.799,117.388 C175.722,117.314 175.655,117.303 175.55,117.321 C175.109,117.393 174.475,118.254 172.819,118.55 C172.719,116.905 172.765,115.754 172.717,115.459 C172.654,115.081 172.412,114.927 172.119,114.975 C171.72,115.042 171.102,116.785 170.621,118.828 C169.987,118.912 169.774,118.926 168.807,119.085 C168.66,119.11 168.285,119.194 168.285,119.194 C169.681,116.545 171.029,112.437 170.747,110.735 C170.66,110.211 170.367,109.741 169.862,109.825 C169.337,109.912 167.719,110.957 167.403,111.657 C166.983,112.504 167.518,116.515 166.065,119.993 C164.938,120.741 164.899,121.287 164.944,121.56 C165.007,121.939 165.346,122.163 165.976,122.058 C166.334,121.999 166.753,121.67 167.174,121.212 C167.913,121.241 168.952,121.392 170.146,121.432 C170.022,122.64 169.975,123.791 170.108,124.589 C170.24,125.388 170.562,125.895 171.108,125.805 C172.116,125.638 173.657,124.26 173.55,123.609 C173.428,122.874 173.277,122.359 173.183,121.792 L173.107,121.33 C173.3,121.319 173.468,121.292 173.678,121.257 C175.316,120.985 176.123,118.694 175.967,117.748" fill="#FFFFFF"/>
  </g>
  <defs/>
</svg>
