<?xml version="1.0" encoding="UTF-8"?>
<!DOCTYPE svg PUBLIC "-//W3C//DTD SVG 1.1//EN" "http://www.w3.org/Graphics/SVG/1.1/DTD/svg11.dtd">
<svg version="1.1" xmlns="http://www.w3.org/2000/svg" xmlns:xlink="http://www.w3.org/1999/xlink" x="0px" y="0px" width="715.869" height="636.373" viewBox="0, 0, 715.869, 636.373">
  <g id="Layer 1">
    <path d="M29.296,528.336 L166.792,490.936 L207.052,621.4 L289.243,597.436 L375.465,517.871 L487.485,509.631 L558.311,626.438 L664.657,548.047 L621.35,433.557 L703.552,384.884 L657.588,350.383 L642.181,161.742 L366.425,170.124 L279.395,96.077 L210.404,200.861 L113.269,158.947 L10.339,238.645 L35.859,324.679 L16.479,489.135 z" fill="#C370B0"/>
    <path d="M183.198,561.578 L203.635,626.435 L291.177,597.435 z" fill="#5D4CA1"/>
    <path d="M550.195,389.372 L587.116,474.955 L555.497,504.348 z" fill="#C27DB6"/>
    <path d="M554.909,503.291 L558.225,635.371 L675.509,548.002 z" fill="#C374B1"/>
    <path d="M551.088,392.154 L429.984,395.903 L419.509,253.456 z" fill="#CC57A6"/>
    <path d="M645.69,174.712 L664.657,350.382 L578.043,329.581 z" fill="#D556A5"/>
    <path d="M487.485,184.789 L469.284,307.227 L383.858,215.019 z" fill="#EA83B6"/>
    <path d="M555.569,504.049 L675.509,548.047 L635.274,430.227 z" fill="#B77AB6"/>
    <path d="M587,474.965 L635.713,430.223 L550.836,392.147 z" fill="#EA83B6"/>
    <path d="M664.656,350.383 L635.624,430.221 L550.836,392.148 z" fill="#D770AF"/>
    <path d="M558.311,635.373 L480.577,514.018 L555.505,504.051 z" fill="#D572B0"/>
    <path d="M550.835,392.148 L488.626,446.704 L555.568,504.049 z" fill="#C574B1"/>
    <path d="M550.835,392.147 L430.262,395.902 L488.291,446.905 z" fill="#D25BA7"/>
    <path d="M578.263,329.247 L664.657,350.383 L550.835,392.154 z" fill="#C24DA3"/>
    <path d="M663.449,134.538 L468.378,305.867 L485.586,184.752 z" fill="#E063A9"/>
    <path d="M663.609,134.538 L367.417,161.878 L383.859,215.229 z" fill="#CA68AC"/>
    <path d="M375.466,531.541 L419.509,253.019 L430.26,396.202 z" fill="#EA83B6"/>
    <path d="M395.289,405.055 L183.197,561.578 L375.59,531.541 z" fill="#B457A7"/>
    <path d="M419.509,253.455 L289.971,334.296 L395.289,405.057 z" fill="#CC57A6"/>
    <path d="M290.034,334.295 L210.403,406.503 L395.285,405.054 z" fill="#C047A1"/>
    <path d="M210.464,406.503 L183.199,561.578 L395.289,405.055 z" fill="#AA78B6"/>
    <path d="M419.509,253.455 L383.856,214.888 L289.971,334.296 z" fill="#D556A5"/>
    <path d="M345.814,88.92 L266.546,88.92 L383.859,214.887 z" fill="#7359AA"/>
    <path d="M207.052,195.018 L383.859,214.888 L266.548,88.92 z" fill="#5A4CA4"/>
    <path d="M28.342,320.068 L113.269,152.499 L1,237.651 z" fill="#957CBA"/>
    <path d="M207.051,195.018 L69.544,238.643 L113.269,152.501 z" fill="#777CBC"/>
    <path d="M134.121,218.169 L28.341,320.066 L69.543,238.643 z" fill="#7359AA"/>
    <path d="M207.051,195.018 L212.565,277.619 L134.122,218.167 z" fill="#7B85C0"/>
    <path d="M383.858,214.888 L212.567,277.618 L207.052,195.018 z" fill="#848BC4"/>
    <path d="M289.971,334.589 L212.567,277.619 L383.858,214.887 z" fill="#AA78B6"/>
    <path d="M210.404,406.503 L212.565,277.619 L289.972,334.393 z" fill="#C370B0"/>
    <path d="M134.121,218.169 L210.404,406.502 L212.567,277.618 z" fill="#A55FAA"/>
    <path d="M28.397,320.068 L184.828,343.813 L134.122,218.169 z" fill="#5A4CA4"/>
    <path d="M16.48,425.957 L184.828,343.813 L28.397,320.068 z" fill="#8358A9"/>
    <path d="M210.404,406.503 L136.008,412.481 L16.481,425.957 L184.827,343.813 z" fill="#AA78B6"/>
    <path d="M195.517,495.092 L138.066,412.352 L210.403,406.504 z" fill="#8358A9"/>
    <path d="M183.198,561.578 L156.01,495.869 L195.518,495.092 z" fill="#A09CCC"/>
    <path d="M156.011,495.867 L16.479,425.957 L138.067,412.242 z" fill="#7359AA"/>
    <path d="M29.296,533.443 L16.699,425.957 L10.339,490.002 z" fill="#644CA5"/>
    <path d="M156.011,495.867 L29.296,533.596 L16.479,425.957 z" fill="#8256A8"/>
    <path d="M291.25,597.436 L183.198,561.579 L375.592,531.541 z" fill="#8D65AE"/>
    <path d="M663.449,134.538 L551.074,392.147 L468.378,305.458 z" fill="#C24DA3"/>
    <path d="M430.262,395.902 L375.466,531.539 L555.568,504.05 z" fill="#B457A7"/>
    <path d="M156.01,495.867 L195.518,495.094 L138.066,411.803 z" fill="#A55FAA"/>
    <path d="M664.656,350.383 L635.164,430.703 L714.869,389.978" fill="#C980B8"/>
    <path d="M515.14,228.938 L368.628,168.875 L413.446,112.702 z" fill="#848BC4"/>
    <path d="M156.109,149.161 L312.098,195.063 L225.732,88.268 z" fill="#8358A9"/>
    <path d="M143.171,106.678 L97.574,156.601 L97.624,184.119 L57.365,251.508 L81.674,320.64 L8.946,325.177 L90.044,384.605 L21.715,436.42 L166.637,505.83 L230.915,564.534 L252.14,531.27 L388.524,557.398 L383.767,597.692 L490.986,574.291 L497.443,584.764 L548.66,513.651 L515.862,436.768 L613.441,477.812 L605.186,335.21 L642.308,335.92 L592.55,267.583 L611.366,194.345 L562.858,127.15 L513.557,82.121 L414.506,114.127 L392.413,93.491 L374.31,26.271 L314.861,91.361 L268.501,110.635 L226.309,88.796 z" fill="#A55FAA"/>
    <path d="M225.734,88.268 L312.098,195.063 L285.25,92.721 z" fill="#5A4CA4"/>
    <path d="M252.13,534.907 L324.769,426.736 L387.624,559.177 z" fill="#A55FAA"/>
    <path d="M324.392,427.15 L388.497,561.626 L402.341,476.936 z" fill="#C64CA3"/>
    <path d="M51.578,247.818 L102.752,229.715 L98.421,175.135 z" fill="#8166AF"/>
    <path d="M94.507,156.08 L101.4,225.558 L143.561,102.371 z" fill="#AA78B6"/>
    <path d="M131.732,435.941 L7.952,324.852 L159.417,387.223 z" fill="#8965AE"/>
    <path d="M183.573,333.688 L158.704,387.223 L231.794,419.879 z" fill="#5D4CA1"/>
    <path d="M131.697,435.479 L77.721,386.589 L16.825,438.195 z" fill="#AA78B6"/>
    <path d="M519.613,438.149 L493.174,514.619 L455.704,514.947 z" fill="#C27DB6"/>
    <path d="M455.945,513.925 L380.75,600.528 L489.097,577.414 z" fill="#C374B1"/>
    <path d="M518.555,440.456 L438.741,371.965 L515.414,274.53 z" fill="#CC57A6"/>
    <path d="M114.272,187.216 L169.634,138.647 L158.839,48.976 z" fill="#8166AF"/>
    <path d="M33.1,254.922 L79.592,317.896 L101.28,225.628 z" fill="#644CA5"/>
    <path d="M607.44,338.434 L615.802,480.165 L558.544,391.972 z" fill="#D556A5"/>
    <path d="M599.181,270.31 L515.839,338.133 L515.062,229.023 z" fill="#EA83B6"/>
    <path d="M455.925,514.799 L496.604,592.538 L550.229,514.14 z" fill="#B77AB6"/>
    <path d="M493.097,514.555 L550.512,514.396 L518.398,440.305 z" fill="#EA83B6"/>
    <path d="M380.805,600.577 L402.022,477.285 L455.884,514.762 z" fill="#D572B0"/>
    <path d="M518.398,440.305 L446.587,438.856 L455.925,514.798 z" fill="#C574B1"/>
    <path d="M518.398,440.305 L438.917,372.127 L446.255,438.789 z" fill="#D25BA7"/>
    <path d="M614.483,192.143 L535.528,185.456 L564.498,125.928 z" fill="#B25AA8"/>
    <path d="M597.8,269.006 L673.641,196.261 L535.527,185.453 z" fill="#D15CA8"/>
    <path d="M559.869,390.52 L615.802,480.165 L518.393,440.309 z" fill="#C24DA3"/>
    <path d="M648.089,339.637 L516.055,336.732 L597.985,269.177 z" fill="#E063A9"/>
    <path d="M599.181,270.31 L535.634,185.338 L514.94,229.157 z" fill="#CA68AC"/>
    <path d="M231.186,567.56 L231.794,419.88 L324.771,426.738 z" fill="#AA78B6"/>
    <path d="M232.013,418.703 L162.729,505.29 L231.188,567.56 z" fill="#8D65AE"/>
    <path d="M324.392,426.986 L515.668,274.25 L438.742,372.317 z" fill="#EA83B6"/>
    <path d="M411.144,357.521 L183.574,333.688 L324.474,427.061 z" fill="#B457A7"/>
    <path d="M515.413,274.53 L385.062,250.513 L411.143,357.521 z" fill="#CC57A6"/>
    <path d="M385.105,250.55 L291.792,250.217 L411.144,357.518 z" fill="#C047A1"/>
    <path d="M291.831,250.252 L183.573,333.688 L411.144,357.521 z" fill="#AA78B6"/>
    <path d="M515.413,274.53 L515.14,228.938 L385.062,250.513 z" fill="#D556A5"/>
    <path d="M564.497,125.929 L513.689,79.526 L515.14,228.939 z" fill="#7359AA"/>
    <path d="M413.448,112.702 L515.14,228.94 L513.69,79.527 z" fill="#5A4CA4"/>
    <path d="M384.888,250.702 L368.628,168.875 L515.14,228.94 z" fill="#AA78B6"/>
    <path d="M291.792,250.216 L368.626,168.873 L385.005,250.576 z" fill="#C370B0"/>
    <path d="M312.098,195.064 L291.792,250.217 L368.628,168.874 z" fill="#A55FAA"/>
    <path d="M291.792,250.216 L240.608,210.496 L156.108,149.161 L312.098,195.062 z" fill="#AA78B6"/>
    <path d="M230.388,298.283 L242.004,211.619 L291.792,250.217 z" fill="#8358A9"/>
    <path d="M183.573,333.688 L204.611,275.654 L230.39,298.284 z" fill="#A09CCC"/>
    <path d="M204.615,275.653 L156.107,149.16 L242.068,211.548 z" fill="#7359AA"/>
    <path d="M101.399,225.559 L156.25,149.289 L114.679,186.619 z" fill="#644CA5"/>
    <path d="M204.615,275.653 L101.31,225.656 L156.107,149.16 z" fill="#8256A8"/>
    <path d="M79.591,317.896 L204.615,275.651 L101.31,225.656 z" fill="#957CBA"/>
    <path d="M183.573,333.688 L79.589,317.899 L204.62,275.663 z" fill="#8166AF"/>
    <path d="M231.84,419.923 L183.572,333.687 L324.474,427.061 z" fill="#8D65AE"/>
    <path d="M162.736,505.299 L131.695,435.484 L231.793,419.879 z" fill="#7558AA"/>
    <path d="M131.697,435.479 L159.419,387.22 L231.793,419.879 z" fill="#8965AE"/>
    <path d="M79.38,317.703 L159.202,387.457 L183.573,333.688 z" fill="#AA78B6"/>
    <path d="M7.951,324.852 L159.418,387.221 L79.85,317.61 z" fill="#AA78B6"/>
    <path d="M162.75,505.31 L18.299,437.715 L131.694,435.483 z" fill="#A55FAA"/>
    <path d="M607.44,338.434 L518.55,440.443 L516.293,336.469 z" fill="#C24DA3"/>
    <path d="M438.916,372.127 L324.393,426.985 L455.925,514.798 z" fill="#B457A7"/>
    <path d="M204.615,275.653 L230.387,298.283 L242.324,211.27 z" fill="#A55FAA"/>
    <path d="M285.248,92.722 L368.628,168.875 L312.098,195.064 z" fill="#AA78B6"/>
    <path d="M379.343,1 L368.591,168.916 L285.249,92.722 L377.108,1 z" fill="#5A4CA4"/>
    <path d="M380.204,1 L413.448,112.702 L368.59,168.916 L379.342,1 z" fill="#AA78B6"/>
    <path d="M169.634,138.646 L225.734,88.268 L158.839,48.976 z" fill="#AA78B6"/>
    <path d="M507.148,300.993 C512.866,300.122 517.314,305.605 519.874,321.318 C522.748,338.97 520.638,353.007 510.429,354.561 C507.571,354.997 503.88,354.169 501.005,353.216 C496.216,322.536 496.734,302.579 507.148,300.993 M495.085,282.157 C494.326,277.502 491.495,275.548 486.8,276.264 C486.279,276.344 485.704,276.481 485.092,276.665 C497.21,261.992 501.778,238.798 503.046,219.487 C511.901,217.248 521.37,213.535 521.37,213.535 C516.894,219.917 505.99,241.89 508.727,260.16 C509.536,265.542 512.028,270.209 516.01,273.648 C515.56,273.688 515.107,273.739 514.646,273.809 C503.009,275.582 496.926,289.631 493.873,300.432 C494.668,293.751 495.747,286.23 495.085,282.157 M468.845,371.253 C464.183,372.151 460.71,368.618 458.111,356.102 C455.352,342.819 456.078,330.063 453.558,317.935 C451.201,306.576 446.079,298.152 433.511,300.575 C423.375,302.53 415.119,314.535 411.359,324.87 C408.069,314.091 403.103,306.438 392.97,308.393 C381.823,310.541 372.3,325.593 369.714,336.503 C369.373,328.76 371.173,322.206 370.336,318.163 C369.373,313.543 366.667,311.662 362.003,312.56 C355.721,313.772 342.404,322.747 342.256,332.186 C341.962,336.85 342.275,340.391 348.628,372.007 C349.705,377.677 350.357,383.423 350.927,388.743 C348.204,392.056 348.746,399.698 343.096,400.708 C338.827,401.472 335.199,395.729 331.38,375.845 C327.558,355.962 329.616,340.417 328.391,334.044 C327.352,328.638 322.638,327.085 319.587,327.631 C315.321,328.394 309.855,332.768 306.328,337.389 C303.794,334.052 299.06,331.302 289.304,333.048 C273.861,335.811 253.085,353.507 260.767,393.472 C261.919,399.468 264.14,406.139 267.482,412.067 C263.865,416.78 258.797,426.067 245.388,427.901 C231.869,429.749 214.548,423.509 210.49,395.62 C207.25,373.358 214.785,353.862 224.571,352.524 C230.492,351.718 234.966,358.087 235.679,362.985 C236.693,369.956 234.636,369.362 235.367,374.378 C235.99,378.661 239.934,380.491 242.507,380.139 C254.867,378.448 258.021,368.538 257.273,363.397 C254.882,346.977 243.062,338.681 229.79,339.227 C231.377,336.886 232.99,333.848 234.205,330.735 C239.028,333.985 244.849,335.597 251.732,334.501 C259.686,333.235 267.283,328.644 272.142,321.503 C277.006,326.698 284.364,329.309 293.541,327.848 C305.027,326.02 310.822,318.17 313.432,311.043 C320.294,314.065 328.917,315.53 338.249,314.253 C359.328,311.367 372.584,300.628 370.004,282.931 C365.47,251.822 319.744,251.734 311.461,242.16 L313.918,241.826 C332.539,239.273 355.206,234.386 371.238,229.811 C371.914,248.757 373.431,267.785 374.453,274.786 C377.003,292.285 387.138,305.972 407.398,303.197 C420.568,301.394 427.63,291.313 430.49,283.597 C438.9,289.799 449.467,292.316 460.482,290.765 C463.542,290.335 466.39,289.58 469.043,288.55 C467.668,290.602 466.707,292.803 466.427,295.072 C465.101,305.341 470.437,341.278 474.194,364.591 C473.292,367.608 472.222,370.6 468.845,371.253 M299.437,408.718 C296.187,409.3 289.307,406.337 284.706,382.397 C282.405,370.429 282.836,352.975 291.778,351.378 C295.029,350.794 296.101,352.001 296.509,354.124 C297.066,357.02 296.017,361.401 296.537,364.102 C297.168,367.388 299.165,369.026 303.026,368.335 C304.086,377.132 305.259,386.509 306.595,393.458 C306.817,394.616 307.041,395.774 307.67,396.86 C306.97,401.979 305.329,407.663 299.437,408.718 M248.412,257.22 C251.674,256.701 252.723,257.926 253.086,260.057 C253.582,262.965 252.439,267.325 252.901,270.037 C253.461,273.33 255.422,275.01 259.298,274.392 C260.171,283.209 261.144,292.606 262.332,299.58 C262.531,300.745 262.729,301.907 263.335,303.003 C262.527,308.107 260.766,313.762 254.853,314.702 C251.589,315.221 244.779,312.127 240.684,288.1 C238.638,276.087 239.439,258.649 248.412,257.22 M445.605,215.27 C450.31,214.609 453.142,219.568 453.843,224.23 C455.3,233.948 448.08,241.514 439.752,247.25 C439.373,246.112 439.195,244.945 438.994,243.585 C436.865,229.401 438.856,216.222 445.605,215.27 M514.07,418.016 C512.933,411.034 509.471,405.2 503.5,368.54 C507.901,369.856 512.614,370.53 517.511,369.784 C541.606,366.112 548.977,335.569 544.904,310.548 C542.938,298.48 538.639,286.625 531.718,279.709 C534.715,279.953 537.972,279.855 541.477,279.362 C562.955,276.337 568.103,256.364 567.313,251.116 C566.849,248.009 564.544,245.158 561.475,245.589 C555.543,246.425 558.052,257.579 548.642,258.906 C544.142,259.539 536.02,258.301 533.833,243.726 C530.249,219.824 545.42,203.994 544.308,196.611 C543,187.865 536.779,179.813 531.867,180.503 C525.732,181.368 519.767,195.898 503.402,202.372 C503.377,196.618 502.88,191.928 502.472,189.206 C501.19,180.657 498.562,175.668 491.606,176.648 C483.426,177.801 471.5,192.971 473.424,205.797 C474.648,213.962 480.081,220.933 490.161,221.301 C488.722,245.118 481.175,269.993 465.425,272.21 C458.064,273.245 450.087,271.592 443.896,259.563 C458.157,252.993 476.045,237.18 473.071,217.357 C471.205,204.921 461.682,194.354 445.73,196.601 C423.64,199.71 408.964,224.398 413.191,252.577 C414.498,261.284 417.45,268.609 421.583,274.464 C420.044,277.97 418.521,282.237 412.806,283.021 C407.689,283.721 402.896,278.03 399.979,258.003 C398.788,249.837 398.009,234.473 397.64,219.055 C405.834,216.544 411.132,214.232 413.924,210.479 C415.513,208.476 417.716,199.25 417.005,194.389 C416.722,192.444 415.566,190.224 413.315,190.532 C409.015,191.119 402.828,195.935 397.531,198.245 C397.297,185.187 397.227,174.687 396.859,172.16 C396.065,166.715 391.634,164.941 388.359,165.389 C382.218,166.23 372.98,174.437 370.64,181.302 C369.751,183.803 369.962,195.278 370.541,209.279 C324.644,228.058 290.853,218.207 294.566,243.68 C297.173,261.568 343.116,271.74 345.611,288.85 C346.348,293.907 343.525,297.465 337.796,298.25 C327.358,299.679 321.628,287.573 319.796,279.296 C318.593,273.907 316.883,270.77 312.995,271.302 C307.469,272.058 296.345,283.102 298.019,294.574 C298.395,297.156 299.578,299.716 301.415,302.103 C301.211,303.61 300.582,304.62 299.035,304.866 C294.752,305.548 290.882,302.401 287.482,282.445 C284.084,262.489 286.468,246.983 285.378,240.589 C284.456,235.164 279.777,233.52 276.718,234.007 C272.435,234.689 266.878,238.957 263.254,243.514 C260.793,240.125 256.119,237.286 246.33,238.845 C230.83,241.311 209.686,258.606 216.518,298.712 C217.476,304.336 219.355,310.566 222.219,316.247 C215.852,318.206 207.514,322.07 178.512,330.507 L153.988,337.97 C151.894,326.953 147.439,303.705 145.298,285.074 L144.787,282.634 C151.631,281.259 158.179,279.522 163.916,278.161 C195.885,270.056 207.142,266.318 210.351,262.495 C213.902,258.184 218.953,246.159 217.625,239.859 C216.64,235.189 212.275,234.577 208.424,235.351 C199.714,237.101 191.998,241.743 160.704,253.391 L141.873,260.343 C139.131,238.867 137.634,223.288 136.05,212.588 C145.037,207.61 155.951,202.246 170.673,195.904 C195.239,185.473 223.914,179.722 222.373,172.407 C221.217,166.921 214.113,166.016 201.273,168.591 C173.239,174.211 149.529,181.297 131.853,188.439 C129.16,185.171 124.665,183.952 121.667,184.555 C113.108,186.267 99.413,197.487 96.888,205.619 C96.292,207.008 96.161,208.517 96.162,210.634 C92.908,216.368 91.882,228.436 93.168,234.531 C93.681,236.97 94.58,238.061 95.65,237.847 C96.933,237.588 98.216,237.33 99.461,236.871 C101.342,246.871 103.739,259.308 106.093,274.721 C97.835,278.917 97.064,281.614 97.878,285.474 C98.349,287.708 102.287,288.402 108.066,288.303 C113.502,322.58 114.959,344.311 117.527,356.505 C119.368,365.241 121.421,368.643 126.556,367.614 C139.212,365.075 180.326,356.727 206.136,349.776 C193.16,361.54 184.355,382.05 187.818,405.831 C192.818,440.204 218.877,448.741 239.089,445.979 C259.534,443.184 269.66,429.292 273.026,419.878 C278.878,426.362 286.741,430.358 296.735,428.571 C304.662,427.153 312.162,422.417 316.869,415.184 C321.845,420.286 329.251,422.757 338.401,421.118 C346.654,419.641 351.878,415.091 355.076,409.977 C356.132,411.587 357.524,412.339 359.455,411.966 C378.306,408.335 380.237,399.348 379.157,394.153 C372.761,363.348 374.9,338.108 383.209,336.505 C387.669,335.645 389.967,339.608 391.327,346.151 C394.764,362.71 392.451,378.975 395.689,394.569 C397.007,400.923 398.983,404.347 402.224,403.722 C421.28,400.048 423.207,391.065 422.128,385.866 C415.732,355.063 415.236,330.329 423.544,328.728 C426.99,328.063 428.925,331.294 429.963,336.302 C431.763,344.966 431.282,358.874 433.32,368.69 C436.919,386.018 448.24,394.848 464.455,391.723 C470.28,390.6 474.565,387.973 477.686,384.727 C479.031,391.796 480.493,398.714 482.031,404.837 C477.035,404.206 472.004,403.831 467.054,403.518 C460.412,403.098 453.752,402.958 447.096,403.028 C441.097,403.093 435.216,403.268 429.337,404.479 C405.9,409.313 382.628,414.968 359.386,420.655 C336.419,426.272 313.412,431.805 290.529,437.757 C280.785,440.29 271.33,443.563 261.862,446.956 C254.413,449.626 246.905,451.548 239.034,452.472 C233.003,453.179 226.921,453.432 220.855,453.577 C213.9,453.743 207.421,452.692 200.833,450.45 C194.224,448.202 187.95,445.024 181.832,441.694 C179.344,440.341 176.834,438.458 174.133,437.585 C171.886,436.858 169.427,437.763 167.447,438.802 C163.272,440.987 159.843,444.888 157.221,448.727 C154.802,452.27 154.362,456.413 155.191,460.552 C156.281,466.003 160.207,470.675 164.154,474.358 C168.212,478.145 172.927,480.991 178.132,482.88 C188.859,486.768 200.978,487.552 212.291,486.96 C226.373,486.222 240.09,481.86 253.382,477.45 C260.457,475.104 267.495,472.649 274.615,470.446 C281.865,468.202 289.248,466.413 296.578,464.456 C311.004,460.606 325.382,456.577 339.741,452.481 C353.868,448.456 367.976,444.368 382.104,440.348 C396.752,436.182 411.425,431.458 426.436,428.788 C440.976,426.202 455.812,425.729 470.538,426.483 C478.101,426.872 485.644,427.632 493.157,428.579 C496.861,429.046 500.556,429.579 504.248,430.141 C506.958,430.554 509.55,430.987 511.936,429.347 C514.991,427.243 515.051,422.257 514.101,418.837 C514.124,418.569 514.116,418.296 514.07,418.016" fill="#FFFFFF"/>
    <path d="M521.01,379.829 C520.5,376.761 521.235,375.565 520.969,373.96 C520.783,372.845 519.877,372.565 518.901,372.725 C516.04,373.202 510.605,381.913 511.519,387.421 C511.958,390.071 513.271,390.642 515.154,390.331 C517.526,389.938 522.583,387.595 521.831,383.061 C521.612,381.735 521.149,380.667 521.01,379.829" fill="#FFFFFF"/>
    <path d="M548.397,412.77 C546.385,400.633 543.517,372.086 543.239,370.411 C542.928,368.529 540.835,368.014 540.07,368.143 C538.605,368.385 537.149,370.848 532.602,374.969 C527.159,379.741 522.45,380.737 522.739,382.481 C522.982,383.947 526,387.458 528.51,387.042 C530.325,386.741 532.382,384.465 534.245,381.865 C535.088,388.245 537.325,407.366 538.005,413.632 C536.808,413.758 535.692,413.943 534.855,414.081 C533.46,414.313 532.567,414.533 532.227,414.659 C531.112,415.276 529.143,419.4 529.41,421.004 C529.617,422.258 530.583,422.458 531.489,422.307 C532.605,422.122 538.209,420.047 544.01,418.727 C551.542,417.047 559.376,415.893 559.031,413.799 C558.856,412.754 553.882,412.576 548.397,412.77" fill="#FFFFFF"/>
    <path d="M588.9,388.644 C588.796,388.015 588.658,387.609 588.342,387.447 C588.088,387.201 587.866,387.165 587.518,387.224 C586.052,387.466 583.947,390.324 578.449,391.306 C578.117,385.843 578.271,382.021 578.109,381.044 C577.901,379.789 577.099,379.277 576.124,379.437 C574.799,379.658 572.749,385.445 571.15,392.23 C569.046,392.507 568.338,392.554 565.128,393.083 C564.64,393.165 563.394,393.445 563.394,393.445 C568.029,384.65 572.504,371.009 571.569,365.359 C571.281,363.617 570.306,362.058 568.631,362.335 C566.888,362.624 561.515,366.095 560.467,368.419 C559.07,371.23 560.847,384.55 556.025,396.099 C552.28,398.582 552.151,400.394 552.301,401.302 C552.509,402.558 553.635,403.302 555.729,402.955 C556.915,402.759 558.309,401.667 559.706,400.146 C562.158,400.242 565.609,400.744 569.573,400.876 C569.163,404.886 569.007,408.708 569.446,411.359 C569.886,414.009 570.954,415.695 572.767,415.396 C576.114,414.841 581.232,410.265 580.875,408.103 C580.47,405.662 579.97,403.953 579.659,402.07 L579.405,400.537 C580.045,400.501 580.603,400.41 581.3,400.294 C586.74,399.392 589.421,391.783 588.9,388.644" fill="#FFFFFF"/>
  </g>
  <defs/>
</svg>
