<?xml version="1.0" encoding="UTF-8"?>
<!DOCTYPE svg PUBLIC "-//W3C//DTD SVG 1.1//EN" "http://www.w3.org/Graphics/SVG/1.1/DTD/svg11.dtd">
<svg version="1.1" xmlns="http://www.w3.org/2000/svg" xmlns:xlink="http://www.w3.org/1999/xlink" x="0px" y="0px" width="160" height="34" viewBox="0, 0, 160, 34">
  <g id="Layer 1">
    <path d="M122.456,12.732 C122.456,12.732 117.551,29.59 130.344,29.064" fill-opacity="0" stroke="#FFFFFF" stroke-width="1.2" stroke-linejoin="round"/>
    <path d="M124.108,30.192 L130.235,27.255 L134.191,28.453 L129.52,31.951 L124.108,30.192 z" fill="#53458C"/>
    <path d="M130.413,26.604 L135.891,28.106 L130.182,33.122 L122.046,30.487 z M132.317,29.149 L128.669,31.674 L129.52,31.951 L132.989,29.353 z M128.354,30.38 L127.075,31.156 L127.848,31.407 L129.12,30.609 z M126.902,29.945 L125.572,30.667 L126.33,30.914 L127.654,30.17 z M125.5,29.525 L124.108,30.192 L124.834,30.427 L126.19,29.732 z M129.77,29.521 L128.832,30.09 L129.589,30.314 L130.501,29.742 z M128.429,29.116 L127.413,29.668 L128.155,29.888 L129.145,29.332 z M131.027,28.758 L130.218,29.249 L130.939,29.467 L131.729,28.971 z M127.157,28.731 L126.048,29.262 L126.717,29.461 L127.775,28.918 z M133.587,28.27 L132.693,28.889 L133.345,29.087 L134.191,28.453 z M129.783,28.38 L128.913,28.853 L129.617,29.066 L130.467,28.588 z M132.416,27.916 L131.437,28.509 L132.131,28.719 L133.087,28.119 z M128.622,28.028 L127.681,28.479 L128.278,28.66 L129.179,28.197 z M131.275,27.57 L130.223,28.142 L130.898,28.346 L131.927,27.768 z M130.235,27.255 L129.097,27.801 L129.635,27.963 L130.726,27.404 z" fill="#FFFFFF"/>
    <g>
      <path d="M12.969,30.377 L19.049,30.377 L12.504,17.366 L18.816,9.389 L12.233,9.389 L6.773,16.514 L6.773,1.567 L1.12,1.567 L1.12,30.377 L6.773,30.377 L6.773,23.91 L8.671,21.703 z" fill="#FFFFFF"/>
      <path d="M20.985,6.523 L26.561,6.523 L26.561,1.18 L20.985,1.18 z M20.985,30.377 L26.638,30.377 L26.638,9.389 L20.985,9.389 z" fill="#FFFFFF"/>
      <path d="M49.795,30.377 L55.139,9.389 L49.717,9.389 L47.162,20.58 L44.683,9.389 L39.533,9.389 L36.939,20.619 L34.499,9.389 L29.039,9.389 L34.422,30.377 L39.456,30.377 L42.089,19.07 L44.761,30.377 z" fill="#FFFFFF"/>
      <path d="M57.578,6.523 L63.154,6.523 L63.154,1.18 L57.578,1.18 z M57.578,30.377 L63.232,30.377 L63.232,9.389 L57.578,9.389 z" fill="#FFFFFF"/>
      <path d="M80.386,30.377 L85.304,30.377 L85.304,1.567 L79.612,1.567 L79.612,10.705 Q78.682,9.931 77.463,9.466 Q76.243,9.002 75.042,9.002 Q71.402,9.002 68.963,12.022 Q66.601,15.004 66.601,19.379 Q66.601,24.53 68.808,27.589 Q71.054,30.764 75.081,30.764 Q76.591,30.764 77.83,30.203 Q79.07,29.641 80.193,28.673 z M79.612,15.197 L79.612,24.491 Q78.837,25.188 78.14,25.614 Q77.443,26.04 76.359,26.04 Q75.081,26.04 74.287,25.459 Q73.493,24.878 73.029,23.988 Q72.564,23.097 72.409,21.993 Q72.254,20.89 72.254,19.883 Q72.254,18.876 72.409,17.792 Q72.564,16.708 73.029,15.798 Q73.493,14.888 74.287,14.307 Q75.081,13.726 76.359,13.726 Q77.25,13.726 78.101,14.152 Q78.953,14.578 79.612,15.197 z" fill="#FFFFFF"/>
      <path d="M101.878,29.757 Q102.962,29.254 103.91,28.383 Q104.859,27.511 105.789,26.117 L101.606,23.484 Q100.755,24.607 99.767,25.323 Q98.78,26.04 97.308,26.04 Q96.146,26.04 95.449,25.614 Q94.752,25.188 94.346,24.491 Q93.939,23.794 93.765,22.903 Q93.591,22.013 93.475,21.083 L105.634,21.083 L105.634,18.373 Q105.634,16.32 104.917,14.655 Q104.201,12.99 103.039,11.674 Q100.638,9.002 96.96,9.002 Q94.559,9.002 92.836,9.892 Q91.112,10.783 89.989,12.274 Q88.867,13.765 88.344,15.739 Q87.821,17.714 87.821,19.883 Q87.821,22.013 88.344,23.968 Q88.867,25.924 89.951,27.434 Q91.035,28.944 92.739,29.854 Q94.443,30.764 96.805,30.764 Q99.825,30.764 101.878,29.757 z M99.36,14.423 Q100.212,15.391 100.329,16.979 L93.513,16.979 Q93.629,16.243 93.842,15.585 Q94.055,14.926 94.443,14.442 Q94.83,13.958 95.43,13.687 Q96.03,13.416 96.921,13.416 Q98.47,13.416 99.36,14.423 z" fill="#FFFFFF"/>
      <path d="M118.025,30.377 L124.066,9.389 L118.335,9.389 L115.237,21.819 L112.217,9.389 L106.524,9.389 L112.371,30.377 z" fill="#FFFFFF"/>
    </g>
    <path d="M146.291,9.585 C147.259,9.586 148.232,9.483 149.193,9.588 C152.669,9.965 156.07,11.639 157.963,14.653 C159.479,17.067 158.913,19.788 157.729,22.176 C157.047,23.289 156.01,23.785 155.392,24.491 C154.725,25.271 154.717,25.818 153.85,26.448 C153.457,27.666 153.277,28.959 153.546,30.216 C153.274,30.474 153.4,30.349 153.166,30.589 C153.061,31.164 152.765,31.662 152.427,32.126 C152.233,31.668 152.514,31.135 152.246,30.737 C151.786,30.724 151.488,31.468 150.457,32.158 C150.577,31.475 150.872,30.967 151.181,30.579 C150.831,30.423 150.41,30.473 148.925,31.203 C149.049,30.705 148.949,30.967 149.269,30.436 C150.085,29.839 151.522,29.745 152.037,28.764 C152.44,27.997 152.495,27.119 152.56,26.28 C152.038,26.101 151.951,25.485 151.589,25.126 C151.435,25.016 150.999,24.808 150.374,25.103 C149.635,25.539 150.043,25.313 149.145,25.768 C148.802,26.849 148.47,27.914 148.955,28.972 C148.462,29.546 148.134,30.272 147.89,30.616 C147.641,29.796 148.009,29.192 147.274,29.539 L145.008,30.524 C145.361,30.198 145.662,29.826 145.971,29.46 L145.91,29.181 C144.812,29.313 145.353,29.207 144.285,29.498 C144.445,29.028 144.325,29.264 144.678,28.807 C145.477,28.641 146.278,28.543 147.078,28.367 L147.733,27.691 C148.053,26.063 147.985,26.761 148.044,25.612 C147.433,24.966 147.562,23.918 147.514,23.093 C147.467,20.611 144.934,18.242 139.843,19.377 C136.517,20.387 134.104,24.711 133.842,27.295 C133.741,27.247 133.745,27.312 133.718,27.124 C133.416,24.996 136.061,20.557 136.174,18.361 C136.301,17.255 136.295,16.135 136.744,15.098 C137.175,14.101 138.42,13.149 139.174,12.598 C140.92,11.321 142.811,10.418 144.885,9.835 z" fill="#FFFFFF"/>
  </g>
  <defs/>
</svg>
