<?xml version="1.0" encoding="UTF-8"?>
<!DOCTYPE svg PUBLIC "-//W3C//DTD SVG 1.1//EN" "http://www.w3.org/Graphics/SVG/1.1/DTD/svg11.dtd">
<svg version="1.1" xmlns="http://www.w3.org/2000/svg" xmlns:xlink="http://www.w3.org/1999/xlink" x="0px" y="0px" width="2000" height="100" viewBox="0, 0, 2000, 100">
  <g id="Background">
    <rect x="0" y="0" width="2000" height="100" fill="#FFFFFF"/>
  </g>
  <g id="Layer 1">
    <path d="M-50.293,-124.852 L-119.096,137.922 L2018.16,134.27 L2017.742,-161.234 z" fill="#694D9C"/>
    <path d="M627.723,58.805 L599.154,57.677 L619.205,21.018 z" fill="#694D9C"/>
    <path d="M599.872,56.987 L581.368,33.851 L619.205,21.018 z" fill="#594598"/>
    <path d="M156.151,42.489 L156.151,63.15 L171.046,66.003 L173.986,40.449 z" fill="#694D9C"/>
    <path d="M230.563,106.705 L229.936,34.678 L254.228,101.329 z" fill="#7958A2"/>
    <path d="M278.403,93.418 L254.02,101.101 L264.924,134.011 z" fill="#544495"/>
    <path d="M456.031,154.551 L491.111,154.779 L476.897,162.687 z" fill="#8A64A9"/>
    <path d="M881.403,18.717 L913.408,77.131 L942.885,83.195 z" fill="#B94295"/>
    <path d="M941.974,83.195 L960.462,9.484 L925.887,-16.547 z" fill="#B94295"/>
    <path d="M572.075,122.453 L553.588,122.373 L568.783,165.071 L572.075,160.555 z" fill="#8166AA"/>
    <path d="M192.251,-2.469 L201.855,38.079 L208.241,-2.469 z" fill="#524497"/>
    <path d="M238.214,-2.469 L200.905,37.453 L229.936,34.678 L249.071,-2.469 z" fill="#544497"/>
    <path d="M208.142,-2.469 L201.855,37.048 L238.374,-2.469 z" fill="#4D4195"/>
    <path d="M171.944,39.532 L229.935,34.677 L190.499,55.39 z" fill="#694D9C"/>
    <path d="M229.936,34.677 L196.867,71.032 L230.469,75.122 z" fill="#694D9C"/>
    <path d="M504.455,92.732 L520.45,71.835 L459.87,71.553 z" fill="#866CAE"/>
    <path d="M444.065,40.392 L475.959,27.527 L520.771,53.837 z" fill="#CB4698"/>
    <path d="M553.588,64.551 L559.276,101.758 L541.713,122.119 z" fill="#744B9B"/>
    <path d="M553.588,67.129 L537.895,43.301 L533.474,78.65 z" fill="#866CAE"/>
    <path d="M537.769,-2.469 L519.253,-2.469 L515.829,12.389 L545.518,11.228 z" fill="#7857A2"/>
    <path d="M394.564,-2.469 L417.002,10.415 L426.876,-2.469 z" fill="#9B69AA"/>
    <path d="M743.709,71.639 L698.042,87.218 L734.959,101.758 L758.825,101.758 z" fill="#7468AD"/>
    <path d="M292.388,-2.469 L288.771,36.471 L299.982,-2.469 z" fill="#754D9C"/>
    <path d="M230.7,106.559 L230.571,75.019 L196.282,70.618 z" fill="#9B69AA"/>
    <path d="M192.31,93.762 L184.572,128.921 L169.259,75.174 z" fill="#B468A6"/>
    <path d="M666.586,43.128 L619.205,21.181 L633.445,-14.442 z" fill="#7958A2"/>
    <path d="M599.872,56.987 L617.677,99.085 L627.184,58.412 z" fill="#7F4E9D"/>
    <path d="M759.066,40.109 L726.892,53.988 L715.843,42.101 z" fill="#B56BAA"/>
    <path d="M716.24,41.881 L666.586,43.128 L699.431,87.219 z" fill="#B763A5"/>
    <path d="M758.02,40.444 L756.611,-5.083 L810.162,-9.022 z" fill="#BF4A99"/>
    <path d="M305.001,28.478 L369.196,35.222 L362.224,2.355 z" fill="#7458A2"/>
    <path d="M428.995,-2.469 L425.544,-2.469 L400.179,24.96 L444.065,40.393 z" fill="#7957A2"/>
    <path d="M395.57,-2.469 L387.751,-2.469 L400.257,24.923 L417.002,6.804 z" fill="#754D9C"/>
    <path d="M387.748,-2.469 L384.149,-2.469 L369.196,35.202 L400.256,24.923 z" fill="#9B69AA"/>
    <path d="M273.297,-2.469 L259.557,-2.469 L253.083,55.555 L288.923,35.542 z" fill="#594598"/>
    <path d="M273.288,-2.469 L288.929,35.565 L292.461,-2.469 z" fill="#544497"/>
    <path d="M248.966,-2.469 L229.936,34.678 L253.193,55.555 L259.554,-2.469 z" fill="#694D9C"/>
    <path d="M192.367,-2.469 L165.527,-2.469 L201.855,37.048 z" fill="#694D9C"/>
    <path d="M322.24,-2.469 L288.981,35.56 L376.184,-2.469 z" fill="#9B69AA"/>
    <path d="M376.207,-2.469 L362.122,3.689 L369.196,35.223 L384.175,-2.469 z" fill="#744B9B"/>
    <path d="M299.722,-2.469 L288.984,35.569 L322.223,-2.469 z" fill="#7458A2"/>
    <path d="M428.995,-2.469 L444.065,40.393 L476.129,-2.469 z" fill="#B64296"/>
    <path d="M537.249,-2.469 L543.92,9.803 L553.507,-2.469 z" fill="#9378B4"/>
    <path d="M839.765,76.008 L773.724,83.139 L781.544,50.577 z" fill="#CB4698"/>
    <path d="M835.977,16.534 L789.947,9.691 L824.612,-22.424 z" fill="#E470AA"/>
    <path d="M699.487,87.219 L666.587,43.128 L627.184,58.412 z" fill="#C3A2CB"/>
    <path d="M666.586,43.128 L638.472,30.063 L627.184,58.412 z" fill="#9B69AA"/>
    <path d="M715.955,42.129 L699.414,87.219 L743.708,72.093 z" fill="#AA69AA"/>
    <path d="M726.889,53.945 L743.708,72.258 L758.023,40.349 z" fill="#E36FA9"/>
    <path d="M773.724,83.139 L743.71,72.224 L758.023,40.349 z" fill="#CD5FA3"/>
    <path d="M666.586,43.16 L712.208,13.936 L715.955,42.105 z" fill="#CB61A3"/>
    <path d="M705.567,-25.532 L666.587,43.16 L712.413,13.936 z" fill="#B94295"/>
    <path d="M633.446,-14.328 L705.81,-25.532 L666.587,43.16 z" fill="#97529E"/>
    <path d="M619.29,21.018 L582.174,34.334 L605.845,-23.74 z" fill="#4D4195"/>
    <path d="M627.184,58.412 L638.614,30.063 L619.183,21.018 z" fill="#5A4699"/>
    <path d="M619.29,21.149 L633.446,-14.328 L605.803,-23.74 z" fill="#7958A2"/>
    <path d="M758.023,40.349 L737.513,16.963 L715.955,42.128 z" fill="#B963A4"/>
    <path d="M758.023,40.349 L756.611,-4.979 L737.438,16.837 z" fill="#C64C9A"/>
    <path d="M881.403,18.717 L854.868,82.726 L888.971,101.758 L889.941,101.758 z" fill="#B763A5"/>
    <path d="M881.403,18.717 L844.521,-28.605 L872.017,-36.726 z" fill="#A54C9A"/>
    <path d="M854.862,82.75 L881.403,18.717 L844.521,-28.605 z" fill="#C54F9B"/>
    <path d="M881.403,18.717 L889.932,101.758 L890.535,101.758 L913.856,77.135 z" fill="#C64C9A"/>
    <path d="M881.403,18.717 L871.956,-36.719 L925.887,-16.546 z" fill="#AA80B7"/>
    <path d="M941.974,82.562 L881.403,18.73 L925.887,-16.546 z" fill="#B23E94"/>
    <path d="M959.884,9.484 L925.887,-16.547 L984.707,-26.686 z" fill="#C74195"/>
    <path d="M568.783,164.591 L509.962,174.731 L476.396,162.182 z" fill="#BD94C3"/>
    <path d="M781.669,50.66 L773.724,83.139 L758.02,40.349 z" fill="#B64296"/>
    <path d="M854.868,82.685 L790.459,9.35 L835.99,15.82 z" fill="#D7549D"/>
    <path d="M854.868,82.745 L844.59,-28.605 L824.533,-22.424 z" fill="#BE58A0"/>
    <path d="M217.521,176.949 L264.924,134.011 L289.886,165.745 z" fill="#9B69AA"/>
    <path d="M189.878,167.537 L171.944,125.758 L217.521,176.949 z" fill="#9B72B0"/>
    <path d="M217.467,136.875 L217.521,176.949 L171.944,125.758 z" fill="#9C75B2"/>
    <path d="M265.364,133.738 L217.439,136.871 L217.521,176.949 z" fill="#7E57A2"/>
    <path d="M289.695,165.698 L394.402,182.255 L340.574,186.298 z" fill="#E470AA"/>
    <path d="M337.246,173.15 L278.403,93.418 L289.695,165.745 z" fill="#A54B9A"/>
    <path d="M394.238,182.255 L363.847,133.557 L337.246,173.15 z" fill="#BF4A99"/>
    <path d="M363.847,133.581 L336.702,103.645 L337.246,173.15 z" fill="#B23E94"/>
    <path d="M336.702,103.668 L278.403,93.418 L337.246,173.15 z" fill="#9B69AA"/>
    <path d="M394.238,182.255 L408.737,168.852 L363.847,133.557 z" fill="#CB4698"/>
    <path d="M531.688,133.66 L487.54,100.924 L490.481,154.949 z" fill="#7958A2"/>
    <path d="M487.955,101.329 L541.713,122.12 L531.688,133.66 z" fill="#9A69AB"/>
    <path d="M487.955,101.329 L553.588,67.129 L541.713,122.12 z" fill="#7957A2"/>
    <path d="M518.048,52.711 L517.474,36.059 L475.918,27.527 z" fill="#DA72AA"/>
    <path d="M504.455,92.732 L459.87,71.553 L487.955,101.329 z" fill="#744D9B"/>
    <path d="M490.481,154.949 L487.952,101.329 L459.87,71.552 z" fill="#504497"/>
    <path d="M456.092,154.551 L456.092,124.752 L408.737,168.853 z" fill="#664E9D"/>
    <path d="M490.481,154.949 L455.905,124.045 L456.093,154.589 z" fill="#97529E"/>
    <path d="M459.87,71.552 L455.261,124.155 L490.481,154.948 z" fill="#754D9C"/>
    <path d="M432.191,67.129 L459.869,71.552 L444.065,40.393 z" fill="#7957A2"/>
    <path d="M400.179,24.923 L432.19,67.724 L444.548,40.393 z" fill="#754D9C"/>
    <path d="M459.87,71.552 L416.207,102.385 L432.139,67.129 z" fill="#6B73B4"/>
    <path d="M455.905,124.943 L416.206,102.385 L459.87,71.552 z" fill="#4D4195"/>
    <path d="M416.206,102.385 L408.737,168.853 L456.092,124.752 z" fill="#524497"/>
    <path d="M369.196,35.202 L432.191,67.129 L400.179,24.923 z" fill="#866CAE"/>
    <path d="M416.206,102.385 L399.806,50.691 L432.191,67.129 z" fill="#6B6DAF"/>
    <path d="M407.503,74.968 L369.196,35.201 L399.806,50.69 z" fill="#664E9D"/>
    <path d="M416.206,102.385 L385.154,104.458 L407.504,74.968 z" fill="#6F75B5"/>
    <path d="M408.737,168.853 L385.154,104.458 L416.206,102.385 z" fill="#767BB9"/>
    <path d="M363.736,133.557 L385.154,104.459 L408.737,168.853 z" fill="#9B69AA"/>
    <path d="M336.702,103.645 L385.154,104.458 L363.81,133.558 z" fill="#B760A4"/>
    <path d="M407.503,74.968 L336.702,103.645 L385.154,104.458 z" fill="#97529E"/>
    <path d="M369.196,35.222 L360.269,94.03 L407.503,74.968 z" fill="#524497"/>
    <path d="M329.389,30.742 L360.269,94.03 L369.196,35.222 z" fill="#754D9C"/>
    <path d="M336.702,103.645 L334.454,75.677 L329.389,30.742 L360.269,94.03 z" fill="#9B69AA"/>
    <path d="M303.397,98.049 L334.503,76.451 L336.702,103.645 z" fill="#754D9C"/>
    <path d="M278.403,93.418 L303.105,83.197 L303.398,98.049 z" fill="#918DC3"/>
    <path d="M303.106,83.197 L329.389,30.742 L334.544,76.451 z" fill="#664E9D"/>
    <path d="M288.98,35.56 L329.389,30.825 L305.311,28.434 z" fill="#594598"/>
    <path d="M303.107,83.197 L288.923,35.56 L329.389,30.742 z" fill="#744B9B"/>
    <path d="M253.083,55.555 L303.106,83.197 L288.923,35.56 z" fill="#866CAE"/>
    <path d="M278.403,93.418 L253.082,55.555 L303.105,83.202 z" fill="#7458A2"/>
    <path d="M264.924,134.039 L278.403,93.417 L289.695,165.745 z" fill="#7E57A2"/>
    <path d="M217.439,136.875 L230.699,106.558 L264.924,134.011 z" fill="#694D9C"/>
    <path d="M230.7,106.559 L254.229,101.329 L264.924,134.011 z" fill="#7958A2"/>
    <path d="M253.083,55.431 L254.091,101.329 L278.403,93.418 z" fill="#9B69AA"/>
    <path d="M229.936,34.677 L254.229,101.329 L253.25,55.555 z" fill="#9B69AA"/>
    <path d="M217.439,136.884 L196.867,70.949 L230.699,106.559 z" fill="#97529E"/>
    <path d="M156.151,63.177 L156.151,64.706 L192.147,93.618 L196.868,70.618 z" fill="#7E57A2"/>
    <path d="M170.283,66.003 L229.935,34.678 L196.868,71.031 z" fill="#97529E"/>
    <path d="M177.53,138.689 L156.151,153.887 L156.151,166.837 L189.878,167.537 z" fill="#B468A8"/>
    <path d="M627.184,58.412 L617.052,101.759 L618.28,101.759 L674.909,77.41 z" fill="#6C6CAF"/>
    <path d="M586.658,23.416 L578.531,-24.396 L605.901,-23.739 z" fill="#694D9C"/>
    <path d="M854.868,82.685 L758.023,40.439 L790.612,9.35 z" fill="#B64296"/>
    <path d="M756.611,-4.979 L705.621,-25.579 L715.955,42.129 z" fill="#A54B9A"/>
    <path d="M184.572,128.859 L196.867,70.949 L217.439,136.884 z" fill="#B859A0"/>
    <path d="M303.106,83.197 L303.397,98.049 L334.708,76.451 z" fill="#97529E"/>
    <path d="M165.562,-2.469 L156.151,-2.469 L156.151,20.678 L166.885,-1.036 z" fill="#5A4699"/>
    <path d="M166.884,-1.077 L156.151,20.485 L156.151,42.822 L201.855,37.048 z" fill="#7958A2"/>
    <path d="M170.283,66.003 L173.07,40.346 L190.652,55.39 z" fill="#7958A2"/>
    <path d="M169.26,75.174 L156.151,86.829 L156.151,121.807 L184.572,128.921 z" fill="#CC6AA8"/>
    <path d="M156.151,64.616 L156.151,86.865 L169.26,75.174 z" fill="#8A63A7"/>
    <path d="M171.944,125.757 L156.151,142.718 L156.151,154.05 L177.653,138.689 z" fill="#C43B93"/>
    <path d="M156.151,121.764 L156.151,143.117 L171.944,125.757 z" fill="#B14095"/>
    <path d="M599.872,56.987 L592.255,101.759 L617.147,101.759 L617.677,99.086 z" fill="#7A58A1"/>
    <path d="M674.909,77.41 L618.236,101.759 L736.244,101.759 z" fill="#5E64AB"/>
    <path d="M743.528,72.052 L758.707,101.759 L764.799,101.759 L773.724,83.138 z" fill="#BE6EAB"/>
    <path d="M773.724,83.138 L764.446,101.759 L819.137,101.759 L839.7,75.967 z" fill="#DA72AA"/>
    <path d="M839.7,75.967 L818.831,101.758 L825.657,101.758 L854.868,82.685 z" fill="#BF6EAA"/>
    <path d="M854.868,82.562 L825.589,101.759 L889.006,101.759 z" fill="#7369AC"/>
    <path d="M988,91.445 L913.856,77.101 L890.512,101.759 L896.429,101.759 L988,92.66 z" fill="#B763A5"/>
    <path d="M2271.999,-78.05 L2263.515,-66.199 L2271.999,32.586 z" fill="#D270AB"/>
    <path d="M572.075,88.4 L553.588,122.373 L572.075,123.444 z" fill="#6B8EC6"/>
    <path d="M582.174,34.334 L543.919,9.804 L559.277,101.759 L572.075,87.003 z" fill="#7957A2"/>
    <path d="M572.075,-2.469 L553.544,-2.469 L543.919,9.803 L582.174,34.334 z" fill="#464095"/>
    <path d="M511.225,-2.469 L516.691,11.228 L519.633,-2.469 z" fill="#554498"/>
    <path d="M516.609,11.228 L553.588,67.129 L543.92,9.803 z" fill="#6B8EC6"/>
    <path d="M481.396,-2.469 L476.099,-2.469 L444.065,40.393 L516.691,11.162 z" fill="#D7549D"/>
    <path d="M511.21,-2.469 L481.337,-2.469 L516.691,11.162 z" fill="#B64296"/>
    <path d="M475.918,27.527 L518.49,36.426 L516.691,11.162 z" fill="#BE58A0"/>
    <path d="M572.075,85.6 L530.673,134.829 L552.869,123.764 L572.075,89.656 z" fill="#8F6EAF"/>
    <path d="M568.783,164.591 L553.588,122.373 L476.396,162.182 z" fill="#9B69AA"/>
    <path d="M518.048,52.711 L519.049,72.305 L458.901,71.552 z" fill="#7458A2"/>
    <path d="M518.58,73.927 L516.61,11.162 L537.895,43.301 z" fill="#866CAE"/>
    <path d="M534.497,77.067 L537.895,43.302 L504.455,92.732 z" fill="#9B69AA"/>
    <path d="M444.065,40.403 L459.87,71.552 L518.047,52.711 z" fill="#A54B9A"/>
    <path d="M582.174,34.334 L553.588,67.129 L572.075,63.139 L599.872,56.987 z" fill="#4D4195"/>
    <path d="M553.588,67.129 L592.255,101.759 L592.447,101.759 L599.872,56.987 z" fill="#7B8AC4"/>
    <path d="M1459.572,60.557 L1431.002,59.43 L1451.054,22.77 z" fill="#694D9C"/>
    <path d="M1431.72,58.74 L1413.217,35.603 L1451.054,22.77 z" fill="#594598"/>
    <path d="M988,44.241 L988,64.902 L1002.895,67.756 L1005.835,42.201 z" fill="#694D9C"/>
    <path d="M1062.412,108.457 L1061.785,36.43 L1086.076,103.081 z" fill="#7958A2"/>
    <path d="M1110.251,95.17 L1085.869,102.853 L1096.772,135.763 z" fill="#544495"/>
    <path d="M1287.88,156.303 L1322.96,156.531 L1308.746,164.439 z" fill="#8A64A9"/>
    <path d="M1819.849,35.791 L1772.873,84.314 L1819.849,93.433 z" fill="#C964A4"/>
    <path d="M1713.252,20.469 L1745.256,78.883 L1774.734,84.947 z" fill="#B94295"/>
    <path d="M1773.823,84.947 L1792.31,11.236 L1757.736,-14.794 z" fill="#B94295"/>
    <path d="M1403.924,124.206 L1385.437,124.125 L1400.632,166.823 L1403.924,162.307 z" fill="#8166AA"/>
    <path d="M1024.1,-0.717 L1033.704,39.831 L1040.09,-0.717 z" fill="#524497"/>
    <path d="M1070.062,-0.717 L1032.754,39.205 L1061.785,36.43 L1080.919,-0.717 z" fill="#544497"/>
    <path d="M1039.991,-0.717 L1033.704,38.8 L1070.223,-0.717 z" fill="#4D4195"/>
    <path d="M1003.792,41.284 L1061.784,36.429 L1022.348,57.142 z" fill="#694D9C"/>
    <path d="M1061.785,36.43 L1028.716,72.784 L1062.318,76.874 z" fill="#694D9C"/>
    <path d="M1336.304,94.484 L1352.299,73.587 L1291.718,73.305 z" fill="#866CAE"/>
    <path d="M1275.914,42.144 L1307.807,29.279 L1352.62,55.589 z" fill="#CB4698"/>
    <path d="M1385.437,66.303 L1391.125,103.511 L1373.561,123.871 z" fill="#744B9B"/>
    <path d="M1385.437,68.881 L1369.744,45.053 L1365.323,80.402 z" fill="#866CAE"/>
    <path d="M1369.618,-0.717 L1351.101,-0.717 L1347.678,14.141 L1377.367,12.98 z" fill="#7857A2"/>
    <path d="M1226.412,-0.717 L1248.85,12.167 L1258.725,-0.717 z" fill="#9B69AA"/>
    <path d="M1819.849,94.108 L1726.067,103.511 L1819.849,103.511 z" fill="#B760A4"/>
    <path d="M1575.558,73.392 L1529.891,88.971 L1566.808,103.511 L1590.674,103.511 z" fill="#7468AD"/>
    <path d="M1124.237,-0.717 L1120.619,38.223 L1131.831,-0.717 z" fill="#754D9C"/>
    <path d="M1062.549,108.311 L1062.42,76.771 L1028.13,72.37 z" fill="#9B69AA"/>
    <path d="M1024.159,95.515 L1016.421,130.673 L1001.108,76.926 z" fill="#B468A6"/>
    <path d="M1498.435,44.88 L1451.054,22.933 L1465.294,-12.69 z" fill="#7958A2"/>
    <path d="M1431.72,58.74 L1449.526,100.838 L1459.033,60.165 z" fill="#7F4E9D"/>
    <path d="M1590.915,41.861 L1558.741,55.741 L1547.692,43.854 z" fill="#B56BAA"/>
    <path d="M1548.089,43.633 L1498.435,44.88 L1531.28,88.971 z" fill="#B763A5"/>
    <path d="M1589.869,42.196 L1588.46,-3.331 L1642.011,-7.27 z" fill="#BF4A99"/>
    <path d="M1136.849,30.23 L1201.044,36.975 L1194.073,4.107 z" fill="#7458A2"/>
    <path d="M1260.843,-0.717 L1257.392,-0.717 L1232.028,26.712 L1275.914,42.145 z" fill="#7957A2"/>
    <path d="M1227.418,-0.717 L1219.599,-0.717 L1232.106,26.675 L1248.851,8.556 z" fill="#754D9C"/>
    <path d="M1219.597,-0.717 L1215.998,-0.717 L1201.045,36.954 L1232.105,26.675 z" fill="#9B69AA"/>
    <path d="M1105.146,-0.717 L1091.406,-0.717 L1084.932,57.307 L1120.772,37.295 z" fill="#594598"/>
    <path d="M1105.137,-0.717 L1120.778,37.317 L1124.31,-0.717 z" fill="#544497"/>
    <path d="M1080.815,-0.717 L1061.785,36.43 L1085.041,57.307 L1091.403,-0.717 z" fill="#694D9C"/>
    <path d="M1024.216,-0.717 L997.376,-0.717 L1033.704,38.8 z" fill="#694D9C"/>
    <path d="M1154.089,-0.717 L1120.83,37.313 L1208.032,-0.717 z" fill="#9B69AA"/>
    <path d="M1208.056,-0.717 L1193.971,5.441 L1201.045,36.975 L1216.024,-0.717 z" fill="#744B9B"/>
    <path d="M1131.571,-0.717 L1120.833,37.321 L1154.071,-0.717 z" fill="#7458A2"/>
    <path d="M1260.843,-0.717 L1275.914,42.145 L1307.978,-0.717 z" fill="#B64296"/>
    <path d="M1369.098,-0.717 L1375.769,11.555 L1385.355,-0.717 z" fill="#9378B4"/>
    <path d="M1671.614,77.761 L1605.573,84.891 L1613.393,52.329 z" fill="#CB4698"/>
    <path d="M1667.826,18.286 L1621.796,11.443 L1656.461,-20.672 z" fill="#E470AA"/>
    <path d="M1531.335,88.971 L1498.436,44.88 L1459.033,60.164 z" fill="#C3A2CB"/>
    <path d="M1498.435,44.88 L1470.321,31.815 L1459.033,60.164 z" fill="#9B69AA"/>
    <path d="M1547.803,43.881 L1531.263,88.971 L1575.557,73.845 z" fill="#AA69AA"/>
    <path d="M1558.738,55.697 L1575.557,74.01 L1589.872,42.101 z" fill="#E36FA9"/>
    <path d="M1605.573,84.891 L1575.558,73.976 L1589.872,42.101 z" fill="#CD5FA3"/>
    <path d="M1498.435,44.912 L1544.057,15.688 L1547.803,43.857 z" fill="#CB61A3"/>
    <path d="M1537.416,-23.78 L1498.436,44.912 L1544.262,15.688 z" fill="#B94295"/>
    <path d="M1465.295,-12.576 L1537.659,-23.78 L1498.436,44.912 z" fill="#97529E"/>
    <path d="M1451.138,22.77 L1414.023,36.087 L1437.694,-21.987 z" fill="#4D4195"/>
    <path d="M1459.033,60.164 L1470.463,31.815 L1451.032,22.77 z" fill="#5A4699"/>
    <path d="M1451.138,22.901 L1465.295,-12.576 L1437.652,-21.988 z" fill="#7958A2"/>
    <path d="M1589.872,42.101 L1569.362,18.715 L1547.803,43.881 z" fill="#B963A4"/>
    <path d="M1589.872,42.101 L1588.46,-3.227 L1569.286,18.589 z" fill="#C64C9A"/>
    <path d="M1713.252,20.469 L1686.717,84.479 L1720.819,103.511 L1721.79,103.511 z" fill="#B763A5"/>
    <path d="M1713.252,20.469 L1676.37,-26.852 L1703.866,-34.974 z" fill="#A54C9A"/>
    <path d="M1686.711,84.502 L1713.252,20.469 L1676.37,-26.853 z" fill="#C54F9B"/>
    <path d="M1713.252,20.469 L1721.781,103.511 L1722.384,103.511 L1745.704,78.887 z" fill="#C64C9A"/>
    <path d="M1713.252,20.469 L1703.805,-34.966 L1757.736,-14.794 z" fill="#AA80B7"/>
    <path d="M1773.823,84.314 L1713.252,20.482 L1757.736,-14.794 z" fill="#B23E94"/>
    <path d="M1819.849,32.031 L1791.732,11.236 L1773.822,84.314 L1819.849,35.805 z" fill="#C64C9A"/>
    <path d="M1791.733,11.236 L1757.736,-14.794 L1816.556,-24.934 z" fill="#C74195"/>
    <path d="M1400.632,166.343 L1341.811,176.483 L1308.245,163.935 z" fill="#BD94C3"/>
    <path d="M1613.518,52.412 L1605.573,84.891 L1589.869,42.101 z" fill="#B64296"/>
    <path d="M1686.717,84.438 L1622.308,11.102 L1667.839,17.572 z" fill="#D7549D"/>
    <path d="M1686.717,84.497 L1676.438,-26.853 L1656.382,-20.672 z" fill="#BE58A0"/>
    <path d="M1819.849,10.857 L1816.556,-24.933 L1791.732,11.237 L1819.849,32.169 z" fill="#CC5CA1"/>
    <path d="M1049.37,178.701 L1096.772,135.763 L1121.735,167.497 z" fill="#9B69AA"/>
    <path d="M1021.727,169.289 L1003.792,127.51 L1049.37,178.701 z" fill="#9B72B0"/>
    <path d="M1049.316,138.628 L1049.37,178.701 L1003.793,127.51 z" fill="#9C75B2"/>
    <path d="M1097.212,135.49 L1049.288,138.623 L1049.37,178.701 z" fill="#7E57A2"/>
    <path d="M1121.544,167.45 L1226.251,184.007 L1172.423,188.05 z" fill="#E470AA"/>
    <path d="M1169.095,174.903 L1110.252,95.17 L1121.544,167.497 z" fill="#A54B9A"/>
    <path d="M1226.087,184.007 L1195.696,135.309 L1169.095,174.903 z" fill="#BF4A99"/>
    <path d="M1195.696,135.334 L1168.551,105.397 L1169.095,174.902 z" fill="#B23E94"/>
    <path d="M1168.551,105.42 L1110.252,95.17 L1169.095,174.903 z" fill="#9B69AA"/>
    <path d="M1226.087,184.007 L1240.585,170.605 L1195.696,135.309 z" fill="#CB4698"/>
    <path d="M1363.537,135.412 L1319.389,102.677 L1322.329,156.701 z" fill="#7958A2"/>
    <path d="M1319.804,103.081 L1373.561,123.872 L1363.537,135.412 z" fill="#9A69AB"/>
    <path d="M1319.804,103.081 L1385.437,68.881 L1373.561,123.872 z" fill="#7957A2"/>
    <path d="M1349.896,54.463 L1349.323,37.811 L1307.767,29.279 z" fill="#DA72AA"/>
    <path d="M1336.304,94.484 L1291.718,73.305 L1319.804,103.081 z" fill="#744D9B"/>
    <path d="M1322.33,156.701 L1319.8,103.081 L1291.719,73.304 z" fill="#504497"/>
    <path d="M1287.941,156.303 L1287.941,126.504 L1240.586,170.605 z" fill="#664E9D"/>
    <path d="M1322.329,156.701 L1287.753,125.797 L1287.942,156.341 z" fill="#97529E"/>
    <path d="M1291.718,73.304 L1287.109,125.907 L1322.329,156.701 z" fill="#754D9C"/>
    <path d="M1264.04,68.881 L1291.718,73.305 L1275.914,42.145 z" fill="#7957A2"/>
    <path d="M1232.028,26.675 L1264.039,69.476 L1276.396,42.145 z" fill="#754D9C"/>
    <path d="M1291.718,73.305 L1248.056,104.138 L1263.988,68.881 z" fill="#6B73B4"/>
    <path d="M1287.754,126.695 L1248.055,104.137 L1291.719,73.304 z" fill="#4D4195"/>
    <path d="M1248.055,104.137 L1240.585,170.605 L1287.941,126.504 z" fill="#524497"/>
    <path d="M1201.044,36.954 L1264.04,68.881 L1232.028,26.675 z" fill="#866CAE"/>
    <path d="M1248.055,104.137 L1231.655,52.443 L1264.039,68.881 z" fill="#6B6DAF"/>
    <path d="M1239.352,76.72 L1201.044,36.954 L1231.655,52.443 z" fill="#664E9D"/>
    <path d="M1248.055,104.137 L1217.003,106.21 L1239.352,76.72 z" fill="#6F75B5"/>
    <path d="M1240.585,170.605 L1217.003,106.211 L1248.055,104.137 z" fill="#767BB9"/>
    <path d="M1195.585,135.31 L1217.002,106.211 L1240.586,170.605 z" fill="#9B69AA"/>
    <path d="M1168.55,105.397 L1217.003,106.21 L1195.659,135.31 z" fill="#B760A4"/>
    <path d="M1239.352,76.72 L1168.551,105.397 L1217.003,106.211 z" fill="#97529E"/>
    <path d="M1201.044,36.974 L1192.118,95.783 L1239.352,76.72 z" fill="#524497"/>
    <path d="M1161.238,32.494 L1192.118,95.782 L1201.044,36.974 z" fill="#754D9C"/>
    <path d="M1168.551,105.397 L1166.303,77.429 L1161.238,32.494 L1192.118,95.783 z" fill="#9B69AA"/>
    <path d="M1135.246,99.801 L1166.351,78.204 L1168.551,105.397 z" fill="#754D9C"/>
    <path d="M1110.251,95.17 L1134.954,84.949 L1135.246,99.801 z" fill="#918DC3"/>
    <path d="M1134.955,84.949 L1161.237,32.494 L1166.393,78.204 z" fill="#664E9D"/>
    <path d="M1120.829,37.312 L1161.238,32.577 L1137.16,30.186 z" fill="#594598"/>
    <path d="M1134.955,84.949 L1120.772,37.312 L1161.238,32.494 z" fill="#744B9B"/>
    <path d="M1084.932,57.307 L1134.955,84.949 L1120.772,37.312 z" fill="#866CAE"/>
    <path d="M1110.252,95.17 L1084.931,57.307 L1134.954,84.954 z" fill="#7458A2"/>
    <path d="M1096.772,135.791 L1110.252,95.17 L1121.544,167.497 z" fill="#7E57A2"/>
    <path d="M1049.288,138.628 L1062.548,108.311 L1096.772,135.763 z" fill="#694D9C"/>
    <path d="M1062.549,108.311 L1086.077,103.081 L1096.773,135.763 z" fill="#7958A2"/>
    <path d="M1084.932,57.183 L1085.939,103.081 L1110.252,95.17 z" fill="#9B69AA"/>
    <path d="M1061.785,36.43 L1086.078,103.081 L1085.099,57.307 z" fill="#9B69AA"/>
    <path d="M1049.288,138.636 L1028.716,72.701 L1062.548,108.311 z" fill="#97529E"/>
    <path d="M988,64.929 L988,66.458 L1023.996,95.37 L1028.717,72.37 z" fill="#7E57A2"/>
    <path d="M1002.132,67.755 L1061.784,36.43 L1028.717,72.783 z" fill="#97529E"/>
    <path d="M1009.379,140.441 L988,155.639 L988,168.589 L1021.727,169.29 z" fill="#B468A8"/>
    <path d="M1459.033,60.164 L1448.901,103.511 L1450.129,103.511 L1506.758,79.162 z" fill="#6C6CAF"/>
    <path d="M1418.507,25.168 L1410.38,-22.644 L1437.75,-21.987 z" fill="#694D9C"/>
    <path d="M1686.717,84.438 L1589.872,42.191 L1622.461,11.102 z" fill="#B64296"/>
    <path d="M1588.46,-3.227 L1537.469,-23.827 L1547.803,43.881 z" fill="#A54B9A"/>
    <path d="M1016.421,130.611 L1028.716,72.701 L1049.288,138.636 z" fill="#B859A0"/>
    <path d="M1134.955,84.949 L1135.246,99.801 L1166.557,78.204 z" fill="#97529E"/>
    <path d="M997.411,-0.717 L988,-0.717 L988,22.43 L998.734,0.716 z" fill="#5A4699"/>
    <path d="M998.733,0.675 L988,22.237 L988,44.574 L1033.704,38.801 z" fill="#7958A2"/>
    <path d="M1002.132,67.755 L1004.919,42.098 L1022.501,57.142 z" fill="#7958A2"/>
    <path d="M1001.109,76.926 L988,88.581 L988,123.559 L1016.421,130.673 z" fill="#CC6AA8"/>
    <path d="M988,66.369 L988,88.617 L1001.109,76.926 z" fill="#8A63A7"/>
    <path d="M1003.792,127.51 L988,144.47 L988,155.802 L1009.502,140.441 z" fill="#C43B93"/>
    <path d="M988,123.516 L988,144.87 L1003.792,127.509 z" fill="#B14095"/>
    <path d="M1431.72,58.74 L1424.104,103.511 L1448.996,103.511 L1449.526,100.838 z" fill="#7A58A1"/>
    <path d="M1506.758,79.162 L1450.085,103.511 L1568.093,103.511 z" fill="#5E64AB"/>
    <path d="M1575.377,73.804 L1590.556,103.511 L1596.648,103.511 L1605.572,84.891 z" fill="#BE6EAB"/>
    <path d="M1605.572,84.891 L1596.295,103.511 L1650.985,103.511 L1671.549,77.719 z" fill="#DA72AA"/>
    <path d="M1671.549,77.719 L1650.68,103.511 L1657.506,103.511 L1686.717,84.437 z" fill="#BF6EAA"/>
    <path d="M1686.717,84.314 L1657.437,103.511 L1720.855,103.511 z" fill="#7369AC"/>
    <path d="M1819.849,93.197 L1745.704,78.853 L1722.361,103.511 L1728.278,103.511 L1819.849,94.413 z" fill="#B763A5"/>
    <path d="M1403.924,90.152 L1385.437,124.125 L1403.924,125.196 z" fill="#6B8EC6"/>
    <path d="M1414.023,36.087 L1375.768,11.556 L1391.126,103.511 L1403.924,88.756 z" fill="#7957A2"/>
    <path d="M1403.924,-0.717 L1385.393,-0.717 L1375.768,11.555 L1414.023,36.087 z" fill="#464095"/>
    <path d="M1343.074,-0.717 L1348.54,12.98 L1351.482,-0.717 z" fill="#554498"/>
    <path d="M1348.458,12.98 L1385.437,68.881 L1375.769,11.555 z" fill="#6B8EC6"/>
    <path d="M1313.245,-0.717 L1307.947,-0.717 L1275.914,42.145 L1348.539,12.914 z" fill="#D7549D"/>
    <path d="M1343.059,-0.717 L1313.186,-0.717 L1348.54,12.914 z" fill="#B64296"/>
    <path d="M1307.767,29.279 L1350.339,38.178 L1348.54,12.914 z" fill="#BE58A0"/>
    <path d="M1403.924,87.352 L1362.522,136.582 L1384.718,125.516 L1403.924,91.408 z" fill="#8F6EAF"/>
    <path d="M1400.632,166.343 L1385.437,124.125 L1308.245,163.935 z" fill="#9B69AA"/>
    <path d="M1349.896,54.463 L1350.898,74.057 L1290.75,73.304 z" fill="#7458A2"/>
    <path d="M1350.429,75.679 L1348.458,12.914 L1369.744,45.054 z" fill="#866CAE"/>
    <path d="M1366.346,78.819 L1369.744,45.054 L1336.304,94.484 z" fill="#9B69AA"/>
    <path d="M1275.914,42.155 L1291.718,73.304 L1349.896,54.463 z" fill="#A54B9A"/>
    <path d="M1414.023,36.087 L1385.437,68.881 L1403.924,64.891 L1431.72,58.739 z" fill="#4D4195"/>
    <path d="M1385.437,68.881 L1424.104,103.511 L1424.296,103.511 L1431.72,58.74 z" fill="#7B8AC4"/>
    <path d="M157.151,41.961 L157.151,62.7 L142.199,65.564 L139.247,39.912 z" fill="#694D9C"/>
    <path d="M82.455,106.421 L83.084,34.119 L58.7,101.024 z" fill="#7958A2"/>
    <path d="M34.433,93.083 L58.908,100.795 L47.963,133.831 z" fill="#544495"/>
    <path d="M120.913,-3.169 L111.273,37.533 L104.862,-3.169 z" fill="#524497"/>
    <path d="M74.775,-3.169 L112.226,36.905 L83.085,34.119 L63.877,-3.169 z" fill="#544497"/>
    <path d="M104.961,-3.169 L111.272,36.499 L74.614,-3.169 z" fill="#4D4195"/>
    <path d="M141.298,38.992 L83.086,34.119 L122.672,54.91 z" fill="#694D9C"/>
    <path d="M83.085,34.119 L116.279,70.612 L82.55,74.718 z" fill="#694D9C"/>
    <path d="M-82.171,-3.169 L-104.694,9.764 L-114.607,-3.169 z" fill="#9B69AA"/>
    <path d="M20.394,-3.169 L24.026,35.92 L12.771,-3.169 z" fill="#754D9C"/>
    <path d="M82.317,106.274 L82.447,74.615 L116.867,70.197 z" fill="#9B69AA"/>
    <path d="M120.854,93.429 L128.621,128.721 L143.992,74.77 z" fill="#B468A6"/>
    <path d="M7.734,27.896 L-56.706,34.666 L-49.708,1.674 z" fill="#7458A2"/>
    <path d="M-116.733,-3.169 L-113.269,-3.169 L-87.808,24.365 L-131.861,39.856 z" fill="#7957A2"/>
    <path d="M-83.181,-3.169 L-75.332,-3.169 L-87.886,24.328 L-104.695,6.14 z" fill="#754D9C"/>
    <path d="M-75.329,-3.169 L-71.717,-3.169 L-56.706,34.645 L-87.885,24.328 z" fill="#9B69AA"/>
    <path d="M39.558,-3.169 L53.35,-3.169 L59.849,55.076 L23.872,34.987 z" fill="#594598"/>
    <path d="M39.567,-3.169 L23.867,35.01 L20.321,-3.169 z" fill="#544497"/>
    <path d="M63.982,-3.169 L83.085,34.119 L59.739,55.076 L53.354,-3.169 z" fill="#694D9C"/>
    <path d="M120.797,-3.169 L147.739,-3.169 L111.272,36.499 z" fill="#694D9C"/>
    <path d="M-9.571,-3.169 L23.814,35.006 L-63.721,-3.169 z" fill="#9B69AA"/>
    <path d="M-63.745,-3.169 L-49.605,3.013 L-56.706,34.666 L-71.743,-3.169 z" fill="#744B9B"/>
    <path d="M13.032,-3.169 L23.811,35.014 L-9.554,-3.169 z" fill="#7458A2"/>
    <path d="M95.546,176.933 L47.963,133.831 L22.906,165.686 z" fill="#9B69AA"/>
    <path d="M123.295,167.485 L141.298,125.547 L95.546,176.933 z" fill="#9B72B0"/>
    <path d="M95.601,136.707 L95.546,176.933 L141.298,125.547 z" fill="#9C75B2"/>
    <path d="M47.522,133.557 L95.629,136.702 L95.546,176.933 z" fill="#7E57A2"/>
    <path d="M23.097,165.639 L-82.008,182.259 L-27.975,186.317 z" fill="#E470AA"/>
    <path d="M-24.635,173.12 L34.433,93.083 L23.097,165.686 z" fill="#A54B9A"/>
    <path d="M-81.844,182.259 L-51.337,133.376 L-24.635,173.12 z" fill="#BF4A99"/>
    <path d="M-51.337,133.4 L-24.088,103.35 L-24.635,173.119 z" fill="#B23E94"/>
    <path d="M-24.088,103.372 L34.433,93.083 L-24.635,173.12 z" fill="#9B69AA"/>
    <path d="M-81.844,182.259 L-96.398,168.806 L-51.337,133.376 z" fill="#CB4698"/>
    <path d="M-143.934,154.449 L-143.934,124.537 L-96.398,168.806 z" fill="#664E9D"/>
    <path d="M-87.808,24.328 L-119.941,67.291 L-132.345,39.856 z" fill="#754D9C"/>
    <path d="M-147.726,71.135 L-103.896,102.085 L-119.89,66.694 z" fill="#6B73B4"/>
    <path d="M-143.746,124.729 L-103.896,102.085 L-147.726,71.134 z" fill="#4D4195"/>
    <path d="M-103.896,102.085 L-96.398,168.806 L-143.934,124.537 z" fill="#524497"/>
    <path d="M-56.706,34.645 L-119.941,66.694 L-87.808,24.327 z" fill="#866CAE"/>
    <path d="M-103.896,102.085 L-87.433,50.193 L-119.941,66.694 z" fill="#6B6DAF"/>
    <path d="M-95.16,74.563 L-56.706,34.645 L-87.433,50.193 z" fill="#664E9D"/>
    <path d="M-103.896,102.085 L-72.725,104.166 L-95.16,74.563 z" fill="#6F75B5"/>
    <path d="M-96.398,168.806 L-72.725,104.166 L-103.896,102.085 z" fill="#767BB9"/>
    <path d="M-51.226,133.376 L-72.725,104.166 L-96.398,168.806 z" fill="#9B69AA"/>
    <path d="M-24.088,103.35 L-72.725,104.166 L-51.3,133.376 z" fill="#B760A4"/>
    <path d="M-95.16,74.563 L-24.088,103.35 L-72.725,104.166 z" fill="#97529E"/>
    <path d="M-56.706,34.666 L-47.745,93.698 L-95.16,74.563 z" fill="#524497"/>
    <path d="M-16.747,30.169 L-47.745,93.698 L-56.706,34.666 z" fill="#754D9C"/>
    <path d="M-24.088,103.35 L-21.832,75.275 L-16.747,30.169 L-47.746,93.698 z" fill="#9B69AA"/>
    <path d="M9.343,97.732 L-21.881,76.052 L-24.088,103.35 z" fill="#754D9C"/>
    <path d="M34.433,93.083 L9.636,82.823 L9.343,97.732 z" fill="#918DC3"/>
    <path d="M9.635,82.823 L-16.747,30.169 L-21.923,76.052 z" fill="#664E9D"/>
    <path d="M23.815,35.005 L-16.747,30.252 L7.422,27.852 z" fill="#594598"/>
    <path d="M9.635,82.823 L23.873,35.005 L-16.747,30.169 z" fill="#744B9B"/>
    <path d="M59.849,55.076 L9.635,82.823 L23.873,35.005 z" fill="#866CAE"/>
    <path d="M34.433,93.083 L59.85,55.076 L9.636,82.828 z" fill="#7458A2"/>
    <path d="M47.963,133.859 L34.433,93.083 L23.097,165.686 z" fill="#7E57A2"/>
    <path d="M95.629,136.707 L82.318,106.274 L47.963,133.831 z" fill="#694D9C"/>
    <path d="M82.317,106.274 L58.699,101.025 L47.963,133.831 z" fill="#7958A2"/>
    <path d="M59.849,54.952 L58.838,101.025 L34.433,93.083 z" fill="#9B69AA"/>
    <path d="M83.085,34.119 L58.699,101.025 L59.681,55.076 z" fill="#9B69AA"/>
    <path d="M95.629,136.715 L116.279,70.529 L82.318,106.274 z" fill="#97529E"/>
    <path d="M157.151,62.727 L157.151,64.262 L121.017,93.285 L116.278,70.197 z" fill="#7E57A2"/>
    <path d="M142.965,65.564 L83.086,34.119 L116.278,70.611 z" fill="#97529E"/>
    <path d="M135.69,138.527 L157.151,153.783 L157.151,166.782 L123.295,167.485 z" fill="#B468A8"/>
    <path d="M128.621,128.659 L116.279,70.529 L95.629,136.715 z" fill="#B859A0"/>
    <path d="M9.635,82.823 L9.343,97.732 L-22.087,76.052 z" fill="#97529E"/>
    <path d="M147.703,-3.169 L157.151,-3.169 L157.151,20.067 L146.376,-1.73 z" fill="#5A4699"/>
    <path d="M146.376,-1.772 L157.151,19.872 L157.151,42.295 L111.273,36.499 z" fill="#7958A2"/>
    <path d="M142.965,65.564 L140.167,39.809 L122.518,54.91 z" fill="#7958A2"/>
    <path d="M143.992,74.77 L157.151,86.469 L157.151,121.581 L128.621,128.722 z" fill="#CC6AA8"/>
    <path d="M157.151,64.172 L157.151,86.506 L143.992,74.77 z" fill="#8A63A7"/>
    <path d="M141.298,125.546 L157.151,142.572 L157.151,153.947 L135.567,138.527 z" fill="#C43B93"/>
    <path d="M157.151,121.537 L157.151,142.972 L141.298,125.546 z" fill="#B14095"/>
    <path d="M1819.849,35.925 L1866.824,84.448 L1819.849,93.567 z" fill="#C964A4"/>
    <path d="M1926.445,20.604 L1894.441,79.017 L1864.963,85.081 z" fill="#B94295"/>
    <path d="M1865.874,85.081 L1847.387,11.371 L1881.961,-14.66 z" fill="#B94295"/>
    <path d="M1819.849,94.242 L1913.63,103.645 L1819.849,103.645 z" fill="#B760A4"/>
    <path d="M2064.139,73.526 L2109.806,89.105 L2072.889,103.645 L2049.023,103.645 z" fill="#7468AD"/>
    <path d="M2048.782,41.995 L2080.957,55.875 L2092.005,43.988 z" fill="#B56BAA"/>
    <path d="M2049.828,42.331 L2051.237,-3.197 L1997.686,-7.135 z" fill="#BF4A99"/>
    <path d="M1968.083,77.895 L2034.124,85.025 L2026.304,52.464 z" fill="#CB4698"/>
    <path d="M1971.871,18.42 L2017.901,11.577 L1983.236,-20.538 z" fill="#E470AA"/>
    <path d="M2091.894,44.015 L2108.434,89.105 L2064.14,73.979 z" fill="#AA69AA"/>
    <path d="M2080.959,55.831 L2064.14,74.144 L2049.825,42.236 z" fill="#E36FA9"/>
    <path d="M2034.124,85.025 L2064.139,74.11 L2049.825,42.236 z" fill="#CD5FA3"/>
    <path d="M2049.825,42.236 L2070.335,18.849 L2091.894,44.015 z" fill="#B963A4"/>
    <path d="M2049.825,42.236 L2051.237,-3.093 L2070.411,18.723 z" fill="#C64C9A"/>
    <path d="M1926.445,20.604 L1952.98,84.613 L1918.878,103.645 L1917.907,103.645 z" fill="#B763A5"/>
    <path d="M1926.445,20.604 L1963.327,-26.718 L1935.831,-34.84 z" fill="#A54C9A"/>
    <path d="M1952.986,84.636 L1926.445,20.604 L1963.327,-26.719 z" fill="#C54F9B"/>
    <path d="M1926.445,20.604 L1917.916,103.645 L1917.313,103.645 L1893.993,79.021 z" fill="#C64C9A"/>
    <path d="M1926.445,20.604 L1935.892,-34.832 L1881.961,-14.659 z" fill="#AA80B7"/>
    <path d="M1865.874,84.448 L1926.445,20.616 L1881.961,-14.659 z" fill="#B23E94"/>
    <path d="M1819.849,32.166 L1847.965,11.371 L1865.875,84.448 L1819.849,35.939 z" fill="#C64C9A"/>
    <path d="M1847.964,11.371 L1881.961,-14.66 L1823.141,-24.799 z" fill="#C74195"/>
    <path d="M2026.179,52.546 L2034.125,85.025 L2049.828,42.236 z" fill="#B64296"/>
    <path d="M1952.98,84.572 L2017.389,11.236 L1971.858,17.706 z" fill="#D7549D"/>
    <path d="M1952.98,84.631 L1963.259,-26.719 L1983.315,-20.538 z" fill="#BE58A0"/>
    <path d="M1819.849,10.991 L1823.141,-24.799 L1847.965,11.371 L1819.849,32.303 z" fill="#CC5CA1"/>
    <path d="M1952.98,84.572 L2049.825,42.325 L2017.236,11.236 z" fill="#B64296"/>
    <path d="M2051.237,-3.093 L2102.228,-23.693 L2091.894,44.015 z" fill="#A54B9A"/>
    <path d="M2064.32,73.938 L2049.141,103.645 L2043.049,103.645 L2034.125,85.025 z" fill="#BE6EAB"/>
    <path d="M2034.125,85.025 L2043.402,103.645 L1988.712,103.645 L1968.148,77.853 z" fill="#DA72AA"/>
    <path d="M1968.148,77.853 L1989.017,103.645 L1982.191,103.645 L1952.98,84.571 z" fill="#BF6EAA"/>
    <path d="M1952.98,84.448 L1982.26,103.645 L1918.842,103.645 z" fill="#7369AC"/>
    <path d="M1819.849,93.331 L1893.993,78.988 L1917.336,103.645 L1911.419,103.645 L1819.849,94.547 z" fill="#B763A5"/>
    <path d="M1004.919,42.098 L941.024,82.562 L988,91.68 z" fill="#C964A4"/>
    <path d="M988,30.279 L959.883,9.484 L941.974,82.562 L1004.919,42.098 z" fill="#C64C9A"/>
    <path d="M993.827,-3.169 L984.707,-26.686 L959.883,9.484 L988,30.417 z" fill="#CC5CA1"/>
    <path d="M989.87,87.219 L894.218,101.759 L988,101.759 z" fill="#B760A4"/>
  </g>
  <defs/>
</svg>
