<?xml version="1.0" encoding="UTF-8"?>
<!DOCTYPE svg PUBLIC "-//W3C//DTD SVG 1.1//EN" "http://www.w3.org/Graphics/SVG/1.1/DTD/svg11.dtd">
<svg version="1.1" xmlns="http://www.w3.org/2000/svg" xmlns:xlink="http://www.w3.org/1999/xlink" x="0px" y="0px" width="715.869" height="707.997" viewBox="0, 0, 715.869, 707.997">
  <g id="Layer 1">
    <path d="M29.296,528.336 L166.792,490.936 L207.052,621.4 L289.243,597.436 L375.465,517.871 L487.485,509.631 L558.311,626.438 L664.657,548.047 L621.35,433.557 L703.552,384.884 L657.588,350.383 L642.181,161.742 L366.425,170.124 L279.395,96.077 L210.404,200.861 L113.269,158.947 L10.339,238.645 L35.859,324.679 L16.479,489.135 z" fill="#C370B0"/>
    <path d="M183.198,561.578 L203.635,626.435 L291.177,597.435 z" fill="#5D4CA1"/>
    <path d="M550.195,389.372 L587.116,474.955 L555.497,504.348 z" fill="#C27DB6"/>
    <path d="M554.909,503.291 L558.225,635.371 L675.509,548.002 z" fill="#C374B1"/>
    <path d="M551.088,392.154 L429.984,395.903 L419.509,253.456 z" fill="#CC57A6"/>
    <path d="M645.69,174.712 L664.657,350.382 L578.043,329.581 z" fill="#D556A5"/>
    <path d="M487.485,184.789 L469.284,307.227 L383.858,215.019 z" fill="#EA83B6"/>
    <path d="M555.569,504.049 L675.509,548.047 L635.274,430.227 z" fill="#B77AB6"/>
    <path d="M587,474.965 L635.713,430.223 L550.836,392.147 z" fill="#EA83B6"/>
    <path d="M664.656,350.383 L635.624,430.221 L550.836,392.148 z" fill="#D770AF"/>
    <path d="M558.311,635.373 L480.577,514.018 L555.505,504.051 z" fill="#D572B0"/>
    <path d="M550.835,392.148 L488.626,446.704 L555.568,504.049 z" fill="#C574B1"/>
    <path d="M550.835,392.147 L430.262,395.902 L488.291,446.905 z" fill="#D25BA7"/>
    <path d="M578.263,329.247 L664.657,350.383 L550.835,392.154 z" fill="#C24DA3"/>
    <path d="M663.449,134.538 L468.378,305.867 L485.586,184.752 z" fill="#E063A9"/>
    <path d="M663.609,134.538 L367.417,161.878 L383.859,215.229 z" fill="#CA68AC"/>
    <path d="M375.466,531.541 L419.509,253.019 L430.26,396.202 z" fill="#EA83B6"/>
    <path d="M395.289,405.055 L183.197,561.578 L375.59,531.541 z" fill="#B457A7"/>
    <path d="M419.509,253.455 L289.971,334.296 L395.289,405.057 z" fill="#CC57A6"/>
    <path d="M290.034,334.295 L210.403,406.503 L395.285,405.054 z" fill="#C047A1"/>
    <path d="M210.464,406.503 L183.199,561.578 L395.289,405.055 z" fill="#AA78B6"/>
    <path d="M419.509,253.455 L383.856,214.888 L289.971,334.296 z" fill="#D556A5"/>
    <path d="M345.814,88.92 L266.546,88.92 L383.859,214.887 z" fill="#7359AA"/>
    <path d="M207.052,195.018 L383.859,214.888 L266.548,88.92 z" fill="#5A4CA4"/>
    <path d="M28.342,320.068 L113.269,152.499 L1,237.651 z" fill="#957CBA"/>
    <path d="M207.051,195.018 L69.544,238.643 L113.269,152.501 z" fill="#777CBC"/>
    <path d="M134.121,218.169 L28.341,320.066 L69.543,238.643 z" fill="#7359AA"/>
    <path d="M207.051,195.018 L212.565,277.619 L134.122,218.167 z" fill="#7B85C0"/>
    <path d="M383.858,214.888 L212.567,277.618 L207.052,195.018 z" fill="#848BC4"/>
    <path d="M289.971,334.589 L212.567,277.619 L383.858,214.887 z" fill="#AA78B6"/>
    <path d="M210.404,406.503 L212.565,277.619 L289.972,334.393 z" fill="#C370B0"/>
    <path d="M134.121,218.169 L210.404,406.502 L212.567,277.618 z" fill="#A55FAA"/>
    <path d="M28.397,320.068 L184.828,343.813 L134.122,218.169 z" fill="#5A4CA4"/>
    <path d="M16.48,425.957 L184.828,343.813 L28.397,320.068 z" fill="#8358A9"/>
    <path d="M210.404,406.503 L136.008,412.481 L16.481,425.957 L184.827,343.813 z" fill="#AA78B6"/>
    <path d="M195.517,495.092 L138.066,412.352 L210.403,406.504 z" fill="#8358A9"/>
    <path d="M183.198,561.578 L156.01,495.869 L195.518,495.092 z" fill="#A09CCC"/>
    <path d="M156.011,495.867 L16.479,425.957 L138.067,412.242 z" fill="#7359AA"/>
    <path d="M29.296,533.443 L16.699,425.957 L10.339,490.002 z" fill="#644CA5"/>
    <path d="M156.011,495.867 L29.296,533.596 L16.479,425.957 z" fill="#8256A8"/>
    <path d="M291.25,597.436 L183.198,561.579 L375.592,531.541 z" fill="#8D65AE"/>
    <path d="M663.449,134.538 L551.074,392.147 L468.378,305.458 z" fill="#C24DA3"/>
    <path d="M430.262,395.902 L375.466,531.539 L555.568,504.05 z" fill="#B457A7"/>
    <path d="M156.01,495.867 L195.518,495.094 L138.066,411.803 z" fill="#A55FAA"/>
    <path d="M664.656,350.383 L635.164,430.703 L714.869,389.978" fill="#C980B8"/>
    <path d="M515.14,228.938 L368.628,168.875 L413.446,112.702 z" fill="#848BC4"/>
    <path d="M156.109,149.161 L312.098,195.063 L225.732,88.268 z" fill="#8358A9"/>
    <path d="M143.171,106.678 L97.574,156.601 L97.624,184.119 L57.365,251.508 L81.674,320.64 L8.946,325.177 L90.044,384.605 L21.715,436.42 L166.637,505.83 L230.915,564.534 L252.14,531.27 L388.524,557.398 L383.767,597.692 L490.986,574.291 L497.443,584.764 L548.66,513.651 L515.862,436.768 L613.441,477.812 L605.186,335.21 L642.308,335.92 L592.55,267.583 L611.366,194.345 L562.858,127.15 L513.557,82.121 L414.506,114.127 L392.413,93.491 L374.31,26.271 L314.861,91.361 L268.501,110.635 L226.309,88.796 z" fill="#A55FAA"/>
    <path d="M225.734,88.268 L312.098,195.063 L285.25,92.721 z" fill="#5A4CA4"/>
    <path d="M252.13,534.907 L324.769,426.736 L387.624,559.177 z" fill="#A55FAA"/>
    <path d="M324.392,427.15 L388.497,561.626 L402.341,476.936 z" fill="#C64CA3"/>
    <path d="M51.578,247.818 L102.752,229.715 L98.421,175.135 z" fill="#8166AF"/>
    <path d="M94.507,156.08 L101.4,225.558 L143.561,102.371 z" fill="#AA78B6"/>
    <path d="M131.732,435.941 L7.952,324.852 L159.417,387.223 z" fill="#8965AE"/>
    <path d="M183.573,333.688 L158.704,387.223 L231.794,419.879 z" fill="#5D4CA1"/>
    <path d="M131.697,435.479 L77.721,386.589 L16.825,438.195 z" fill="#AA78B6"/>
    <path d="M519.613,438.149 L493.174,514.619 L455.704,514.947 z" fill="#C27DB6"/>
    <path d="M455.945,513.925 L380.75,600.528 L489.097,577.414 z" fill="#C374B1"/>
    <path d="M518.555,440.456 L438.741,371.965 L515.414,274.53 z" fill="#CC57A6"/>
    <path d="M114.272,187.216 L169.634,138.647 L158.839,48.976 z" fill="#8166AF"/>
    <path d="M33.1,254.922 L79.592,317.896 L101.28,225.628 z" fill="#644CA5"/>
    <path d="M607.44,338.434 L615.802,480.165 L558.544,391.972 z" fill="#D556A5"/>
    <path d="M599.181,270.31 L515.839,338.133 L515.062,229.023 z" fill="#EA83B6"/>
    <path d="M455.925,514.799 L496.604,592.538 L550.229,514.14 z" fill="#B77AB6"/>
    <path d="M493.097,514.555 L550.512,514.396 L518.398,440.305 z" fill="#EA83B6"/>
    <path d="M380.805,600.577 L402.022,477.285 L455.884,514.762 z" fill="#D572B0"/>
    <path d="M518.398,440.305 L446.587,438.856 L455.925,514.798 z" fill="#C574B1"/>
    <path d="M518.398,440.305 L438.917,372.127 L446.255,438.789 z" fill="#D25BA7"/>
    <path d="M614.483,192.143 L535.528,185.456 L564.498,125.928 z" fill="#B25AA8"/>
    <path d="M597.8,269.006 L673.641,196.261 L535.527,185.453 z" fill="#D15CA8"/>
    <path d="M559.869,390.52 L615.802,480.165 L518.393,440.309 z" fill="#C24DA3"/>
    <path d="M648.089,339.637 L516.055,336.732 L597.985,269.177 z" fill="#E063A9"/>
    <path d="M599.181,270.31 L535.634,185.338 L514.94,229.157 z" fill="#CA68AC"/>
    <path d="M231.186,567.56 L231.794,419.88 L324.771,426.738 z" fill="#AA78B6"/>
    <path d="M232.013,418.703 L162.729,505.29 L231.188,567.56 z" fill="#8D65AE"/>
    <path d="M324.392,426.986 L515.668,274.25 L438.742,372.317 z" fill="#EA83B6"/>
    <path d="M411.144,357.521 L183.574,333.688 L324.474,427.061 z" fill="#B457A7"/>
    <path d="M515.413,274.53 L385.062,250.513 L411.143,357.521 z" fill="#CC57A6"/>
    <path d="M385.105,250.55 L291.792,250.217 L411.144,357.518 z" fill="#C047A1"/>
    <path d="M291.831,250.252 L183.573,333.688 L411.144,357.521 z" fill="#AA78B6"/>
    <path d="M515.413,274.53 L515.14,228.938 L385.062,250.513 z" fill="#D556A5"/>
    <path d="M564.497,125.929 L513.689,79.526 L515.14,228.939 z" fill="#7359AA"/>
    <path d="M413.448,112.702 L515.14,228.94 L513.69,79.527 z" fill="#5A4CA4"/>
    <path d="M384.888,250.702 L368.628,168.875 L515.14,228.94 z" fill="#AA78B6"/>
    <path d="M291.792,250.216 L368.626,168.873 L385.005,250.576 z" fill="#C370B0"/>
    <path d="M312.098,195.064 L291.792,250.217 L368.628,168.874 z" fill="#A55FAA"/>
    <path d="M291.792,250.216 L240.608,210.496 L156.108,149.161 L312.098,195.062 z" fill="#AA78B6"/>
    <path d="M230.388,298.283 L242.004,211.619 L291.792,250.217 z" fill="#8358A9"/>
    <path d="M183.573,333.688 L204.611,275.654 L230.39,298.284 z" fill="#A09CCC"/>
    <path d="M204.615,275.653 L156.107,149.16 L242.068,211.548 z" fill="#7359AA"/>
    <path d="M101.399,225.559 L156.25,149.289 L114.679,186.619 z" fill="#644CA5"/>
    <path d="M204.615,275.653 L101.31,225.656 L156.107,149.16 z" fill="#8256A8"/>
    <path d="M79.591,317.896 L204.615,275.651 L101.31,225.656 z" fill="#957CBA"/>
    <path d="M183.573,333.688 L79.589,317.899 L204.62,275.663 z" fill="#8166AF"/>
    <path d="M231.84,419.923 L183.572,333.687 L324.474,427.061 z" fill="#8D65AE"/>
    <path d="M162.736,505.299 L131.695,435.484 L231.793,419.879 z" fill="#7558AA"/>
    <path d="M131.697,435.479 L159.419,387.22 L231.793,419.879 z" fill="#8965AE"/>
    <path d="M79.38,317.703 L159.202,387.457 L183.573,333.688 z" fill="#AA78B6"/>
    <path d="M7.951,324.852 L159.418,387.221 L79.85,317.61 z" fill="#AA78B6"/>
    <path d="M162.75,505.31 L18.299,437.715 L131.694,435.483 z" fill="#A55FAA"/>
    <path d="M607.44,338.434 L518.55,440.443 L516.293,336.469 z" fill="#C24DA3"/>
    <path d="M438.916,372.127 L324.393,426.985 L455.925,514.798 z" fill="#B457A7"/>
    <path d="M204.615,275.653 L230.387,298.283 L242.324,211.27 z" fill="#A55FAA"/>
    <path d="M285.248,92.722 L368.628,168.875 L312.098,195.064 z" fill="#AA78B6"/>
    <path d="M379.343,1 L368.591,168.916 L285.249,92.722 L377.108,1 z" fill="#5A4CA4"/>
    <path d="M380.204,1 L413.448,112.702 L368.59,168.916 L379.342,1 z" fill="#AA78B6"/>
    <path d="M169.634,138.646 L225.734,88.268 L158.839,48.976 z" fill="#AA78B6"/>
    <g>
      <g>
        <path d="M57.745,641.199 C57.232,637.937 56.907,634.817 56.907,632.022 C55.835,634.492 54.718,637.658 53.506,641.758 C54.857,641.525 56.255,641.338 57.745,641.199 M61.471,623.08 C61.471,623.172 61.425,623.359 61.331,623.592 C61.751,626.154 62.17,633.327 64.546,640.686 C65.523,640.639 66.455,640.639 67.433,640.639 C69.948,640.639 71.253,641.058 71.253,642.316 C71.253,643.434 68.877,643.807 65.849,644.273 C70.088,654.892 73.628,655.545 73.628,657.64 C73.628,660.157 70.321,663.602 68.551,663.602 C64.778,663.602 60.866,655.126 58.677,645.717 C55.835,646.509 53.646,647.161 51.876,647.859 C51.131,650.561 50.478,653.727 49.826,657.129 C49.36,659.178 46.287,662.253 43.771,662.253 C43.166,662.253 42.7,661.553 42.7,660.436 C42.7,658.805 43.585,655.22 44.935,650.841 C44.33,651.074 43.818,651.213 43.306,651.213 C43.026,651.213 42.932,650.794 42.932,650.235 C42.932,648.837 43.771,645.996 44.609,644.971 C45.122,644.412 46.054,643.854 47.451,643.295 C50.106,635.935 53.32,628.297 55.742,624.57 C57.093,622.473 58.956,621.775 60.167,621.775 C61.053,621.775 61.471,622.054 61.471,623.08" fill="#5A4CA4"/>
        <path d="M86.065,646.183 C86.065,642.41 85.273,640.965 83.969,640.965 C81.593,640.965 80.755,645.623 80.709,652.982 C81.314,653.309 82.106,653.635 82.758,653.635 C85.086,653.635 86.065,650.42 86.065,646.183 M92.027,644.552 C92.027,650.561 89.279,657.454 83.783,657.454 C82.665,657.454 81.64,657.128 80.709,656.662 C80.709,665.465 81.267,666.025 81.267,667.703 C81.267,668.633 79.777,670.915 76.05,670.915 C74.56,670.915 74.327,662.019 74.327,655.452 C74.327,649.909 74.42,640.592 75.119,638.124 C75.725,635.935 78.938,634.445 80.336,634.445 C81.407,634.445 81.966,635.003 81.966,636.12 C81.966,637.1 81.454,638.823 81.035,640.36 C82.106,637.937 83.969,634.863 86.624,634.863 C90.584,634.863 92.027,639.753 92.027,644.552" fill="#5A4CA4"/>
        <path d="M108.33,652.89 C110.474,652.89 110.287,650.188 111.638,650.188 C112.29,650.188 112.756,650.933 112.756,651.678 C112.756,652.937 110.893,657.454 106.048,657.454 C101.67,657.454 99.388,654.986 99.388,651.865 C99.388,647.487 102.508,642.689 103.766,641.337 C103.766,641.337 101.576,641.897 99.527,642.129 C98.315,648.557 95.987,656.709 91.981,656.709 C90.91,656.709 90.211,656.15 90.211,655.405 C90.211,654.194 91.795,654.007 93.145,652.424 C94.776,650.561 95.987,646.554 96.639,642.176 C94.356,641.757 93.285,639.941 93.285,637.937 C93.285,634.863 96.499,631.696 98.315,631.696 C99.946,631.696 100.365,632.954 100.365,635.003 C100.365,635.608 100.226,636.727 100.086,638.124 C103.999,637.145 105.815,633.932 107.213,633.932 C108.33,633.932 109.448,636.028 109.448,638.124 C109.448,639.894 105.536,643.108 105.536,648.836 C105.536,652.33 107.259,652.89 108.33,652.89" fill="#5A4CA4"/>
        <path d="M115.643,632.814 C114.292,632.814 112.942,631.929 112.942,628.668 C112.942,625.781 115.69,624.429 117.32,624.429 C118.811,624.429 120.115,625.128 120.115,626.945 C120.115,630.626 117.506,632.814 115.643,632.814 M117.972,636.727 C117.972,638.263 116.901,641.803 116.901,646.601 C116.901,651.399 117.413,652.89 118.485,652.89 C119.975,652.89 119.928,650.188 121.279,650.188 C121.931,650.188 122.397,650.933 122.397,651.772 C122.397,652.982 120.86,657.455 116.575,657.455 C112.196,657.455 110.706,654.007 110.706,649.722 C110.706,645.996 111.171,639.568 111.871,638.078 C112.569,636.541 114.898,634.863 116.295,634.863 C117.04,634.863 117.972,635.422 117.972,636.727" fill="#5A4CA4"/>
        <path d="M129.197,622.986 C129.197,624.523 126.496,641.803 126.496,646.601 C126.496,651.399 127.009,652.89 128.08,652.89 C129.57,652.89 129.523,650.188 130.875,650.188 C131.527,650.188 131.992,650.933 131.992,651.678 C131.992,652.937 130.455,657.455 126.17,657.455 C121.792,657.455 120.301,653.915 120.301,649.675 C120.301,645.996 122.35,625.827 123.049,624.29 C123.748,622.754 126.124,621.123 127.52,621.123 C128.219,621.123 129.197,621.681 129.197,622.986" fill="#5A4CA4"/>
        <path d="M155.421,625.221 C155.421,626.339 154.21,645.203 154.21,653.309 C157.797,653.774 161.011,654.427 161.011,655.125 C161.011,656.523 155.794,656.429 150.717,656.709 C146.804,656.942 142.939,657.687 142.192,657.687 C141.588,657.687 140.982,657.454 140.982,656.616 C140.982,655.544 142.705,653.075 143.497,652.796 C143.731,652.749 144.336,652.702 145.268,652.702 C145.826,652.702 146.571,652.702 147.363,652.749 C147.596,648.604 148.202,635.935 148.341,631.696 C146.851,633.187 145.268,634.445 144.057,634.445 C142.379,634.445 140.796,631.835 140.796,630.858 C140.796,629.693 143.963,629.554 148.016,627.037 C151.416,624.849 152.627,623.405 153.605,623.405 C154.117,623.405 155.421,623.963 155.421,625.221" fill="#5A4CA4"/>
        <path d="M183.509,626.06 C183.509,626.945 182.577,627.644 180.808,627.644 L180.388,627.644 C177.594,629.879 174.193,633.7 172.702,638.823 C177.361,637.937 178.851,636.959 180.062,636.959 C180.574,636.959 180.808,637.379 180.808,637.937 C180.808,639.196 179.876,641.152 179.271,641.757 C178.572,642.456 175.311,642.874 171.957,643.108 L171.957,644.132 C171.957,649.349 174.566,650.094 174.566,651.678 C174.566,653.588 171.957,657.408 168.696,657.408 C166.089,657.408 164.505,653.821 164.505,650.282 C164.505,648.138 164.971,645.716 165.763,643.247 L163.62,643.247 C162.363,643.247 160.592,643.247 160.592,642.082 C160.592,640.965 163.014,640.36 167.113,639.753 C169.07,635.143 171.957,630.811 175.078,627.923 C166.648,628.854 162.735,631.462 160.825,631.462 C160.405,631.462 159.847,630.997 159.847,630.345 C159.847,628.203 162.269,623.591 165.716,623.591 C169.815,623.591 174.939,624.849 179.456,625.081 C180.248,624.755 180.994,624.57 181.785,624.57 C182.857,624.57 183.509,625.128 183.509,626.06" fill="#5A4CA4"/>
        <path d="M228.544,644.831 C217.226,646.321 215.875,647.113 213.686,647.113 C213.499,647.113 213.406,646.881 213.406,646.508 C213.406,645.435 214.012,642.735 214.804,642.082 C216.387,640.779 229.057,640.406 230.687,640.406 C231.758,640.406 232.038,641.198 232.038,641.758 C232.038,642.688 230.64,644.552 228.544,644.831" fill="#5A4CA4"/>
        <path d="M268.136,649.396 C268.136,651.074 266.739,657.687 260.077,657.687 C256.817,657.687 251.181,656.103 249.55,656.103 C248.293,656.103 247.92,657.083 246.756,657.083 C245.405,657.083 244.799,655.871 244.799,654.939 C244.799,652.657 247.547,651.212 248.991,651.212 C253.416,648.325 259.798,642.083 259.798,634.724 C259.798,630.671 257.888,626.992 254.627,626.992 C252.671,626.992 250.622,628.389 250.622,631.137 C250.622,635.05 254.768,633.885 254.768,636.214 C254.768,637.518 253.51,640.5 251.088,640.5 C248.433,640.5 245.638,637.006 245.638,632.955 C245.638,627.876 250.016,623.684 256.677,623.684 C263.525,623.684 266.739,628.156 266.739,633.093 C266.739,640.454 259.658,647.3 253.603,651.353 C255.653,651.492 257.329,651.632 258.774,651.632 C265.667,651.632 266.179,648.418 267.484,648.418 C267.996,648.418 268.136,648.883 268.136,649.396" fill="#5A4CA4"/>
        <path d="M283.927,625.221 C283.927,626.339 282.716,645.203 282.716,653.309 C286.303,653.774 289.517,654.427 289.517,655.125 C289.517,656.523 284.3,656.429 279.223,656.709 C275.31,656.942 271.444,657.687 270.698,657.687 C270.093,657.687 269.488,657.454 269.488,656.616 C269.488,655.544 271.211,653.075 272.002,652.796 C272.236,652.749 272.841,652.702 273.773,652.702 C274.331,652.702 275.077,652.702 275.868,652.749 C276.102,648.604 276.707,635.935 276.847,631.696 C275.357,633.187 273.773,634.445 272.562,634.445 C270.885,634.445 269.301,631.835 269.301,630.858 C269.301,629.693 272.468,629.554 276.521,627.037 C279.921,624.849 281.132,623.405 282.111,623.405 C282.622,623.405 283.927,623.963 283.927,625.221" fill="#5A4CA4"/>
        <path d="M341.407,649.396 C341.407,651.074 340.01,657.687 333.348,657.687 C330.089,657.687 324.452,656.103 322.822,656.103 C321.564,656.103 321.192,657.083 320.027,657.083 C318.677,657.083 318.071,655.871 318.071,654.939 C318.071,652.657 320.819,651.212 322.263,651.212 C326.688,648.325 333.069,642.083 333.069,634.724 C333.069,630.671 331.16,626.992 327.899,626.992 C325.943,626.992 323.893,628.389 323.893,631.137 C323.893,635.05 328.039,633.885 328.039,636.214 C328.039,637.518 326.781,640.5 324.359,640.5 C321.704,640.5 318.91,637.006 318.91,632.955 C318.91,627.876 323.288,623.684 329.948,623.684 C336.796,623.684 340.01,628.156 340.01,633.093 C340.01,640.454 332.929,647.3 326.874,651.353 C328.924,651.492 330.601,651.632 332.045,651.632 C338.939,651.632 339.451,648.418 340.756,648.418 C341.267,648.418 341.407,648.883 341.407,649.396" fill="#5A4CA4"/>
        <path d="M353.844,627.225 C352.027,628.668 349.745,632.069 349.745,640.639 C349.745,649.628 352.306,653.541 354.867,653.541 C357.57,653.541 359.201,649.909 359.201,643.294 C359.201,635.469 357.012,629.274 353.844,627.225 M357.243,624.151 C357.757,623.731 358.129,623.452 358.315,623.452 C362.276,623.452 365.349,630.717 365.349,639.568 C365.349,651.865 359.246,657.454 353.285,657.454 C347.184,657.454 342.805,651.074 342.805,641.337 C342.805,629.413 349.698,623.405 354.449,623.405 C355.335,623.405 356.361,623.638 357.243,624.151" fill="#5A4CA4"/>
        <path d="M381.419,625.221 C381.419,626.339 380.208,645.203 380.208,653.309 C383.795,653.774 387.009,654.427 387.009,655.125 C387.009,656.523 381.792,656.429 376.714,656.709 C372.803,656.942 368.936,657.687 368.19,657.687 C367.586,657.687 366.98,657.454 366.98,656.616 C366.98,655.544 368.703,653.075 369.495,652.796 C369.728,652.749 370.333,652.702 371.265,652.702 C371.823,652.702 372.569,652.702 373.36,652.749 C373.595,648.604 374.199,635.935 374.34,631.696 C372.849,633.187 371.265,634.445 370.054,634.445 C368.378,634.445 366.794,631.835 366.794,630.858 C366.794,629.693 369.962,629.554 374.014,627.037 C377.414,624.849 378.624,623.405 379.603,623.405 C380.114,623.405 381.419,623.963 381.419,625.221" fill="#5A4CA4"/>
        <path d="M384.82,646.275 C384.82,645.671 385.1,644.505 387.8,643.295 C392.179,636.308 392.459,627.458 393.671,625.781 C394.601,624.383 398.467,622.707 399.633,622.707 C400.75,622.707 401.216,623.825 401.216,624.989 C401.216,628.762 396.837,637.145 392.879,642.363 C392.879,642.363 393.716,642.316 394.043,642.316 C396.185,642.316 396.651,642.363 398.049,642.41 C399.819,638.171 401.774,634.63 402.66,634.63 C403.311,634.63 403.778,635.05 403.778,635.888 C403.778,636.541 403.265,639.008 402.892,642.595 C406.573,642.549 408.249,640.919 409.228,640.919 C409.461,640.919 409.6,640.965 409.74,641.152 C409.926,641.291 409.973,641.571 409.973,641.991 C409.973,644.087 407.411,648.745 403.778,648.745 C403.311,648.745 402.939,648.745 402.519,648.698 L402.519,649.722 C402.519,650.98 402.66,652.145 402.66,653.774 C402.66,655.219 398.841,657.64 396.604,657.64 C395.393,657.64 394.882,656.429 394.882,654.66 C394.882,652.89 395.393,650.421 396.091,647.859 C393.53,647.346 391.341,646.648 389.757,646.322 C388.686,647.161 387.662,647.72 386.87,647.72 C385.471,647.72 384.82,647.114 384.82,646.275" fill="#5A4CA4"/>
        <path d="M471.969,651.492 C471.969,658.665 466.752,662.253 458.695,662.253 C450.589,662.253 445.047,656.848 445.047,652.191 C445.047,647.627 449.146,643.807 451.195,643.807 C452.685,643.807 453.198,645.204 453.338,647.301 C453.524,650.747 455.947,656.895 460.929,656.895 C463.119,656.895 464.329,655.173 464.329,653.076 C464.329,645.064 446.629,640.034 446.629,631.743 C446.629,625.409 453.477,627.364 465.541,622.52 C467.404,621.775 468.708,621.449 469.64,621.449 C471.41,621.449 471.969,622.473 471.969,624.011 C471.969,626.06 471.084,629.274 469.64,630.718 C468.336,632.022 463.119,632.302 458.648,632.302 C455.014,632.302 451.94,632.116 451.94,632.116 C455.712,636.541 471.969,640.221 471.969,651.492" fill="#5A4CA4"/>
        <path d="M485.85,646.183 C485.85,642.41 485.058,640.965 483.753,640.965 C481.377,640.965 480.539,645.623 480.493,652.982 C481.098,653.309 481.89,653.635 482.543,653.635 C484.871,653.635 485.85,650.42 485.85,646.183 M491.812,644.552 C491.812,650.561 489.063,657.454 483.568,657.454 C482.45,657.454 481.424,657.128 480.493,656.662 C480.493,665.465 481.051,666.025 481.051,667.703 C481.051,668.633 479.561,670.915 475.834,670.915 C474.344,670.915 474.112,662.019 474.112,655.452 C474.112,649.909 474.205,640.592 474.904,638.124 C475.509,635.935 478.723,634.445 480.121,634.445 C481.192,634.445 481.751,635.003 481.751,636.12 C481.751,637.1 481.239,638.823 480.819,640.36 C481.89,637.937 483.753,634.863 486.409,634.863 C490.368,634.863 491.812,639.753 491.812,644.552" fill="#5A4CA4"/>
        <path d="M499.591,645.67 C499.591,645.995 499.591,646.274 499.638,646.554 C501.688,645.483 503.551,643.945 503.551,641.617 C503.551,640.5 503.085,639.241 502.013,639.241 C500.477,639.241 499.591,642.27 499.591,645.67 M510.863,651.678 C510.863,654.427 506.904,657.454 502.479,657.454 C497.448,657.454 493.535,653.541 493.535,646.928 C493.535,640.173 497.635,634.862 502.664,634.862 C506.298,634.862 508.069,637.657 508.069,640.639 C508.069,645.391 503.551,648.511 500.151,649.581 C501.128,652.61 502.853,653.262 504.527,653.262 C508.161,653.262 508.441,650.188 509.792,650.188 C510.352,650.188 510.863,650.746 510.863,651.678" fill="#5A4CA4"/>
        <path d="M531.264,651.772 C531.264,652.982 529.774,657.455 525.396,657.455 C521.669,657.455 519.619,654.892 519.619,650.701 C519.619,648.325 520.318,645.111 520.318,643.015 C520.318,641.803 520.038,640.965 519.246,640.965 C517.384,640.965 515.754,646.741 515.754,654.194 C515.754,655.452 514.915,657.455 510.536,657.455 C509.698,657.455 509.465,656.616 509.465,655.266 C509.465,653.356 509.931,650.514 509.978,647.673 C510.025,640.034 510.163,639.196 510.444,638.125 C510.864,635.935 514.217,634.445 515.707,634.445 C516.732,634.445 517.244,635.003 517.244,636.121 C517.244,637.1 516.592,638.45 516.313,640.36 C517.384,637.937 520.179,634.863 522.741,634.863 C525.628,634.863 526.373,637.053 526.373,639.8 C526.373,642.736 525.628,645.67 525.628,648.883 C525.628,651.911 526.234,652.89 527.305,652.89 C528.889,652.89 528.842,650.188 530.146,650.188 C530.846,650.188 531.264,650.933 531.264,651.772" fill="#5A4CA4"/>
        <path d="M543.794,640.407 C543.794,643.248 542.304,645.81 539.882,645.81 C538.438,645.81 537.879,644.925 537.879,643.946 C537.879,642.595 538.95,641.571 538.95,640.407 C538.95,639.754 538.624,639.242 537.926,639.242 C535.969,639.242 535.224,643.248 535.224,646.275 C535.224,651.353 537.459,653.262 540.114,653.262 C543.655,653.262 543.934,650.095 545.284,650.095 C545.844,650.095 546.31,650.701 546.31,651.586 C546.31,654.101 542.583,657.455 537.926,657.455 C533.127,657.455 529.168,653.868 529.168,647.114 C529.168,640.407 533.035,634.863 538.484,634.863 C542.351,634.863 543.794,637.612 543.794,640.407" fill="#5A4CA4"/>
        <path d="M550.828,645.67 C550.828,645.995 550.828,646.274 550.874,646.554 C552.924,645.483 554.787,643.945 554.787,641.617 C554.787,640.5 554.321,639.241 553.25,639.241 C551.713,639.241 550.828,642.27 550.828,645.67 M544.772,646.928 C544.772,640.173 548.872,634.862 553.901,634.862 C557.535,634.862 559.305,637.657 559.305,640.639 C559.305,645.391 554.787,648.511 551.387,649.581 C552.364,652.61 554.089,653.262 555.765,653.262 C559.351,653.262 561.866,647.673 562.984,642.129 C560.749,641.71 559.771,639.894 559.771,637.937 C559.771,634.862 562.938,631.695 564.802,631.695 C566.385,631.695 566.804,632.954 566.804,635.003 C566.804,635.654 566.759,636.773 566.571,638.124 C570.437,637.145 572.254,633.932 573.651,633.932 C574.769,633.932 575.887,636.027 575.887,638.124 C575.887,639.894 571.975,643.107 571.975,648.836 C571.975,652.33 573.745,652.89 574.769,652.89 C576.911,652.89 576.725,650.188 578.077,650.188 C578.775,650.188 579.195,650.933 579.195,651.678 C579.195,652.937 577.378,657.454 572.487,657.454 C568.155,657.454 565.826,654.985 565.826,651.864 C565.826,647.486 568.993,642.689 570.204,641.337 C570.204,641.337 567.969,641.897 565.92,642.129 C564.521,648.883 561.168,657.454 554.042,657.454 C548.918,657.454 544.772,653.541 544.772,646.928" fill="#5A4CA4"/>
        <path d="M599.224,626.48 L598.012,640.733 L598.106,640.733 C605.186,640.733 609.843,636.867 609.843,632.674 C609.843,630.438 608.539,626.386 601.273,626.386 C600.574,626.386 599.922,626.433 599.224,626.48 M617.761,631.371 C617.761,637.892 611.38,643.807 600.248,643.807 C599.41,643.807 598.618,643.807 597.779,643.76 C597.779,644.132 597.732,644.552 597.732,644.924 C597.36,650.141 597.267,657.781 597.267,658.479 C597.267,660.715 594.146,662.252 590.839,662.252 C589.161,662.252 588.789,661.879 588.789,659.597 C588.789,656.57 589.441,653.356 589.953,643.854 C590.42,635.05 590.28,631.183 590.42,628.995 C589.302,629.507 588.416,629.834 587.904,629.834 C587.205,629.834 586.879,629.274 586.879,628.854 C586.879,626.525 595.311,621.728 604.533,621.728 C612.732,621.728 617.761,625.547 617.761,631.371" fill="#5A4CA4"/>
        <path d="M625.354,650.514 C625.261,650.235 625.261,649.954 625.261,649.675 C625.261,647.999 625.401,645.763 625.541,643.666 C624.656,643.666 624.283,643.201 624.283,642.41 C624.283,641.757 624.702,640.779 624.702,640.08 C624.702,639.568 624.516,639.242 623.77,639.242 C621.721,639.242 620.882,643.294 620.882,646.183 C620.882,651.957 622.28,652.937 623.026,652.937 C624.376,652.937 624.981,651.678 625.354,650.514 M636.999,651.678 C636.999,652.937 635.508,657.454 631.13,657.454 C629.035,657.454 627.498,656.57 626.612,655.172 C625.261,656.662 623.397,657.454 621.581,657.454 C616.737,657.454 615.106,651.819 615.106,647.765 C615.106,638.124 620.463,634.863 624.003,634.863 C626.239,634.863 627.171,635.701 627.589,636.587 C628.569,635.655 629.965,634.863 630.944,634.863 C631.643,634.863 632.621,635.422 632.621,636.727 C632.621,638.263 631.502,641.803 631.502,646.601 C631.502,651.399 632.062,652.89 633.04,652.89 C634.624,652.89 634.577,650.188 635.88,650.188 C636.581,650.188 636.999,650.933 636.999,651.678" fill="#5A4CA4"/>
        <path d="M649.481,652.89 C651.625,652.89 651.438,650.188 652.789,650.188 C653.441,650.188 653.907,650.933 653.907,651.678 C653.907,652.937 652.044,657.454 647.199,657.454 C642.821,657.454 640.539,654.986 640.539,651.865 C640.539,647.487 643.66,642.689 644.917,641.337 C644.917,641.337 642.727,641.897 640.678,642.129 C639.467,648.557 637.138,656.709 633.132,656.709 C632.06,656.709 631.362,656.15 631.362,655.405 C631.362,654.194 632.946,654.007 634.297,652.424 C635.926,650.561 637.138,646.554 637.79,642.176 C635.507,641.757 634.436,639.941 634.436,637.937 C634.436,634.863 637.651,631.696 639.467,631.696 C641.098,631.696 641.516,632.954 641.516,635.003 C641.516,635.608 641.377,636.727 641.237,638.124 C645.15,637.145 646.966,633.932 648.364,633.932 C649.481,633.932 650.599,636.028 650.599,638.124 C650.599,639.894 646.687,643.108 646.687,648.836 C646.687,652.33 648.41,652.89 649.481,652.89" fill="#5A4CA4"/>
        <path d="M674.169,651.772 C674.169,652.982 672.632,657.455 668.3,657.455 C663.69,657.455 661.546,651.632 660.056,647.393 C659.171,649.628 658.565,651.074 658.565,654.194 C658.565,655.452 657.728,657.455 653.349,657.455 C652.231,657.455 652.137,655.591 652.137,652.937 C652.137,648.745 653.208,627.178 654.56,624.29 C655.258,622.753 657.913,621.123 659.311,621.123 C659.963,621.123 660.895,621.681 660.895,622.986 C660.895,623.963 658.519,637.845 658.519,644.366 C660.708,639.289 664.528,634.258 666.764,634.258 C668.533,634.258 670.815,637.286 670.815,638.263 C670.815,640.686 668.394,639.941 664.761,642.129 C665.832,648.278 668.347,652.89 670.21,652.89 C671.747,652.89 671.701,650.188 673.052,650.188 C673.703,650.188 674.169,650.933 674.169,651.772" fill="#5A4CA4"/>
        <path d="M432.921,619.114 C432.921,620.605 431.896,635.37 431.896,662.294 C431.896,663.644 431.012,666.113 425.422,666.113 C424.305,666.113 424.025,665.274 424.025,663.272 C424.025,661.968 423.978,657.728 423.978,652.372 C423.978,640.307 424.117,622.561 425.189,620.559 C426.167,618.835 428.962,617.018 430.779,617.018 C431.663,617.018 432.921,617.671 432.921,619.114" fill="#5A4CA4"/>
      </g>
      <path d="M188.122,630.005 C187.878,632.123 187.66,634.241 187.66,635.382 C187.66,638.18 188.203,639.049 188.882,639.049 C190.158,639.049 190.077,637.474 190.864,637.474 C191.245,637.474 191.517,637.908 191.517,638.397 C191.517,639.103 190.321,641.709 187.796,641.709 C185.107,641.709 184.048,639.646 184.048,637.202 C184.048,636.143 184.238,633.182 184.537,630.331 C183.749,630.304 183.043,630.168 183.043,629.516 C183.043,629.217 183.749,628.811 184.727,628.402 C184.944,626.365 185.161,624.655 185.325,624.328 C185.759,623.433 187.117,622.482 187.932,622.482 C188.366,622.482 188.909,622.809 188.909,623.569 C188.909,623.922 188.72,625.361 188.475,627.153 C189.235,626.936 190.104,626.393 190.702,626.393 C191.001,626.393 191.082,626.719 191.082,626.99 C191.082,627.669 190.647,628.892 190.403,629.136 C189.941,629.598 189.235,629.816 188.122,630.005" fill="#5A4CA4"/>
      <path d="M203.356,638.397 C203.356,639.103 202.487,641.71 199.934,641.71 C197.436,641.71 196.54,639.701 196.54,637.203 C196.54,635.817 197.002,633.752 197.002,632.45 C197.002,631.715 196.866,631.228 196.377,631.228 C194.72,631.228 194.502,635.192 194.502,637.799 C194.502,638.289 194.53,638.804 194.53,639.81 C194.53,640.543 194.042,641.71 191.489,641.71 C190.836,641.71 190.783,640.624 190.783,639.076 C190.783,635.029 191.76,623.27 192.195,622.375 C192.602,621.478 193.987,620.528 194.801,620.528 C195.182,620.528 195.725,620.853 195.725,621.614 C195.725,622.184 195.045,626.665 194.666,630.467 C195.372,629.462 196.512,628.54 197.843,628.54 C199.934,628.54 200.396,630.141 200.396,631.988 C200.396,633.4 200.097,634.757 200.097,636.496 C200.097,638.424 200.559,639.049 201.047,639.049 C201.971,639.049 201.917,637.474 202.705,637.474 C203.112,637.474 203.356,637.909 203.356,638.397" fill="#5A4CA4"/>
      <path d="M304.445,630.005 C304.2,632.123 304.01,634.241 304.01,635.382 C304.01,638.18 304.526,639.049 305.205,639.049 C306.481,639.049 306.4,637.474 307.187,637.474 C307.595,637.474 307.84,637.908 307.84,638.397 C307.84,639.103 306.644,641.709 304.119,641.709 C301.43,641.709 300.371,639.646 300.371,637.202 C300.371,636.224 300.534,633.59 300.805,630.983 C298.633,631.309 295.591,631.553 293.12,631.553 L292.794,631.553 C293.69,633.02 299.637,633.888 299.637,638.234 C299.637,640.704 297.71,641.927 294.913,641.927 C292.115,641.927 290.051,640.08 290.051,638.479 C290.051,636.875 291.708,635.572 292.441,635.572 C292.957,635.572 293.12,636.033 293.174,636.794 C293.256,637.962 293.772,639.727 295.157,639.727 C295.917,639.727 296.352,639.292 296.352,638.586 C296.352,636.197 290.567,633.943 290.567,631.444 C290.567,627.886 294.777,629.868 301.104,628.157 C301.295,626.23 301.484,624.655 301.647,624.328 C302.082,623.433 303.44,622.482 304.255,622.482 C304.689,622.482 305.232,622.809 305.232,623.569 C305.232,623.922 305.042,625.361 304.825,627.153 C305.558,626.936 306.454,626.393 307.025,626.393 C307.323,626.393 307.432,626.719 307.432,626.99 C307.432,627.669 306.97,628.892 306.726,629.136 C306.292,629.598 305.558,629.816 304.445,630.005" fill="#5A4CA4"/>
    </g>
    <g>
      <path d="M195.469,706.911 L195.469,696.255 C195.469,692.111 195.395,689.114 195.21,685.969 L195.321,685.932 C196.579,688.633 198.244,691.482 199.983,694.257 L207.901,706.911 L211.157,706.911 L211.157,681.973 L208.123,681.973 L208.123,692.407 C208.123,696.292 208.197,699.326 208.493,702.656 L208.419,702.693 C207.235,700.14 205.792,697.513 203.942,694.59 L195.95,681.973 L192.435,681.973 L192.435,706.911 z" fill="#8965AE"/>
      <path d="M230.508,692.555 L220.814,692.555 L220.814,684.674 L231.063,684.674 L231.063,681.973 L217.595,681.973 L217.595,706.911 L231.618,706.911 L231.618,704.21 L220.814,704.21 L220.814,695.219 L230.508,695.219 z" fill="#8965AE"/>
      <path d="M244.383,706.911 L247.935,693.924 C248.86,690.705 249.415,688.263 249.859,685.784 L249.933,685.784 C250.266,688.3 250.784,690.742 251.561,693.924 L254.706,706.911 L258.073,706.911 L265.14,681.973 L261.847,681.973 L258.554,694.553 C257.777,697.661 257.074,700.436 256.556,703.174 L256.482,703.174 C256.112,700.547 255.446,697.587 254.743,694.627 L251.709,681.973 L248.342,681.973 L245.012,694.553 C244.161,697.772 243.384,700.732 242.977,703.211 L242.903,703.211 C242.459,700.806 241.793,697.698 241.053,694.59 L238.093,681.973 L234.689,681.973 L241.016,706.911 z" fill="#8965AE"/>
      <path d="M283.825,706.911 L287.377,693.924 C288.302,690.705 288.857,688.263 289.301,685.784 L289.375,685.784 C289.708,688.3 290.226,690.742 291.003,693.924 L294.148,706.911 L297.515,706.911 L304.582,681.973 L301.289,681.973 L297.996,694.553 C297.219,697.661 296.516,700.436 295.998,703.174 L295.924,703.174 C295.554,700.547 294.888,697.587 294.185,694.627 L291.151,681.973 L287.784,681.973 L284.454,694.553 C283.603,697.772 282.826,700.732 282.419,703.211 L282.345,703.211 C281.901,700.806 281.235,697.698 280.495,694.59 L277.535,681.973 L274.131,681.973 L280.458,706.911 z" fill="#8965AE"/>
      <path d="M321.417,692.555 L311.723,692.555 L311.723,684.674 L321.972,684.674 L321.972,681.973 L308.504,681.973 L308.504,706.911 L322.527,706.911 L322.527,704.21 L311.723,704.21 L311.723,695.219 L321.417,695.219 z" fill="#8965AE"/>
      <path d="M327.522,706.837 C328.595,706.985 330.297,707.133 332.517,707.133 C336.587,707.133 339.399,706.393 341.138,704.802 C342.396,703.581 343.247,701.953 343.247,699.807 C343.247,696.107 340.472,694.146 338.104,693.554 L338.104,693.48 C340.731,692.518 342.322,690.409 342.322,688.004 C342.322,686.043 341.545,684.563 340.25,683.601 C338.696,682.343 336.624,681.788 333.405,681.788 C331.148,681.788 328.928,682.01 327.522,682.306 z M330.741,684.489 C331.259,684.378 332.11,684.267 333.59,684.267 C336.846,684.267 339.066,685.414 339.066,688.337 C339.066,690.742 337.068,692.518 333.664,692.518 L330.741,692.518 z M330.741,694.96 L333.405,694.96 C336.92,694.96 339.843,696.366 339.843,699.77 C339.843,703.396 336.772,704.617 333.442,704.617 C332.295,704.617 331.37,704.58 330.741,704.469 z" fill="#8965AE"/>
      <path d="M347.132,705.69 C348.464,706.578 351.091,707.281 353.496,707.281 C359.379,707.281 362.228,703.951 362.228,700.103 C362.228,696.44 360.082,694.405 355.864,692.777 C352.423,691.445 350.906,690.298 350.906,687.967 C350.906,686.265 352.201,684.23 355.605,684.23 C357.862,684.23 359.527,684.97 360.341,685.414 L361.229,682.787 C360.119,682.158 358.269,681.566 355.716,681.566 C350.869,681.566 347.65,684.452 347.65,688.337 C347.65,691.852 350.166,693.961 354.236,695.404 C357.603,696.699 358.935,698.031 358.935,700.362 C358.935,702.878 357.011,704.617 353.718,704.617 C351.498,704.617 349.389,703.877 347.946,702.989 z" fill="#8965AE"/>
      <path d="M367.445,681.973 L367.445,706.911 L370.664,706.911 L370.664,681.973 z" fill="#8965AE"/>
      <path d="M381.838,706.911 L385.094,706.911 L385.094,684.711 L392.716,684.711 L392.716,681.973 L374.253,681.973 L374.253,684.711 L381.838,684.711 z" fill="#8965AE"/>
      <path d="M409.218,692.555 L399.524,692.555 L399.524,684.674 L409.773,684.674 L409.773,681.973 L396.305,681.973 L396.305,706.911 L410.328,706.911 L410.328,704.21 L399.524,704.21 L399.524,695.219 L409.218,695.219 z" fill="#8965AE"/>
      <path d="M422.719,705.69 C424.051,706.578 426.678,707.281 429.083,707.281 C434.966,707.281 437.815,703.951 437.815,700.103 C437.815,696.44 435.669,694.405 431.451,692.777 C428.01,691.445 426.493,690.298 426.493,687.967 C426.493,686.265 427.788,684.23 431.192,684.23 C433.449,684.23 435.114,684.97 435.928,685.414 L436.816,682.787 C435.706,682.158 433.856,681.566 431.303,681.566 C426.456,681.566 423.237,684.452 423.237,688.337 C423.237,691.852 425.753,693.961 429.823,695.404 C433.19,696.699 434.522,698.031 434.522,700.362 C434.522,702.878 432.598,704.617 429.305,704.617 C427.085,704.617 424.976,703.877 423.533,702.989 z" fill="#8965AE"/>
      <path d="M453.133,681.566 C446.473,681.566 441.552,686.746 441.552,694.664 C441.552,702.212 446.177,707.318 452.763,707.318 C459.127,707.318 464.344,702.767 464.344,694.183 C464.344,686.783 459.941,681.566 453.133,681.566 z M452.985,684.193 C458.35,684.193 460.94,689.373 460.94,694.331 C460.94,699.992 458.054,704.691 452.948,704.691 C447.879,704.691 444.993,699.918 444.993,694.59 C444.993,689.114 447.657,684.193 452.985,684.193 z" fill="#8965AE"/>
      <path d="M479.44,681.566 C472.78,681.566 467.859,686.746 467.859,694.664 C467.859,702.212 472.484,707.318 479.07,707.318 C485.434,707.318 490.651,702.767 490.651,694.183 C490.651,686.783 486.248,681.566 479.44,681.566 z M479.292,684.193 C484.657,684.193 487.247,689.373 487.247,694.331 C487.247,699.992 484.361,704.691 479.255,704.691 C474.186,704.691 471.3,699.918 471.3,694.59 C471.3,689.114 473.964,684.193 479.292,684.193 z" fill="#8965AE"/>
      <path d="M498.68,706.911 L498.68,696.255 C498.68,692.111 498.606,689.114 498.421,685.969 L498.532,685.932 C499.79,688.633 501.455,691.482 503.194,694.257 L511.112,706.911 L514.368,706.911 L514.368,681.973 L511.334,681.973 L511.334,692.407 C511.334,696.292 511.408,699.326 511.704,702.656 L511.63,702.693 C510.446,700.14 509.003,697.513 507.153,694.59 L499.161,681.973 L495.646,681.973 L495.646,706.911 z" fill="#8965AE"/>
      <path d="M523.507,699.733 L524.025,681.973 L520.473,681.973 L520.991,699.733 z M522.249,707.318 C523.581,707.318 524.432,706.319 524.432,705.024 C524.432,703.692 523.581,702.73 522.249,702.73 C520.991,702.73 520.066,703.692 520.066,705.024 C520.066,706.319 520.954,707.318 522.249,707.318 z" fill="#8965AE"/>
      <path d="M195.969,707.411 L195.969,696.755 C195.969,692.611 195.895,689.614 195.71,686.469 L195.821,686.432 C197.079,689.133 198.744,691.982 200.483,694.757 L208.401,707.411 L211.657,707.411 L211.657,682.473 L208.623,682.473 L208.623,692.907 C208.623,696.792 208.697,699.826 208.993,703.156 L208.919,703.193 C207.735,700.64 206.292,698.013 204.442,695.09 L196.45,682.473 L192.935,682.473 L192.935,707.411 z" fill-opacity="0" stroke="#8965AE" stroke-width="1"/>
      <path d="M231.008,693.054 L221.314,693.054 L221.314,685.173 L231.563,685.173 L231.563,682.472 L218.095,682.472 L218.095,707.41 L232.118,707.41 L232.118,704.709 L221.314,704.709 L221.314,695.718 L231.008,695.718 z" fill-opacity="0" stroke="#8965AE" stroke-width="1"/>
      <path d="M244.882,707.411 L248.434,694.424 C249.359,691.205 249.914,688.763 250.358,686.284 L250.432,686.284 C250.765,688.8 251.283,691.242 252.06,694.424 L255.205,707.411 L258.572,707.411 L265.639,682.473 L262.346,682.473 L259.053,695.053 C258.276,698.161 257.573,700.936 257.055,703.674 L256.981,703.674 C256.611,701.047 255.945,698.087 255.242,695.127 L252.208,682.473 L248.841,682.473 L245.511,695.053 C244.66,698.272 243.883,701.232 243.476,703.711 L243.402,703.711 C242.958,701.306 242.292,698.198 241.552,695.09 L238.592,682.473 L235.188,682.473 L241.515,707.411 z" fill-opacity="0" stroke="#8965AE" stroke-width="1"/>
      <path d="M284.323,707.411 L287.875,694.424 C288.8,691.205 289.355,688.763 289.799,686.284 L289.873,686.284 C290.206,688.8 290.724,691.242 291.501,694.424 L294.646,707.411 L298.013,707.411 L305.08,682.473 L301.787,682.473 L298.494,695.053 C297.717,698.161 297.014,700.936 296.496,703.674 L296.422,703.674 C296.052,701.047 295.386,698.087 294.683,695.127 L291.649,682.473 L288.282,682.473 L284.952,695.053 C284.101,698.272 283.324,701.232 282.917,703.711 L282.843,703.711 C282.399,701.306 281.733,698.198 280.993,695.09 L278.033,682.473 L274.629,682.473 L280.956,707.411 z" fill-opacity="0" stroke="#8965AE" stroke-width="1"/>
      <path d="M321.915,693.054 L312.221,693.054 L312.221,685.173 L322.47,685.173 L322.47,682.472 L309.002,682.472 L309.002,707.41 L323.025,707.41 L323.025,704.709 L312.221,704.709 L312.221,695.718 L321.915,695.718 z" fill-opacity="0" stroke="#8965AE" stroke-width="1"/>
      <path d="M328.019,707.336 C329.092,707.484 330.794,707.632 333.014,707.632 C337.084,707.632 339.896,706.893 341.635,705.301 C342.893,704.08 343.744,702.452 343.744,700.307 C343.744,696.607 340.969,694.646 338.601,694.053 L338.601,693.98 C341.228,693.018 342.819,690.908 342.819,688.503 C342.819,686.542 342.042,685.063 340.747,684.101 C339.193,682.842 337.121,682.287 333.902,682.287 C331.645,682.287 329.425,682.509 328.019,682.805 z M331.238,684.988 C331.756,684.877 332.607,684.767 334.087,684.767 C337.343,684.767 339.563,685.913 339.563,688.836 C339.563,691.241 337.565,693.018 334.161,693.018 L331.238,693.018 z M331.238,695.459 L333.902,695.459 C337.417,695.459 340.34,696.865 340.34,700.27 C340.34,703.896 337.269,705.116 333.939,705.116 C332.792,705.116 331.867,705.079 331.238,704.968 z" fill-opacity="0" stroke="#8965AE" stroke-width="1"/>
      <path d="M347.629,706.19 C348.961,707.078 351.588,707.781 353.993,707.781 C359.876,707.781 362.725,704.451 362.725,700.603 C362.725,696.94 360.579,694.905 356.361,693.277 C352.92,691.945 351.403,690.797 351.403,688.466 C351.403,686.764 352.698,684.73 356.102,684.73 C358.359,684.73 360.024,685.469 360.837,685.914 L361.726,683.287 C360.616,682.658 358.766,682.066 356.213,682.066 C351.366,682.066 348.147,684.952 348.147,688.836 C348.147,692.352 350.663,694.461 354.733,695.904 C358.1,697.199 359.432,698.531 359.432,700.862 C359.432,703.377 357.508,705.117 354.215,705.117 C351.995,705.117 349.886,704.377 348.443,703.489 z" fill-opacity="0" stroke="#8965AE" stroke-width="1"/>
      <path d="M367.942,682.472 L367.942,707.41 L371.162,707.41 L371.162,682.472 z" fill-opacity="0" stroke="#8965AE" stroke-width="1"/>
      <path d="M382.336,707.411 L385.592,707.411 L385.592,685.211 L393.214,685.211 L393.214,682.473 L374.751,682.473 L374.751,685.211 L382.336,685.211 z" fill-opacity="0" stroke="#8965AE" stroke-width="1"/>
      <path d="M409.715,693.054 L400.022,693.054 L400.022,685.173 L410.271,685.173 L410.271,682.472 L396.802,682.472 L396.802,707.41 L410.825,707.41 L410.825,704.709 L400.022,704.709 L400.022,695.718 L409.715,695.718 z" fill-opacity="0" stroke="#8965AE" stroke-width="1"/>
      <path d="M423.219,706.19 C424.551,707.078 427.178,707.781 429.583,707.781 C435.466,707.781 438.316,704.451 438.316,700.603 C438.316,696.94 436.169,694.905 431.951,693.277 C428.51,691.945 426.993,690.797 426.993,688.466 C426.993,686.764 428.288,684.73 431.693,684.73 C433.949,684.73 435.615,685.469 436.428,685.914 L437.317,683.287 C436.206,682.658 434.357,682.066 431.803,682.066 C426.956,682.066 423.738,684.952 423.738,688.836 C423.738,692.352 426.253,694.461 430.323,695.904 C433.691,697.199 435.023,698.531 435.023,700.862 C435.023,703.377 433.098,705.117 429.805,705.117 C427.585,705.117 425.476,704.377 424.033,703.489 z" fill-opacity="0" stroke="#8965AE" stroke-width="1"/>
      <path d="M453.634,682.066 C446.974,682.066 442.053,687.246 442.053,695.164 C442.053,702.712 446.678,707.818 453.264,707.818 C459.628,707.818 464.845,703.267 464.845,694.683 C464.845,687.283 460.442,682.066 453.634,682.066 z M453.486,684.693 C458.851,684.693 461.441,689.873 461.441,694.831 C461.441,700.492 458.555,705.191 453.448,705.191 C448.38,705.191 445.494,700.418 445.494,695.089 C445.494,689.614 448.157,684.693 453.486,684.693 z" fill-opacity="0" stroke="#8965AE" stroke-width="1"/>
      <path d="M479.94,682.066 C473.28,682.066 468.359,687.246 468.359,695.164 C468.359,702.712 472.984,707.818 479.57,707.818 C485.934,707.818 491.151,703.267 491.151,694.683 C491.151,687.283 486.748,682.066 479.94,682.066 z M479.792,684.693 C485.157,684.693 487.747,689.873 487.747,694.831 C487.747,700.492 484.861,705.191 479.754,705.191 C474.686,705.191 471.8,700.418 471.8,695.089 C471.8,689.614 474.463,684.693 479.792,684.693 z" fill-opacity="0" stroke="#8965AE" stroke-width="1"/>
      <path d="M499.181,707.411 L499.181,696.755 C499.181,692.611 499.108,689.614 498.922,686.469 L499.034,686.432 C500.291,689.133 501.956,691.982 503.696,694.757 L511.614,707.411 L514.869,707.411 L514.869,682.473 L511.835,682.473 L511.835,692.907 C511.835,696.792 511.91,699.826 512.205,703.156 L512.131,703.193 C510.948,700.64 509.504,698.013 507.655,695.09 L499.662,682.473 L496.147,682.473 L496.147,707.411 z" fill-opacity="0" stroke="#8965AE" stroke-width="1"/>
      <path d="M524.008,700.233 L524.527,682.472 L520.974,682.472 L521.492,700.233 z M522.75,707.818 C524.082,707.818 524.934,706.819 524.934,705.524 C524.934,704.192 524.082,703.23 522.75,703.23 C521.492,703.23 520.568,704.192 520.568,705.524 C520.568,706.819 521.455,707.818 522.75,707.818 z" fill-opacity="0" stroke="#8965AE" stroke-width="1"/>
    </g>
    <path d="M507.148,300.993 C512.866,300.122 517.314,305.605 519.874,321.318 C522.748,338.97 520.638,353.007 510.429,354.561 C507.571,354.997 503.88,354.169 501.005,353.216 C496.216,322.536 496.734,302.579 507.148,300.993 M495.085,282.157 C494.326,277.502 491.495,275.548 486.8,276.264 C486.279,276.344 485.704,276.481 485.092,276.665 C497.21,261.992 501.778,238.798 503.046,219.487 C511.901,217.248 521.37,213.535 521.37,213.535 C516.894,219.917 505.99,241.89 508.727,260.16 C509.536,265.542 512.028,270.209 516.01,273.648 C515.56,273.688 515.107,273.739 514.646,273.809 C503.009,275.582 496.926,289.631 493.873,300.432 C494.668,293.751 495.747,286.23 495.085,282.157 M468.845,371.253 C464.183,372.151 460.71,368.618 458.111,356.102 C455.352,342.819 456.078,330.063 453.558,317.935 C451.201,306.576 446.079,298.152 433.511,300.575 C423.375,302.53 415.119,314.535 411.359,324.87 C408.069,314.091 403.103,306.438 392.97,308.393 C381.823,310.541 372.3,325.593 369.714,336.503 C369.373,328.76 371.173,322.206 370.336,318.163 C369.373,313.543 366.667,311.662 362.003,312.56 C355.721,313.772 342.404,322.747 342.256,332.186 C341.962,336.85 342.275,340.391 348.628,372.007 C349.705,377.677 350.357,383.423 350.927,388.743 C348.204,392.056 348.746,399.698 343.096,400.708 C338.827,401.472 335.199,395.729 331.38,375.845 C327.558,355.962 329.616,340.417 328.391,334.044 C327.352,328.638 322.638,327.085 319.587,327.631 C315.321,328.394 309.855,332.768 306.328,337.389 C303.794,334.052 299.06,331.302 289.304,333.048 C273.861,335.811 253.085,353.507 260.767,393.472 C261.919,399.468 264.14,406.139 267.482,412.067 C263.865,416.78 258.797,426.067 245.388,427.901 C231.869,429.749 214.548,423.509 210.49,395.62 C207.25,373.358 214.785,353.862 224.571,352.524 C230.492,351.718 234.966,358.087 235.679,362.985 C236.693,369.956 234.636,369.362 235.367,374.378 C235.99,378.661 239.934,380.491 242.507,380.139 C254.867,378.448 258.021,368.538 257.273,363.397 C254.882,346.977 243.062,338.681 229.79,339.227 C231.377,336.886 232.99,333.848 234.205,330.735 C239.028,333.985 244.849,335.597 251.732,334.501 C259.686,333.235 267.283,328.644 272.142,321.503 C277.006,326.698 284.364,329.309 293.541,327.848 C305.027,326.02 310.822,318.17 313.432,311.043 C320.294,314.065 328.917,315.53 338.249,314.253 C359.328,311.367 372.584,300.628 370.004,282.931 C365.47,251.822 319.744,251.734 311.461,242.16 L313.918,241.826 C332.539,239.273 355.206,234.386 371.238,229.811 C371.914,248.757 373.431,267.785 374.453,274.786 C377.003,292.285 387.138,305.972 407.398,303.197 C420.568,301.394 427.63,291.313 430.49,283.597 C438.9,289.799 449.467,292.316 460.482,290.765 C463.542,290.335 466.39,289.58 469.043,288.55 C467.668,290.602 466.707,292.803 466.427,295.072 C465.101,305.341 470.437,341.278 474.194,364.591 C473.292,367.608 472.222,370.6 468.845,371.253 M299.437,408.718 C296.187,409.3 289.307,406.337 284.706,382.397 C282.405,370.429 282.836,352.975 291.778,351.378 C295.029,350.794 296.101,352.001 296.509,354.124 C297.066,357.02 296.017,361.401 296.537,364.102 C297.168,367.388 299.165,369.026 303.026,368.335 C304.086,377.132 305.259,386.509 306.595,393.458 C306.817,394.616 307.041,395.774 307.67,396.86 C306.97,401.979 305.329,407.663 299.437,408.718 M248.412,257.22 C251.674,256.701 252.723,257.926 253.086,260.057 C253.582,262.965 252.439,267.325 252.901,270.037 C253.461,273.33 255.422,275.01 259.298,274.392 C260.171,283.209 261.144,292.606 262.332,299.58 C262.531,300.745 262.729,301.907 263.335,303.003 C262.527,308.107 260.766,313.762 254.853,314.702 C251.589,315.221 244.779,312.127 240.684,288.1 C238.638,276.087 239.439,258.649 248.412,257.22 M445.605,215.27 C450.31,214.609 453.142,219.568 453.843,224.23 C455.3,233.948 448.08,241.514 439.752,247.25 C439.373,246.112 439.195,244.945 438.994,243.585 C436.865,229.401 438.856,216.222 445.605,215.27 M514.07,418.016 C512.933,411.034 509.471,405.2 503.5,368.54 C507.901,369.856 512.614,370.53 517.511,369.784 C541.606,366.112 548.977,335.569 544.904,310.548 C542.938,298.48 538.639,286.625 531.718,279.709 C534.715,279.953 537.972,279.855 541.477,279.362 C562.955,276.337 568.103,256.364 567.313,251.116 C566.849,248.009 564.544,245.158 561.475,245.589 C555.543,246.425 558.052,257.579 548.642,258.906 C544.142,259.539 536.02,258.301 533.833,243.726 C530.249,219.824 545.42,203.994 544.308,196.611 C543,187.865 536.779,179.813 531.867,180.503 C525.732,181.368 519.767,195.898 503.402,202.372 C503.377,196.618 502.88,191.928 502.472,189.206 C501.19,180.657 498.562,175.668 491.606,176.648 C483.426,177.801 471.5,192.971 473.424,205.797 C474.648,213.962 480.081,220.933 490.161,221.301 C488.722,245.118 481.175,269.993 465.425,272.21 C458.064,273.245 450.087,271.592 443.896,259.563 C458.157,252.993 476.045,237.18 473.071,217.357 C471.205,204.921 461.682,194.354 445.73,196.601 C423.64,199.71 408.964,224.398 413.191,252.577 C414.498,261.284 417.45,268.609 421.583,274.464 C420.044,277.97 418.521,282.237 412.806,283.021 C407.689,283.721 402.896,278.03 399.979,258.003 C398.788,249.837 398.009,234.473 397.64,219.055 C405.834,216.544 411.132,214.232 413.924,210.479 C415.513,208.476 417.716,199.25 417.005,194.389 C416.722,192.444 415.566,190.224 413.315,190.532 C409.015,191.119 402.828,195.935 397.531,198.245 C397.297,185.187 397.227,174.687 396.859,172.16 C396.065,166.715 391.634,164.941 388.359,165.389 C382.218,166.23 372.98,174.437 370.64,181.302 C369.751,183.803 369.962,195.278 370.541,209.279 C324.644,228.058 290.853,218.207 294.566,243.68 C297.173,261.568 343.116,271.74 345.611,288.85 C346.348,293.907 343.525,297.465 337.796,298.25 C327.358,299.679 321.628,287.573 319.796,279.296 C318.593,273.907 316.883,270.77 312.995,271.302 C307.469,272.058 296.345,283.102 298.019,294.574 C298.395,297.156 299.578,299.716 301.415,302.103 C301.211,303.61 300.582,304.62 299.035,304.866 C294.752,305.548 290.882,302.401 287.482,282.445 C284.084,262.489 286.468,246.983 285.378,240.589 C284.456,235.164 279.777,233.52 276.718,234.007 C272.435,234.689 266.878,238.957 263.254,243.514 C260.793,240.125 256.119,237.286 246.33,238.845 C230.83,241.311 209.686,258.606 216.518,298.712 C217.476,304.336 219.355,310.566 222.219,316.247 C215.852,318.206 207.514,322.07 178.512,330.507 L153.988,337.97 C151.894,326.953 147.439,303.705 145.298,285.074 L144.787,282.634 C151.631,281.259 158.179,279.522 163.916,278.161 C195.885,270.056 207.142,266.318 210.351,262.495 C213.902,258.184 218.953,246.159 217.625,239.859 C216.64,235.189 212.275,234.577 208.424,235.351 C199.714,237.101 191.998,241.743 160.704,253.391 L141.873,260.343 C139.131,238.867 137.634,223.288 136.05,212.588 C145.037,207.61 155.951,202.246 170.673,195.904 C195.239,185.473 223.914,179.722 222.373,172.407 C221.217,166.921 214.113,166.016 201.273,168.591 C173.239,174.211 149.529,181.297 131.853,188.439 C129.16,185.171 124.665,183.952 121.667,184.555 C113.108,186.267 99.413,197.487 96.888,205.619 C96.292,207.008 96.161,208.517 96.162,210.634 C92.908,216.368 91.882,228.436 93.168,234.531 C93.681,236.97 94.58,238.061 95.65,237.847 C96.933,237.588 98.216,237.33 99.461,236.871 C101.342,246.871 103.739,259.308 106.093,274.721 C97.835,278.917 97.064,281.614 97.878,285.474 C98.349,287.708 102.287,288.402 108.066,288.303 C113.502,322.58 114.959,344.311 117.527,356.505 C119.368,365.241 121.421,368.643 126.556,367.614 C139.212,365.075 180.326,356.727 206.136,349.776 C193.16,361.54 184.355,382.05 187.818,405.831 C192.818,440.204 218.877,448.741 239.089,445.979 C259.534,443.184 269.66,429.292 273.026,419.878 C278.878,426.362 286.741,430.358 296.735,428.571 C304.662,427.153 312.162,422.417 316.869,415.184 C321.845,420.286 329.251,422.757 338.401,421.118 C346.654,419.641 351.878,415.091 355.076,409.977 C356.132,411.587 357.524,412.339 359.455,411.966 C378.306,408.335 380.237,399.348 379.157,394.153 C372.761,363.348 374.9,338.108 383.209,336.505 C387.669,335.645 389.967,339.608 391.327,346.151 C394.764,362.71 392.451,378.975 395.689,394.569 C397.007,400.923 398.983,404.347 402.224,403.722 C421.28,400.048 423.207,391.065 422.128,385.866 C415.732,355.063 415.236,330.329 423.544,328.728 C426.99,328.063 428.925,331.294 429.963,336.302 C431.763,344.966 431.282,358.874 433.32,368.69 C436.919,386.018 448.24,394.848 464.455,391.723 C470.28,390.6 474.565,387.973 477.686,384.727 C479.031,391.796 480.493,398.714 482.031,404.837 C477.035,404.206 472.004,403.831 467.054,403.518 C460.412,403.098 453.752,402.958 447.096,403.028 C441.097,403.093 435.216,403.268 429.337,404.479 C405.9,409.313 382.628,414.968 359.386,420.655 C336.419,426.272 313.412,431.805 290.529,437.757 C280.785,440.29 271.33,443.563 261.862,446.956 C254.413,449.626 246.905,451.548 239.034,452.472 C233.003,453.179 226.921,453.432 220.855,453.577 C213.9,453.743 207.421,452.692 200.833,450.45 C194.224,448.202 187.95,445.024 181.832,441.694 C179.344,440.341 176.834,438.458 174.133,437.585 C171.886,436.858 169.427,437.763 167.447,438.802 C163.272,440.987 159.843,444.888 157.221,448.727 C154.802,452.27 154.362,456.413 155.191,460.552 C156.281,466.003 160.207,470.675 164.154,474.358 C168.212,478.145 172.927,480.991 178.132,482.88 C188.859,486.768 200.978,487.552 212.291,486.96 C226.373,486.222 240.09,481.86 253.382,477.45 C260.457,475.104 267.495,472.649 274.615,470.446 C281.865,468.202 289.248,466.413 296.578,464.456 C311.004,460.606 325.382,456.577 339.741,452.481 C353.868,448.456 367.976,444.368 382.104,440.348 C396.752,436.182 411.425,431.458 426.436,428.788 C440.976,426.202 455.812,425.729 470.538,426.483 C478.101,426.872 485.644,427.632 493.157,428.579 C496.861,429.046 500.556,429.579 504.248,430.141 C506.958,430.554 509.55,430.987 511.936,429.347 C514.991,427.243 515.051,422.257 514.101,418.837 C514.124,418.569 514.116,418.296 514.07,418.016" fill="#FFFFFF"/>
    <path d="M521.01,379.829 C520.5,376.761 521.235,375.565 520.969,373.96 C520.783,372.845 519.877,372.565 518.901,372.725 C516.04,373.202 510.605,381.913 511.519,387.421 C511.958,390.071 513.271,390.642 515.154,390.331 C517.526,389.938 522.583,387.595 521.831,383.061 C521.612,381.735 521.149,380.667 521.01,379.829" fill="#FFFFFF"/>
    <path d="M548.397,412.77 C546.385,400.633 543.517,372.086 543.239,370.411 C542.928,368.529 540.835,368.014 540.07,368.143 C538.605,368.385 537.149,370.848 532.602,374.969 C527.159,379.741 522.45,380.737 522.739,382.481 C522.982,383.947 526,387.458 528.51,387.042 C530.325,386.741 532.382,384.465 534.245,381.865 C535.088,388.245 537.325,407.366 538.005,413.632 C536.808,413.758 535.692,413.943 534.855,414.081 C533.46,414.313 532.567,414.533 532.227,414.659 C531.112,415.276 529.143,419.4 529.41,421.004 C529.617,422.258 530.583,422.458 531.489,422.307 C532.605,422.122 538.209,420.047 544.01,418.727 C551.542,417.047 559.376,415.893 559.031,413.799 C558.856,412.754 553.882,412.576 548.397,412.77" fill="#FFFFFF"/>
    <path d="M588.9,388.644 C588.796,388.015 588.658,387.609 588.342,387.447 C588.088,387.201 587.866,387.165 587.518,387.224 C586.052,387.466 583.947,390.324 578.449,391.306 C578.117,385.843 578.271,382.021 578.109,381.044 C577.901,379.789 577.099,379.277 576.124,379.437 C574.799,379.658 572.749,385.445 571.15,392.23 C569.046,392.507 568.338,392.554 565.128,393.083 C564.64,393.165 563.394,393.445 563.394,393.445 C568.029,384.65 572.504,371.009 571.569,365.359 C571.281,363.617 570.306,362.058 568.631,362.335 C566.888,362.624 561.515,366.095 560.467,368.419 C559.07,371.23 560.847,384.55 556.025,396.099 C552.28,398.582 552.151,400.394 552.301,401.302 C552.509,402.558 553.635,403.302 555.729,402.955 C556.915,402.759 558.309,401.667 559.706,400.146 C562.158,400.242 565.609,400.744 569.573,400.876 C569.163,404.886 569.007,408.708 569.446,411.359 C569.886,414.009 570.954,415.695 572.767,415.396 C576.114,414.841 581.232,410.265 580.875,408.103 C580.47,405.662 579.97,403.953 579.659,402.07 L579.405,400.537 C580.045,400.501 580.603,400.41 581.3,400.294 C586.74,399.392 589.421,391.783 588.9,388.644" fill="#FFFFFF"/>
  </g>
  <defs/>
</svg>
