<?xml version="1.0" encoding="UTF-8"?>
<!DOCTYPE svg PUBLIC "-//W3C//DTD SVG 1.1//EN" "http://www.w3.org/Graphics/SVG/1.1/DTD/svg11.dtd">
<svg version="1.1" xmlns="http://www.w3.org/2000/svg" xmlns:xlink="http://www.w3.org/1999/xlink" x="0px" y="0px" width="1002" height="702" viewBox="0, 0, 1002, 702">
  <g id="Layer 1">
    <path d="M867.207,102.75 L935.896,105.421 L887.686,192.26 z" fill="#694D9C"/>
    <path d="M257.289,197.711 L180.34,59.34 L109.468,44.975 z" fill="#B94295"/>
    <path d="M111.659,44.974 L67.209,219.582 L150.336,281.245 z" fill="#B94295"/>
    <path d="M1,405.08 L45.448,405.271 L8.916,304.127 L1,314.824 z" fill="#8166AA"/>
    <path d="M875.998,701 L891.114,607.39 L803.311,701 z" fill="#4D4195"/>
    <path d="M963.029,601.506 L823.602,613.006 L918.417,563.943 z" fill="#694D9C"/>
    <path d="M588.343,72.347 L698.14,35.444 L609.381,1.001 L552,1.001 z" fill="#7468AD"/>
    <path d="M914.063,473.044 L932.667,389.76 L969.483,517.076 z" fill="#B468A6"/>
    <path d="M934.169,107.055 L891.361,7.333 L868.502,103.68 z" fill="#7F4E9D"/>
    <path d="M887.483,192.26 L976.72,160.717 L919.807,298.284 z" fill="#4D4195"/>
    <path d="M68.599,219.582 L150.336,281.245 L8.916,305.263 z" fill="#C74195"/>
    <path d="M203.249,455.12 L74,405.871 L98.102,378.533 z" fill="#9A69AB"/>
    <path d="M203.249,455.12 L45.448,536.134 L74,405.871 z" fill="#7957A2"/>
    <path d="M1001,545.496 L1001,541.874 L914.455,473.385 L903.103,527.869 z" fill="#7E57A2"/>
    <path d="M967.023,538.801 L823.602,613.005 L903.103,526.89 z" fill="#97529E"/>
    <path d="M949.597,366.62 L1001,330.62 L1001,299.944 L919.909,298.284 z" fill="#B468A8"/>
    <path d="M868.502,103.681 L892.863,1 L889.91,1 L753.757,58.678 z" fill="#6C6CAF"/>
    <path d="M1001,542.085 L1001,489.383 L969.482,517.076 z" fill="#8A63A7"/>
    <path d="M963.029,397.253 L1001,357.076 L1001,330.233 L949.302,366.62 z" fill="#C43B93"/>
    <path d="M1001,406.714 L1001,356.13 L963.029,397.255 z" fill="#B14095"/>
    <path d="M1001,92.494 L1001,1 L952.019,1 L934.17,107.055 z" fill="#7B8AC4"/>
    <path d="M753.757,58.678 L890.016,1 L606.292,1 z" fill="#5E64AB"/>
    <path d="M588.779,71.371 L552.284,1 L537.637,1 L516.18,45.108 z" fill="#BE6EAB"/>
    <path d="M1,25.432 L179.263,59.41 L235.388,1 L221.162,1 L1,22.552 z" fill="#B763A5"/>
    <path d="M147.337,701 L219.159,701 L134.16,668.71 z" fill="#B64296"/>
    <path d="M232.189,629.944 L129.835,608.864 L134.16,668.711 z" fill="#BE58A0"/>
    <path d="M1,492.379 L100.542,375.763 L47.176,401.976 L1,482.771 z" fill="#8F6EAF"/>
    <path d="M129.618,520.031 L134.355,668.711 L83.178,592.577 z" fill="#866CAE"/>
    <path d="M91.348,512.592 L83.178,592.577 L163.579,475.484 z" fill="#9B69AA"/>
  </g>
  <defs/>
</svg>
