<?xml version="1.0" encoding="UTF-8"?>
<!DOCTYPE svg PUBLIC "-//W3C//DTD SVG 1.1//EN" "http://www.w3.org/Graphics/SVG/1.1/DTD/svg11.dtd">
<svg version="1.1" xmlns="http://www.w3.org/2000/svg" xmlns:xlink="http://www.w3.org/1999/xlink" x="0px" y="0px" width="1002" height="702" viewBox="0, 0, 1002, 702">
  <g id="Layer 1">
    <path d="M934.169,107.055 L978.656,161.862 L887.685,192.26 z" fill="#594598"/>
    <path d="M1001,594.501 L1001,545.56 L965.188,538.8 L958.118,599.335 z" fill="#694D9C"/>
    <path d="M1,161.417 L113.942,46.474 L1,24.874 z" fill="#C964A4"/>
    <path d="M914.204,701 L891.114,604.948 L875.76,701 z" fill="#524497"/>
    <path d="M45.448,542.24 L31.772,454.103 L74.001,405.872 z" fill="#744B9B"/>
    <path d="M45.448,536.134 L83.178,592.577 L93.809,508.844 z" fill="#866CAE"/>
    <path d="M1,23.274 L226.477,1 L1,1 z" fill="#B760A4"/>
    <path d="M985.477,300.082 L1001,300.282 L1001,190.086 L965.052,185.361 z" fill="#8A63A7"/>
    <path d="M1,170.322 L68.599,219.582 L111.66,46.474 L1,161.383 z" fill="#C64C9A"/>
    <path d="M1,220.481 L8.916,305.262 L68.599,219.582 L1,169.996 z" fill="#CC5CA1"/>
    <path d="M976.72,160.717 L1001,126.482 L1001,92.483 L934.17,107.057 z" fill="#4D4195"/>
    <path d="M965.939,186.58 L985.477,299.839 L919.672,298.283 z" fill="#694D9C"/>
    <path d="M975.193,697.703 L1001,646.626 L1001,593.713 L891.114,607.389 z" fill="#7958A2"/>
    <path d="M967.023,538.801 L960.32,599.578 L918.049,563.942 z" fill="#7958A2"/>
    <path d="M1001,191.068 L1001,170.874 L976.718,160.717 L966.038,186.58 z" fill="#BDA7D0"/>
    <path d="M1,316.157 L8.916,305.262 L1,214.453 z" fill="#D270AB"/>
    <path d="M1,485.746 L45.448,405.271 L1,402.733 z" fill="#6B8EC6"/>
    <path d="M1,628.451 L68.695,671.928 L31.771,454.102 L1,489.054 z" fill="#7957A2"/>
    <path d="M134.355,668.554 L45.448,536.135 L68.693,671.929 z" fill="#6B8EC6"/>
    <path d="M147.337,701 L219.159,701 L134.16,668.71 z" fill="#0053A5"/>
  </g>
  <defs/>
</svg>
