<?xml version="1.0" encoding="UTF-8"?>
<!DOCTYPE svg PUBLIC "-//W3C//DTD SVG 1.1//EN" "http://www.w3.org/Graphics/SVG/1.1/DTD/svg11.dtd">
<svg version="1.1" xmlns="http://www.w3.org/2000/svg" xmlns:xlink="http://www.w3.org/1999/xlink" x="0px" y="0px" width="1002" height="702" viewBox="0, 0, 1002, 702">
  <g id="Layer 1">
    <path d="M707.072,473.861 L765.694,455.661 L739.479,377.702 z" fill="#544495"/>
    <path d="M553.936,146.244 L557.323,254.089 L428.571,263.42 z" fill="#BF4A99"/>
    <path d="M366.506,202.883 L477.174,219.093 L393.83,295.168 z" fill="#E470AA"/>
    <path d="M321.086,46.041 L345.798,309.809 L394.019,295.167 z" fill="#BE58A0"/>
    <path d="M853.448,275.989 L739.479,377.702 L679.462,302.529 z" fill="#9B69AA"/>
    <path d="M279.855,329.047 L279.855,399.636 L393.712,295.167 z" fill="#664E9D"/>
    <path d="M270.774,525.656 L375.752,452.617 L337.446,536.134 z" fill="#6B73B4"/>
    <path d="M280.306,399.182 L375.753,452.618 L270.774,525.656 z" fill="#4D4195"/>
    <path d="M488.78,611.764 L337.322,536.134 L414.286,636.113 z" fill="#866CAE"/>
    <path d="M396.678,517.565 L488.78,611.765 L415.183,575.074 z" fill="#664E9D"/>
    <path d="M584.487,622.328 L510.242,472.409 L488.78,611.716 z" fill="#754D9C"/>
    <path d="M647.677,498.072 L584.487,622.328 L572.091,514.05 z" fill="#664E9D"/>
    <path d="M767.947,563.551 L647.677,498.072 L681.778,610.916 z" fill="#866CAE"/>
    <path d="M767.947,563.845 L765.525,455.12 L707.072,473.861 z" fill="#9B69AA"/>
    <path d="M557.323,253.844 L679.919,302.641 L655.073,142.253 z" fill="#A54B9A"/>
  </g>
  <defs/>
</svg>
