<?xml version="1.0" encoding="UTF-8"?>
<!DOCTYPE svg PUBLIC "-//W3C//DTD SVG 1.1//EN" "http://www.w3.org/Graphics/SVG/1.1/DTD/svg11.dtd">
<svg version="1.1" xmlns="http://www.w3.org/2000/svg" xmlns:xlink="http://www.w3.org/1999/xlink" x="0px" y="0px" width="1002" height="702" viewBox="0, 0, 1002, 702">
  <g id="Layer 1">
    <path d="M643.123,627.691 L488.78,611.715 L505.542,689.572 z" fill="#7458A2"/>
    <path d="M444.175,701 L452.827,701 L488.779,611.764 L414.101,636.112 z" fill="#9B69AA"/>
    <path d="M719.347,701 L752.381,701 L767.946,563.551 L681.778,610.957 z" fill="#594598"/>
    <path d="M773.77,139.811 L664.081,209.037 L655.073,142.31 z" fill="#CB61A3"/>
    <path d="M680.047,302.529 L773.768,139.811 L663.589,209.037 z" fill="#B94295"/>
    <path d="M853.448,275.989 L679.462,302.53 L773.767,139.811 z" fill="#97529E"/>
    <path d="M553.929,146.468 L603.241,201.867 L655.073,142.254 z" fill="#B963A4"/>
    <path d="M553.929,146.468 L557.323,253.843 L603.422,202.165 z" fill="#C64C9A"/>
    <path d="M257.289,197.711 L345.963,309.808 L279.855,329.046 z" fill="#A54C9A"/>
    <path d="M321.1,46.029 L257.289,197.711 L345.962,309.81 z" fill="#C54F9B"/>
    <path d="M321.086,46.181 L475.944,219.9 L366.474,204.575 z" fill="#D7549D"/>
    <path d="M197.176,328.103 L280.307,401.31 L279.854,328.956 z" fill="#97529E"/>
    <path d="M270.774,525.656 L281.855,401.048 L197.176,328.105 z" fill="#754D9C"/>
    <path d="M414.286,636.112 L337.322,534.725 L307.613,599.468 z" fill="#754D9C"/>
    <path d="M647.677,498.072 L681.778,610.916 L584.487,622.328 z" fill="#744B9B"/>
    <path d="M821.762,442.732 L765.193,455.12 L739.479,377.702 z" fill="#7958A2"/>
    <path d="M823.6,613.006 L765.193,455.12 L767.545,563.552 z" fill="#9B69AA"/>
    <path d="M321.086,46.181 L553.929,146.256 L475.575,219.9 z" fill="#B64296"/>
    <path d="M308.773,599.444 L270.774,525.656 L130.898,570.288 z" fill="#A54B9A"/>
    <path d="M738.421,378.349 L853.645,370.928 L853.448,275.989 z" fill="#7E57A2"/>
  </g>
  <defs/>
</svg>
