<?xml version="1.0" encoding="UTF-8"?>
<!DOCTYPE svg PUBLIC "-//W3C//DTD SVG 1.1//EN" "http://www.w3.org/Graphics/SVG/1.1/DTD/svg11.dtd">
<svg version="1.1" xmlns="http://www.w3.org/2000/svg" xmlns:xlink="http://www.w3.org/1999/xlink" x="0px" y="0px" width="1002" height="702" viewBox="0, 0, 1002, 702">
  <g id="Layer 1">
    <path d="M822.092,442.386 L823.6,613.006 L765.196,455.121 z" fill="#7958A2"/>
    <path d="M280.002,329.047 L195.66,328.506 L229.835,309.773 z" fill="#8A64A9"/>
    <path d="M308.773,599.468 L232.091,629.944 L124.349,567.62 z" fill="#CB4698"/>
    <path d="M773.77,139.887 L887.685,191.874 L853.45,276.26 z" fill="#7958A2"/>
    <path d="M551.421,147.039 L628.777,114.16 L655.342,142.318 z" fill="#B56BAA"/>
    <path d="M654.387,142.84 L773.77,139.886 L694.8,35.443 z" fill="#B763A5"/>
    <path d="M345.006,701 L353.303,701 L414.286,636.024 L308.772,599.468 z" fill="#7957A2"/>
    <path d="M425.369,701 L444.168,701 L414.1,636.112 L373.84,679.032 z" fill="#754D9C"/>
    <path d="M719.368,701 L681.764,610.903 L673.272,701 z" fill="#544497"/>
    <path d="M777.846,701 L823.6,613.005 L767.684,563.551 L752.389,701 z" fill="#694D9C"/>
    <path d="M601.675,701 L681.638,610.914 L471.979,701 z" fill="#9B69AA"/>
    <path d="M471.921,701 L505.787,686.412 L488.78,611.714 L452.765,701 z" fill="#744B9B"/>
    <path d="M257.288,197.711 L321.086,46.084 L239.094,1 L236.761,1 z" fill="#B763A5"/>
    <path d="M257.289,197.711 L280.002,329.028 L150.337,281.243 z" fill="#AA80B7"/>
    <path d="M497.077,122.044 L516.18,45.107 L553.936,146.469 z" fill="#B64296"/>
    <path d="M853.577,370.917 L853.447,275.99 L963.029,397.252 z" fill="#9C75B2"/>
    <path d="M197.176,328.103 L203.257,455.121 L270.774,525.656 z" fill="#504497"/>
    <path d="M337.322,536.134 L270.774,525.655 L308.773,599.467 z" fill="#7957A2"/>
    <path d="M681.641,610.915 L584.487,622.133 L642.376,627.796 z" fill="#594598"/>
    <path d="M853.645,370.917 L821.764,442.732 L739.479,377.702 z" fill="#694D9C"/>
    <path d="M321.086,46.181 L553.929,146.256 L475.575,219.9 z" fill="#004EA5"/>
    <path d="M357.553,62.096 L407.728,1.001 L391.316,1.001 L321.085,46.183 z" fill="#BF6EAA"/>
    <path d="M130.898,570.288 L128.489,523.872 L273.101,525.656 z" fill="#7458A2"/>
  </g>
  <defs/>
</svg>
