<?xml version="1.0" encoding="UTF-8"?>
<!DOCTYPE svg PUBLIC "-//W3C//DTD SVG 1.1//EN" "http://www.w3.org/Graphics/SVG/1.1/DTD/svg11.dtd">
<svg version="1.1" xmlns="http://www.w3.org/2000/svg" xmlns:xlink="http://www.w3.org/1999/xlink" x="0px" y="0px" width="1002" height="702" viewBox="0, 0, 1002, 702">
  <g id="Layer 1">
    <path d="M803.698,701 L893.397,606.431 L823.6,613.005 L777.594,701 z" fill="#544497"/>
    <path d="M823.6,613.006 L903.106,526.889 L822.318,517.2 z" fill="#694D9C"/>
    <path d="M163.578,475.484 L125.121,524.986 L270.774,525.655 z" fill="#866CAE"/>
    <path d="M427.788,701 L373.841,670.48 L350.099,701 z" fill="#9B69AA"/>
    <path d="M673.446,701 L682.144,608.757 L655.189,701 z" fill="#754D9C"/>
    <path d="M821.762,442.732 L822.073,517.443 L904.514,527.869 z" fill="#9B69AA"/>
    <path d="M655.813,701 L681.631,610.893 L601.716,701 z" fill="#7458A2"/>
    <path d="M345.006,701 L308.772,599.468 L231.682,701 z" fill="#B64296"/>
    <path d="M357.399,61.998 L516.18,45.107 L497.378,122.24 z" fill="#CB4698"/>
    <path d="M694.667,35.443 L773.767,139.887 L868.502,103.681 z" fill="#C3A2CB"/>
    <path d="M773.77,139.887 L841.363,170.834 L868.502,103.681 z" fill="#9B69AA"/>
    <path d="M655.073,142.253 L694.841,35.443 L588.345,71.273 z" fill="#AA69AA"/>
    <path d="M628.783,114.263 L588.345,70.883 L553.929,146.469 z" fill="#E36FA9"/>
    <path d="M516.18,45.107 L588.342,70.963 L553.929,146.468 z" fill="#CD5FA3"/>
    <path d="M868.502,103.681 L841.022,170.834 L887.739,192.261 z" fill="#5A4699"/>
    <path d="M887.483,191.951 L853.447,275.99 L919.909,298.284 z" fill="#7958A2"/>
    <path d="M257.288,197.711 L236.782,1 L235.332,1 L179.263,59.329 z" fill="#C64C9A"/>
    <path d="M111.659,46.475 L257.289,197.681 L150.336,281.243 z" fill="#B23E94"/>
    <path d="M8.916,305.263 L150.337,281.244 L231.04,310.969 z" fill="#BD94C3"/>
    <path d="M919.909,298.284 L963.029,397.252 L853.447,275.989 z" fill="#9B72B0"/>
    <path d="M97.106,379.477 L203.249,457.022 L196.18,329.047 z" fill="#7958A2"/>
    <path d="M130.898,570.288 L132.276,609.733 L232.188,629.944 z" fill="#DA72AA"/>
    <path d="M163.579,475.484 L270.774,525.655 L203.249,455.121 z" fill="#744D9B"/>
    <path d="M853.645,370.896 L903.106,527.085 L821.764,442.732 z" fill="#97529E"/>
    <path d="M932.667,389.907 L903.106,527.086 L853.645,370.896 z" fill="#B859A0"/>
    <path d="M969.482,517.077 L1000.999,489.468 L1000.999,406.611 L932.667,389.76 z" fill="#CC6AA8"/>
    <path d="M516.18,45.108 L538.486,1 L406.995,1 L357.554,62.096 z" fill="#DA72AA"/>
    <path d="M321.086,46.474 L391.482,1 L239.008,1 z" fill="#7369AC"/>
    <path d="M219.019,701 L231.755,701 L308.773,599.468 L134.16,668.71 z" fill="#D7549D"/>
    <path d="M8.916,305.263 L45.448,405.271 L231.04,310.969 z" fill="#9B69AA"/>
  </g>
  <defs/>
</svg>
